<svg width="30" height="30" viewBox="0 0 30 30" fill="none" xmlns="http://www.w3.org/2000/svg">
<path d="M22.5 14.0625H19.6875C18.6929 14.0625 17.7391 13.6674 17.0359 12.9642C16.3326 12.2609 15.9375 11.3071 15.9375 10.3125V7.5C15.9375 6.50544 16.3326 5.55161 17.0359 4.84835C17.7391 4.14509 18.6929 3.75 19.6875 3.75H22.5C23.4946 3.75 24.4484 4.14509 25.1516 4.84835C25.8549 5.55161 26.25 6.50544 26.25 7.5V10.3125C26.25 11.3071 25.8549 12.2609 25.1516 12.9642C24.4484 13.6674 23.4946 14.0625 22.5 14.0625ZM19.6875 5.625C19.1902 5.625 18.7133 5.82254 18.3617 6.17417C18.01 6.52581 17.8125 7.00272 17.8125 7.5V10.3125C17.8125 10.8098 18.01 11.2867 18.3617 11.6383C18.7133 11.99 19.1902 12.1875 19.6875 12.1875H22.5C22.9973 12.1875 23.4742 11.99 23.8258 11.6383C24.1775 11.2867 24.375 10.8098 24.375 10.3125V7.5C24.375 7.00272 24.1775 6.52581 23.8258 6.17417C23.4742 5.82254 22.9973 5.625 22.5 5.625H19.6875Z" fill="#ED9121"/>
<path d="M10.3125 14.0625H7.5C6.50544 14.0625 5.55161 13.6674 4.84835 12.9642C4.14509 12.2609 3.75 11.3071 3.75 10.3125V7.5C3.75 6.50544 4.14509 5.55161 4.84835 4.84835C5.55161 4.14509 6.50544 3.75 7.5 3.75H10.3125C11.3071 3.75 12.2609 4.14509 12.9642 4.84835C13.6674 5.55161 14.0625 6.50544 14.0625 7.5V10.3125C14.0625 11.3071 13.6674 12.2609 12.9642 12.9642C12.2609 13.6674 11.3071 14.0625 10.3125 14.0625ZM7.5 5.625C7.00272 5.625 6.52581 5.82254 6.17417 6.17417C5.82254 6.52581 5.625 7.00272 5.625 7.5V10.3125C5.625 10.8098 5.82254 11.2867 6.17417 11.6383C6.52581 11.99 7.00272 12.1875 7.5 12.1875H10.3125C10.8098 12.1875 11.2867 11.99 11.6383 11.6383C11.99 11.2867 12.1875 10.8098 12.1875 10.3125V7.5C12.1875 7.00272 11.99 6.52581 11.6383 6.17417C11.2867 5.82254 10.8098 5.625 10.3125 5.625H7.5Z" fill="#ED9121"/>
<path d="M10.3125 26.25H7.5C6.50544 26.25 5.55161 25.8549 4.84835 25.1516C4.14509 24.4484 3.75 23.4946 3.75 22.5V19.6875C3.75 18.6929 4.14509 17.7391 4.84835 17.0359C5.55161 16.3326 6.50544 15.9375 7.5 15.9375H10.3125C11.3071 15.9375 12.2609 16.3326 12.9642 17.0359C13.6674 17.7391 14.0625 18.6929 14.0625 19.6875V22.5C14.0625 23.4946 13.6674 24.4484 12.9642 25.1516C12.2609 25.8549 11.3071 26.25 10.3125 26.25ZM7.5 17.8125C7.00272 17.8125 6.52581 18.01 6.17417 18.3617C5.82254 18.7133 5.625 19.1902 5.625 19.6875V22.5C5.625 22.9973 5.82254 23.4742 6.17417 23.8258C6.52581 24.1775 7.00272 24.375 7.5 24.375H10.3125C10.8098 24.375 11.2867 24.1775 11.6383 23.8258C11.99 23.4742 12.1875 22.9973 12.1875 22.5V19.6875C12.1875 19.1902 11.99 18.7133 11.6383 18.3617C11.2867 18.01 10.8098 17.8125 10.3125 17.8125H7.5Z" fill="#ED9121"/>
<path d="M22.5 26.25H19.6875C18.6929 26.25 17.7391 25.8549 17.0359 25.1516C16.3326 24.4484 15.9375 23.4946 15.9375 22.5V19.6875C15.9375 18.6929 16.3326 17.7391 17.0359 17.0359C17.7391 16.3326 18.6929 15.9375 19.6875 15.9375H22.5C23.4946 15.9375 24.4484 16.3326 25.1516 17.0359C25.8549 17.7391 26.25 18.6929 26.25 19.6875V22.5C26.25 23.4946 25.8549 24.4484 25.1516 25.1516C24.4484 25.8549 23.4946 26.25 22.5 26.25ZM19.6875 17.8125C19.1902 17.8125 18.7133 18.01 18.3617 18.3617C18.01 18.7133 17.8125 19.1902 17.8125 19.6875V22.5C17.8125 22.9973 18.01 23.4742 18.3617 23.8258C18.7133 24.1775 19.1902 24.375 19.6875 24.375H22.5C22.9973 24.375 23.4742 24.1775 23.8258 23.8258C24.1775 23.4742 24.375 22.9973 24.375 22.5V19.6875C24.375 19.1902 24.1775 18.7133 23.8258 18.3617C23.4742 18.01 22.9973 17.8125 22.5 17.8125H19.6875Z" fill="#ED9121"/>
</svg>
