<svg width="31" height="31" viewBox="0 0 31 31" fill="none" xmlns="http://www.w3.org/2000/svg">
<path d="M17.4777 24.2919C17.4773 24.2919 17.4769 24.2915 17.4766 24.2915C17.4766 24.2915 15.0641 23.7614 14.4595 23.5755C13.7815 23.3663 13.2609 22.8718 12.9852 22.2378C15.1544 21.2431 16.3051 18.7776 16.4906 16.2956V16.0026H17.3461C17.6708 16.0026 17.9335 15.7395 17.9335 15.4152C17.9335 15.0909 17.6708 14.8278 17.3461 14.8278H16.7808L16.717 14.1822C16.5472 12.4658 15.3685 11.0393 13.7149 10.5498L12.8426 10.2905V10.0022C12.8426 9.67789 12.5799 9.41479 12.2551 9.41479H9.35784C9.0339 9.41479 8.77081 9.67712 8.77042 10.0007L8.76965 10.2871L7.87665 10.5521C6.2291 11.0409 5.05122 12.4605 4.8761 14.1684L4.80803 14.8277H4.25503C3.9307 14.8277 3.6676 15.0908 3.6676 15.4151C3.6676 15.7395 3.9307 16.0025 4.25503 16.0025H5.135L5.13539 16.3398C5.31934 18.7802 6.46319 21.2308 8.61934 22.2293C8.344 22.8684 7.82238 23.3655 7.14278 23.5755C6.53738 23.7614 4.12464 24.2914 4.12464 24.2914C4.12464 24.2914 4.12425 24.2918 4.12348 24.2918C3.76937 24.3702 0.823477 25.093 0.480007 27.4992C0.277301 28.9158 0.0405651 30.2612 0.0401783 30.2642C0.00994983 30.4348 0.0573874 30.6107 0.168698 30.7438C0.280395 30.8769 0.445202 30.9534 0.618839 30.9534H20.9827C21.1563 30.9534 21.3207 30.8769 21.4324 30.7438C21.5441 30.6107 21.5915 30.4348 21.5613 30.2642C21.5606 30.2612 21.3238 28.9157 21.1212 27.4992C20.7778 25.0934 17.833 24.3706 17.4777 24.2919ZM17.4862 25.5084V29.7786H14.4852L15.6375 25.0854C16.0532 25.181 17.3378 25.4644 17.4862 25.5084ZM13.3807 11.6757C14.5746 12.0299 15.4252 13.0587 15.5479 14.2985L15.6003 14.8278H12.8426V11.5159L13.3807 11.6757ZM11.6678 10.5896V14.8278H9.93496L9.94411 10.5896H11.6678ZM6.04489 14.2885C6.17109 13.0556 7.02161 12.0314 8.21026 11.6781L8.76707 11.5129L8.76017 14.8278H5.98907L6.04489 14.2885ZM6.30876 16.2956V16.0026H15.317L15.3174 16.2512C15.12 18.877 13.6504 21.5265 10.8123 21.5265C7.97423 21.5265 6.50457 18.877 6.30876 16.2956ZM10.8123 22.7013C11.176 22.7013 11.5168 22.6608 11.8449 22.5984C12.0223 23.0497 12.287 23.4524 12.6193 23.7901L10.8261 25.2468L8.99729 23.7699C9.31511 23.4391 9.57209 23.0432 9.75262 22.5935C10.0887 22.6593 10.4387 22.7013 10.8123 22.7013ZM5.96761 25.0846L7.16231 29.7786H4.1151V25.5084C4.26386 25.4644 5.55041 25.1802 5.96761 25.0846ZM1.64306 27.6661C1.75399 26.8889 2.33909 26.3585 2.94025 26.009V29.7786H1.31455C1.40291 29.2463 1.52834 28.4669 1.64306 27.6661ZM8.37468 29.7786L7.10882 24.8055C7.24804 24.7684 7.84539 24.5676 8.01329 24.4846L10.4578 26.4592C10.5656 26.5464 10.6961 26.5899 10.8269 26.5899C10.9584 26.5899 11.0892 26.5464 11.1975 26.4584L13.6118 24.4973C13.7728 24.5749 14.356 24.7688 14.4963 24.8063L13.2756 29.7787H8.37468V29.7786ZM18.661 29.7786V26.009C19.2622 26.3585 19.8473 26.8889 19.9582 27.6661C20.0729 28.4677 20.1987 29.2463 20.2871 29.7786H18.661Z" fill="#ED9121"/>
<path d="M23.9823 0.0466309C20.13 0.0466309 16.9956 3.18105 16.9956 7.03367C16.9956 10.8863 20.13 14.02 23.9823 14.02C27.8345 14.02 30.9689 10.8864 30.9689 7.03374C30.9689 3.18112 27.8345 0.0466309 23.9823 0.0466309ZM23.9823 12.8452C20.7775 12.8452 18.1704 10.2385 18.1704 7.03374C18.1704 3.82893 20.7775 1.22148 23.9823 1.22148C27.1871 1.22148 29.7941 3.82893 29.7941 7.03374C29.7941 10.2385 27.187 12.8452 23.9823 12.8452Z" fill="#ED9121"/>
<path d="M25.903 4.92717L23.3067 7.64323L22.0351 6.46837C21.7964 6.2473 21.4251 6.26264 21.2052 6.50125C20.9849 6.73914 20.9995 7.11084 21.2381 7.33114L23.3579 9.28923L26.752 5.73947C26.9764 5.50467 26.968 5.13291 26.7336 4.9088C26.4992 4.68547 26.1271 4.69314 25.903 4.92717Z" fill="#ED9121"/>
</svg>
