<svg width="28" height="20" viewBox="0 0 28 20" fill="none" xmlns="http://www.w3.org/2000/svg">
<path d="M9.88 15.9H25.64C26.35 15.9 26.93 15.32 26.93 14.61V10.39C26.93 9.81996 26.79 9.25996 26.53 8.74996L24.1 4.00996C23.88 3.57996 23.43 3.30996 22.95 3.30996H16.52V2.74996C16.52 2.03996 15.94 1.45996 15.23 1.45996H2.3C1.59 1.45996 1.01001 2.03996 1.01001 2.74996V14.61C1.01001 15.32 1.59 15.9 2.3 15.9H9.89001H9.88Z" stroke="#ED9121" stroke-miterlimit="10"/>
<path d="M24.31 8.00018L23.04 5.52017C22.85 5.16017 22.48 4.93018 22.08 4.93018H19.33C18.73 4.93018 18.25 5.42018 18.25 6.01018V8.49017C18.25 9.09017 18.74 9.57018 19.33 9.57018H23.36C24.17 9.57018 24.69 8.71017 24.32 7.99017L24.31 8.00018Z" stroke="#ED9121" stroke-miterlimit="10"/>
<path d="M16.52 3.31006V15.9001" stroke="#ED9121" stroke-miterlimit="10"/>
<path d="M24.0701 15.8999C24.0701 14.3899 22.8501 13.1699 21.3401 13.1699C19.8301 13.1699 18.6101 14.3899 18.6101 15.8999C18.6101 17.4099 19.8301 18.6299 21.3401 18.6299C22.8501 18.6299 24.0701 17.4099 24.0701 15.8999Z" fill="white" stroke="#ED9121" stroke-miterlimit="10"/>
<path d="M21.3501 16.9199C21.9134 16.9199 22.3701 16.4632 22.3701 15.8999C22.3701 15.3366 21.9134 14.8799 21.3501 14.8799C20.7867 14.8799 20.3301 15.3366 20.3301 15.8999C20.3301 16.4632 20.7867 16.9199 21.3501 16.9199Z" stroke="#ED9121" stroke-miterlimit="10"/>
<path d="M10.4302 15.8999C10.4302 14.3899 9.21021 13.1699 7.70021 13.1699C6.19021 13.1699 4.97021 14.3899 4.97021 15.8999C4.97021 17.4099 6.19021 18.6299 7.70021 18.6299C9.21021 18.6299 10.4302 17.4099 10.4302 15.8999Z" fill="white" stroke="#ED9121" stroke-miterlimit="10"/>
<path d="M7.71019 16.9199C8.27352 16.9199 8.73019 16.4632 8.73019 15.8999C8.73019 15.3366 8.27352 14.8799 7.71019 14.8799C7.14686 14.8799 6.69019 15.3366 6.69019 15.8999C6.69019 16.4632 7.14686 16.9199 7.71019 16.9199Z" stroke="#ED9121" stroke-miterlimit="10"/>
<path d="M1 13.1602H16.52" stroke="#ED9121" stroke-miterlimit="10"/>
<path d="M25.6701 11.74H26.9201V13.46H25.6701C25.1901 13.46 24.8101 13.07 24.8101 12.6C24.8101 12.12 25.2001 11.74 25.6701 11.74Z" stroke="#ED9121" stroke-miterlimit="10"/>
</svg>
