<svg width="23" height="23" viewBox="0 0 23 23" fill="none" xmlns="http://www.w3.org/2000/svg">
<g clip-path="url(#clip0_676_2315)">
<path d="M20.6042 0H2.39583C1.76042 0 1.15103 0.252417 0.701723 0.701723C0.252417 1.15103 0 1.76042 0 2.39583L0 20.6042C0 20.9188 0.0619701 21.2303 0.182372 21.521C0.302774 21.8117 0.47925 22.0758 0.701723 22.2983C0.924197 22.5208 1.18831 22.6972 1.47899 22.8176C1.76966 22.938 2.08121 23 2.39583 23H20.6042C20.9188 23 21.2303 22.938 21.521 22.8176C21.8117 22.6972 22.0758 22.5208 22.2983 22.2983C22.5208 22.0758 22.6972 21.8117 22.8176 21.521C22.938 21.2303 23 20.9188 23 20.6042V2.39583C23 2.08121 22.938 1.76966 22.8176 1.47899C22.6972 1.18831 22.5208 0.924197 22.2983 0.701723C22.0758 0.47925 21.8117 0.302774 21.521 0.182372C21.2303 0.0619701 20.9188 0 20.6042 0ZM8.14583 0.958333H14.8542V7.66667H8.14583V0.958333ZM8.14583 8.625H14.8542V9.58333H8.14583V8.625ZM22.0417 20.6042C22.0417 20.9854 21.8902 21.351 21.6206 21.6206C21.351 21.8902 20.9854 22.0417 20.6042 22.0417H2.39583C2.01458 22.0417 1.64895 21.8902 1.37937 21.6206C1.10978 21.351 0.958333 20.9854 0.958333 20.6042V2.39583C0.958333 2.01458 1.10978 1.64895 1.37937 1.37937C1.64895 1.10978 2.01458 0.958333 2.39583 0.958333H7.1875V10.0625C7.1875 10.1896 7.23798 10.3115 7.32784 10.4013C7.41771 10.4912 7.53958 10.5417 7.66667 10.5417H15.3333C15.4604 10.5417 15.5823 10.4912 15.6722 10.4013C15.762 10.3115 15.8125 10.1896 15.8125 10.0625V0.958333H20.6042C20.9854 0.958333 21.351 1.10978 21.6206 1.37937C21.8902 1.64895 22.0417 2.01458 22.0417 2.39583V20.6042Z" fill="#ED9121"/>
<path d="M6.22917 16.2917H3.35417C3.22708 16.2917 3.10521 16.3422 3.01534 16.4321C2.92548 16.522 2.875 16.6438 2.875 16.7709V19.6459C2.875 19.773 2.92548 19.8949 3.01534 19.9847C3.10521 20.0746 3.22708 20.1251 3.35417 20.1251H6.22917C6.35625 20.1251 6.47813 20.0746 6.56799 19.9847C6.65785 19.8949 6.70833 19.773 6.70833 19.6459V16.7709C6.70833 16.6438 6.65785 16.522 6.56799 16.4321C6.47813 16.3422 6.35625 16.2917 6.22917 16.2917ZM5.75 19.1667H3.83333V17.2501H5.75V19.1667Z" fill="#ED9121"/>
<path d="M9.10433 16.7708H8.146V17.7291H9.10433V16.7708Z" fill="#ED9121"/>
<path d="M11.0208 16.7708H10.0625V17.7291H11.0208V16.7708Z" fill="#ED9121"/>
<path d="M13.4168 18.6875H8.146V19.6458H13.4168V18.6875Z" fill="#ED9121"/>
</g>
<defs>
<clipPath id="clip0_676_2315">
<rect width="23" height="23" fill="white"/>
</clipPath>
</defs>
</svg>
