<svg width="234" height="83" viewBox="0 0 234 83" fill="none" xmlns="http://www.w3.org/2000/svg">
<path d="M137.654 41.2733C145.522 41.2733 150.372 31.9301 150.372 21.4695V9.48735C150.372 6.8722 147.044 1 137.654 1" stroke="#ED9121" stroke-miterlimit="10"/>
<path d="M150.276 24.0609C150.276 24.0609 147.067 18.0222 137.654 18.0222" stroke="#ED9121" stroke-miterlimit="10"/>
<path d="M150.276 18.0459C150.276 18.0459 146.14 14.9077 137.654 14.9077" stroke="#ED9121" stroke-miterlimit="10"/>
<path d="M142.099 1.49902C142.551 3.37718 142.931 5.49308 143.216 7.79916C143.549 10.6045 143.668 13.1959 143.644 15.4782" stroke="#ED9121" stroke-miterlimit="10"/>
<path d="M146.188 36.4946C145.783 37.3505 145.522 39.8943 146.639 42.7234C148.208 46.6462 155.363 47.7398 159.523 48.3817C167.13 49.5942 169.222 54.2539 170.078 57.4396C170.839 60.2925 170.886 64.7858 170.815 67.7814C170.767 69.4931 169.389 70.8482 167.677 70.8482H137.677" stroke="#ED9121" stroke-miterlimit="10"/>
<path d="M147.994 44.8394C146.996 45.5526 145.617 46.3609 143.834 47.0028C141.338 47.9062 139.27 48.0726 137.654 48.0726" stroke="#ED9121" stroke-miterlimit="10"/>
<path d="M161.829 70.8481V59.4366C161.829 58.9136 161.401 58.4856 160.879 58.4856H137.654" stroke="#ED9121" stroke-miterlimit="10"/>
<path d="M157.717 48.3816V58.5093" stroke="#ED9121" stroke-miterlimit="10"/>
<path d="M151.679 58.5095V46.7651" stroke="#ED9121" stroke-miterlimit="10"/>
<path d="M149.326 29.6713C149.326 29.6713 152.558 28.863 153.248 24.7026C153.628 22.3489 152.511 20.7085 150.395 20.7085" stroke="#ED9121" stroke-miterlimit="10"/>
<path d="M156.385 62.2659H156.409C157.328 62.2659 158.073 63.011 158.073 63.9301V63.9538C158.073 64.873 157.328 65.618 156.409 65.618H156.385C155.466 65.618 154.721 64.873 154.721 63.9538V63.9301C154.721 63.011 155.466 62.2659 156.385 62.2659Z" stroke="#ED9121" stroke-miterlimit="10"/>
<path d="M137.654 41.2733C129.785 41.2733 124.936 31.9301 124.936 21.4695C124.936 21.4695 124.936 11.7459 124.936 9.48735C124.936 7.22881 128.264 1 137.654 1" stroke="#ED9121" stroke-miterlimit="10"/>
<path d="M125.031 24.0609C125.031 24.0609 128.24 18.0222 137.654 18.0222" stroke="#ED9121" stroke-miterlimit="10"/>
<path d="M125.031 18.0459C125.031 18.0459 129.167 14.9077 137.654 14.9077" stroke="#ED9121" stroke-miterlimit="10"/>
<path d="M133.232 1.49902C132.781 3.37718 132.4 5.49308 132.115 7.79916C131.782 10.6045 131.663 13.1959 131.687 15.4782" stroke="#ED9121" stroke-miterlimit="10"/>
<path d="M129.12 36.4946C129.524 37.3505 129.785 39.8943 128.668 42.7234C127.099 46.6462 119.944 47.7398 115.784 48.3817C108.177 49.5942 106.085 54.2539 105.229 57.4396C104.469 60.2925 104.421 64.7858 104.492 67.7814C104.54 69.4931 105.919 70.8482 107.63 70.8482H137.63" stroke="#ED9121" stroke-miterlimit="10"/>
<path d="M127.337 44.8394C128.335 45.5526 129.714 46.3609 131.497 47.0028C133.993 47.9062 136.061 48.0726 137.677 48.0726" stroke="#ED9121" stroke-miterlimit="10"/>
<path d="M113.502 70.8481V59.4366C113.502 58.9136 113.93 58.4856 114.453 58.4856H137.677" stroke="#ED9121" stroke-miterlimit="10"/>
<path d="M117.591 48.3816V58.5093" stroke="#ED9121" stroke-miterlimit="10"/>
<path d="M123.629 58.5095V46.7651" stroke="#ED9121" stroke-miterlimit="10"/>
<path d="M125.982 29.6713C125.982 29.6713 122.749 28.863 122.06 24.7026C121.679 22.3489 122.797 20.7085 124.912 20.7085" stroke="#ED9121" stroke-miterlimit="10"/>
<path d="M118.946 65.594H118.922C118.003 65.594 117.258 64.8489 117.258 63.9298V63.906C117.258 62.9869 118.003 62.2418 118.922 62.2418H118.946C119.865 62.2418 120.61 62.9869 120.61 63.906V63.9298C120.61 64.8489 119.865 65.594 118.946 65.594Z" stroke="#ED9121" stroke-miterlimit="10"/>
<path d="M56.5928 51.0682C56.5928 40.1558 47.7498 31.2881 36.8149 31.2881H-49.0001" stroke="#ED9121" stroke-miterlimit="10"/>
<path d="M56.5931 51.0684C56.5931 61.9807 65.436 70.8484 76.3709 70.8484H209.824" stroke="#ED9121" stroke-miterlimit="10"/>
<path d="M221.329 82.3787C214.962 82.3787 209.8 77.2164 209.8 70.8483C209.8 64.4802 214.962 59.3179 221.329 59.3179C227.697 59.3179 232.858 64.4802 232.858 70.8483C232.858 77.2164 227.697 82.3787 221.329 82.3787Z" stroke="#ED9121" stroke-miterlimit="10"/>
</svg>
