<svg width="25" height="25" viewBox="0 0 25 25" fill="none" xmlns="http://www.w3.org/2000/svg">
<g clip-path="url(#clip0_452_875)">
<path d="M20.8333 2.08333H19.7917V1.04167C19.7917 0.765399 19.6819 0.500448 19.4866 0.305097C19.2912 0.109747 19.0263 0 18.75 0C18.4737 0 18.2088 0.109747 18.0134 0.305097C17.8181 0.500448 17.7083 0.765399 17.7083 1.04167V2.08333H7.29167V1.04167C7.29167 0.765399 7.18192 0.500448 6.98657 0.305097C6.79122 0.109747 6.52627 0 6.25 0C5.97373 0 5.70878 0.109747 5.51343 0.305097C5.31808 0.500448 5.20833 0.765399 5.20833 1.04167V2.08333H4.16667C3.0616 2.08333 2.00179 2.52232 1.22039 3.30372C0.438987 4.08512 0 5.14493 0 6.25L0 20.8333C0 21.9384 0.438987 22.9982 1.22039 23.7796C2.00179 24.561 3.0616 25 4.16667 25H20.8333C21.9384 25 22.9982 24.561 23.7796 23.7796C24.561 22.9982 25 21.9384 25 20.8333V6.25C25 5.14493 24.561 4.08512 23.7796 3.30372C22.9982 2.52232 21.9384 2.08333 20.8333 2.08333ZM22.9167 20.8333C22.9167 21.3859 22.6972 21.9158 22.3065 22.3065C21.9158 22.6972 21.3859 22.9167 20.8333 22.9167H4.16667C3.61413 22.9167 3.08423 22.6972 2.69353 22.3065C2.30283 21.9158 2.08333 21.3859 2.08333 20.8333V6.25C2.08333 5.69747 2.30283 5.16756 2.69353 4.77686C3.08423 4.38616 3.61413 4.16667 4.16667 4.16667H5.20833V5.20833C5.20833 5.4846 5.31808 5.74955 5.51343 5.9449C5.70878 6.14025 5.97373 6.25 6.25 6.25C6.52627 6.25 6.79122 6.14025 6.98657 5.9449C7.18192 5.74955 7.29167 5.4846 7.29167 5.20833V4.16667H17.7083V5.20833C17.7083 5.4846 17.8181 5.74955 18.0134 5.9449C18.2088 6.14025 18.4737 6.25 18.75 6.25C19.0263 6.25 19.2912 6.14025 19.4866 5.9449C19.6819 5.74955 19.7917 5.4846 19.7917 5.20833V4.16667H20.8333C21.3859 4.16667 21.9158 4.38616 22.3065 4.77686C22.6972 5.16756 22.9167 5.69747 22.9167 6.25V20.8333Z" fill="#ED9121"/>
<path d="M19.7917 7.29175H5.20841C4.93215 7.29175 4.6672 7.40149 4.47185 7.59685C4.27649 7.7922 4.16675 8.05715 4.16675 8.33341C4.16675 8.60968 4.27649 8.87463 4.47185 9.06998C4.6672 9.26533 4.93215 9.37508 5.20841 9.37508H19.7917C20.068 9.37508 20.333 9.26533 20.5283 9.06998C20.7237 8.87463 20.8334 8.60968 20.8334 8.33341C20.8334 8.05715 20.7237 7.7922 20.5283 7.59685C20.333 7.40149 20.068 7.29175 19.7917 7.29175Z" fill="#ED9121"/>
<path d="M7.29175 12.5H5.20841C4.93215 12.5 4.6672 12.6097 4.47185 12.8051C4.27649 13.0004 4.16675 13.2654 4.16675 13.5417C4.16675 13.8179 4.27649 14.0829 4.47185 14.2782C4.6672 14.4736 4.93215 14.5833 5.20841 14.5833H7.29175C7.56802 14.5833 7.83297 14.4736 8.02832 14.2782C8.22367 14.0829 8.33342 13.8179 8.33342 13.5417C8.33342 13.2654 8.22367 13.0004 8.02832 12.8051C7.83297 12.6097 7.56802 12.5 7.29175 12.5Z" fill="#ED9121"/>
<path d="M7.29175 17.7083H5.20841C4.93215 17.7083 4.6672 17.818 4.47185 18.0133C4.27649 18.2087 4.16675 18.4737 4.16675 18.7499C4.16675 19.0262 4.27649 19.2911 4.47185 19.4865C4.6672 19.6818 4.93215 19.7916 5.20841 19.7916H7.29175C7.56802 19.7916 7.83297 19.6818 8.02832 19.4865C8.22367 19.2911 8.33342 19.0262 8.33342 18.7499C8.33342 18.4737 8.22367 18.2087 8.02832 18.0133C7.83297 17.818 7.56802 17.7083 7.29175 17.7083Z" fill="#ED9121"/>
<path d="M13.5417 12.5H11.4584C11.1821 12.5 10.9172 12.6097 10.7218 12.8051C10.5265 13.0004 10.4167 13.2654 10.4167 13.5417C10.4167 13.8179 10.5265 14.0829 10.7218 14.2782C10.9172 14.4736 11.1821 14.5833 11.4584 14.5833H13.5417C13.818 14.5833 14.083 14.4736 14.2783 14.2782C14.4737 14.0829 14.5834 13.8179 14.5834 13.5417C14.5834 13.2654 14.4737 13.0004 14.2783 12.8051C14.083 12.6097 13.818 12.5 13.5417 12.5Z" fill="#ED9121"/>
<path d="M13.5417 17.7083H11.4584C11.1821 17.7083 10.9172 17.818 10.7218 18.0133C10.5265 18.2087 10.4167 18.4737 10.4167 18.7499C10.4167 19.0262 10.5265 19.2911 10.7218 19.4865C10.9172 19.6818 11.1821 19.7916 11.4584 19.7916H13.5417C13.818 19.7916 14.083 19.6818 14.2783 19.4865C14.4737 19.2911 14.5834 19.0262 14.5834 18.7499C14.5834 18.4737 14.4737 18.2087 14.2783 18.0133C14.083 17.818 13.818 17.7083 13.5417 17.7083Z" fill="#ED9121"/>
<path d="M19.7917 12.5H17.7084C17.4321 12.5 17.1672 12.6097 16.9718 12.8051C16.7765 13.0004 16.6667 13.2654 16.6667 13.5417C16.6667 13.8179 16.7765 14.0829 16.9718 14.2782C17.1672 14.4736 17.4321 14.5833 17.7084 14.5833H19.7917C20.068 14.5833 20.333 14.4736 20.5283 14.2782C20.7237 14.0829 20.8334 13.8179 20.8334 13.5417C20.8334 13.2654 20.7237 13.0004 20.5283 12.8051C20.333 12.6097 20.068 12.5 19.7917 12.5Z" fill="#ED9121"/>
<path d="M19.7917 17.7083H17.7084C17.4321 17.7083 17.1672 17.818 16.9718 18.0133C16.7765 18.2087 16.6667 18.4737 16.6667 18.7499C16.6667 19.0262 16.7765 19.2911 16.9718 19.4865C17.1672 19.6818 17.4321 19.7916 17.7084 19.7916H19.7917C20.068 19.7916 20.333 19.6818 20.5283 19.4865C20.7237 19.2911 20.8334 19.0262 20.8334 18.7499C20.8334 18.4737 20.7237 18.2087 20.5283 18.0133C20.333 17.818 20.068 17.7083 19.7917 17.7083Z" fill="#ED9121"/>
</g>
<defs>
<clipPath id="clip0_452_875">
<rect width="25" height="25" fill="white"/>
</clipPath>
</defs>
</svg>
