<svg width="24" height="25" viewBox="0 0 24 25" fill="none" xmlns="http://www.w3.org/2000/svg">
<path d="M11.9597 14.4594C9.34206 14.4594 7.72876 11.3515 7.72876 7.87181V3.88601C7.72876 3.0161 8.83593 1.06274 11.9597 1.06274" stroke="#ED9121" stroke-miterlimit="10"/>
<path d="M7.7605 8.73382C7.7605 8.73382 8.82812 6.7251 11.9598 6.7251" stroke="#ED9121" stroke-miterlimit="10"/>
<path d="M7.7605 6.73311C7.7605 6.73311 9.13654 5.68921 11.9598 5.68921" stroke="#ED9121" stroke-miterlimit="10"/>
<path d="M10.4811 1.22876C10.3308 1.85352 10.2043 2.55736 10.1094 3.32446C9.99868 4.25765 9.95913 5.11966 9.96704 5.87885" stroke="#ED9121" stroke-miterlimit="10"/>
<path d="M9.12085 12.8699C9.25529 13.1546 9.34228 14.0008 8.97059 14.9418C8.44864 16.2467 6.06824 16.6105 4.68428 16.824C2.15362 17.2274 1.45769 18.7774 1.17299 19.8371C0.91992 20.7861 0.904105 22.2808 0.92783 23.2772C0.943647 23.8466 1.40232 24.2974 1.97172 24.2974H11.952" stroke="#ED9121" stroke-miterlimit="10"/>
<path d="M8.51978 15.6458C8.85192 15.883 9.31061 16.1519 9.90373 16.3654C10.7341 16.6659 11.4221 16.7213 11.9599 16.7213" stroke="#ED9121" stroke-miterlimit="10"/>
<path d="M3.91724 24.2974V20.5014C3.91724 20.3274 4.05958 20.1851 4.23356 20.1851H11.96" stroke="#ED9121" stroke-miterlimit="10"/>
<path d="M5.2854 16.824V20.1929" stroke="#ED9121" stroke-miterlimit="10"/>
<path d="M7.29419 20.1928V16.2861" stroke="#ED9121" stroke-miterlimit="10"/>
<path d="M8.07688 10.6001C8.07688 10.6001 7.00135 10.3312 6.77201 8.94726C6.64548 8.16433 7.01717 7.61865 7.72101 7.61865" stroke="#ED9121" stroke-miterlimit="10"/>
<path d="M5.72823 21.4424H5.72033C5.41459 21.4424 5.16675 21.6902 5.16675 21.996V22.0039C5.16675 22.3096 5.41459 22.5575 5.72033 22.5575H5.72823C6.03397 22.5575 6.28181 22.3096 6.28181 22.0039V21.996C6.28181 21.6902 6.03397 21.4424 5.72823 21.4424Z" stroke="#ED9121" stroke-miterlimit="10"/>
<path d="M11.96 14.4594C14.5776 14.4594 16.1909 11.3515 16.1909 7.87181C16.1909 7.87181 16.1909 4.6373 16.1909 3.88601C16.1909 3.13472 15.0837 1.06274 11.96 1.06274" stroke="#ED9121" stroke-miterlimit="10"/>
<path d="M16.1593 8.73382C16.1593 8.73382 15.0917 6.7251 11.96 6.7251" stroke="#ED9121" stroke-miterlimit="10"/>
<path d="M16.1593 6.73311C16.1593 6.73311 14.7832 5.68921 11.96 5.68921" stroke="#ED9121" stroke-miterlimit="10"/>
<path d="M13.4309 1.22876C13.5812 1.85352 13.7077 2.55736 13.8026 3.32446C13.9133 4.25765 13.9529 5.11966 13.9449 5.87885" stroke="#ED9121" stroke-miterlimit="10"/>
<path d="M14.799 12.8699C14.6645 13.1546 14.5775 14.0008 14.9492 14.9418C15.4712 16.2467 17.8516 16.6105 19.2355 16.824C21.7662 17.2274 22.4621 18.7774 22.7468 19.8371C22.9999 20.7861 23.0157 22.2808 22.992 23.2772C22.9762 23.8466 22.5175 24.2974 21.9481 24.2974H11.9678" stroke="#ED9121" stroke-miterlimit="10"/>
<path d="M15.392 15.6458C15.0599 15.883 14.6012 16.1519 14.0081 16.3654C13.1777 16.6659 12.4897 16.7213 11.9519 16.7213" stroke="#ED9121" stroke-miterlimit="10"/>
<path d="M19.9947 24.2974V20.5014C19.9947 20.3274 19.8523 20.1851 19.6783 20.1851H11.9519" stroke="#ED9121" stroke-miterlimit="10"/>
<path d="M18.6345 16.824V20.1929" stroke="#ED9121" stroke-miterlimit="10"/>
<path d="M16.6257 20.1928V16.2861" stroke="#ED9121" stroke-miterlimit="10"/>
<path d="M15.843 10.6001C15.843 10.6001 16.9185 10.3312 17.1479 8.94726C17.2744 8.16433 16.9027 7.61865 16.1989 7.61865" stroke="#ED9121" stroke-miterlimit="10"/>
<path d="M18.1839 22.5496H18.1918C18.4975 22.5496 18.7454 22.3017 18.7454 21.996V21.9881C18.7454 21.6823 18.4975 21.4345 18.1918 21.4345H18.1839C17.8781 21.4345 17.6303 21.6823 17.6303 21.9881V21.996C17.6303 22.3017 17.8781 22.5496 18.1839 22.5496Z" stroke="#ED9121" stroke-miterlimit="10"/>
</svg>
