<svg width="24" height="19" viewBox="0 0 24 19" fill="none" xmlns="http://www.w3.org/2000/svg">
<path d="M23.7788 15.0421C23.8235 14.9354 23.8235 14.8146 23.7788 14.7079C23.7342 14.6007 23.6493 14.5158 23.5422 14.4712C23.4888 14.4489 23.4319 14.4375 23.375 14.4375H22.2813C22.2808 8.90531 17.9115 4.396 12.4353 4.16719C12.4353 4.16325 12.4375 4.15975 12.4375 4.15625V2.99119C13.0684 2.80175 13.5308 2.22425 13.5313 1.53125C13.5308 0.685125 12.8462 0.0004375 12 0C11.1539 0.0004375 10.4692 0.685125 10.4688 1.53125C10.4692 2.22425 10.9317 2.80175 11.5625 2.99119V4.15625C11.5625 4.16019 11.5647 4.16369 11.5647 4.16719C6.08852 4.396 1.71921 8.90531 1.71878 14.4375H0.625025C0.56815 14.4375 0.511275 14.4489 0.4579 14.4712C0.350713 14.5158 0.265838 14.6007 0.221213 14.7079C0.176588 14.8146 0.176588 14.9354 0.221213 15.0421C0.243525 15.0959 0.275463 15.1445 0.31615 15.1847L2.88778 17.7564C3.20278 18.0692 3.62234 18.3194 4.07034 18.5067C4.51965 18.6913 4.99346 18.8107 5.43753 18.8125H18.5625C19.0066 18.8107 19.4804 18.6913 19.9297 18.5067C20.3777 18.3194 20.7973 18.0692 21.1123 17.7564L23.6839 15.1847C23.7246 15.1445 23.7565 15.0959 23.7788 15.0421ZM11.3438 1.53125C11.3447 1.169 11.6378 0.875875 12 0.875C12.3623 0.875875 12.6554 1.169 12.6563 1.53125C12.6554 1.8935 12.3623 2.18663 12 2.1875C11.6378 2.18663 11.3447 1.8935 11.3438 1.53125ZM5.34915 7.78662C7.05234 6.08344 9.40171 5.03125 12 5.03125C14.5983 5.03125 16.9477 6.08344 18.6509 7.78662C20.3541 9.48981 21.4058 11.8392 21.4063 14.4375H2.59378C2.59378 11.8392 3.64596 9.48981 5.34915 7.78662ZM20.4937 17.1378C20.2985 17.3351 19.9586 17.5486 19.5946 17.6982C19.2319 17.85 18.8408 17.9393 18.5625 17.9375H5.43753C5.15928 17.9393 4.76815 17.85 4.40546 17.6982C4.04146 17.5486 3.70196 17.3351 3.5064 17.1378L1.68115 15.3125H22.3189L20.4937 17.1378Z" fill="#ED9121"/>
<path d="M8.79934 7.02266C7.3954 7.48991 6.45259 8.31328 5.86721 9.01678C5.28096 9.72116 5.04384 10.3074 5.03159 10.338C4.9419 10.5625 5.05127 10.8171 5.27571 10.9068C5.50015 10.9965 5.75477 10.8871 5.84446 10.6627V10.6618C5.85846 10.6277 6.07809 10.1145 6.58821 9.51947C7.09921 8.92403 7.89327 8.24722 9.07671 7.85216C9.30552 7.77603 9.42977 7.52841 9.35321 7.29872C9.27621 7.06991 9.02859 6.94609 8.79934 7.02266Z" fill="#ED9121"/>
</svg>
