<svg width="152" height="49" viewBox="0 0 152 49" fill="none" xmlns="http://www.w3.org/2000/svg">
<path d="M68.4427 40.5288H157.865" stroke="white" stroke-miterlimit="10"/>
<path d="M47.6682 40.5286H4.531C2.58764 40.5286 1.0001 38.9408 1.0001 36.9973V25.4453C1.0001 23.8849 1.3833 22.352 2.09496 20.9559L8.74619 7.98046C9.34835 6.80337 10.5801 6.06425 11.8939 6.06425H29.4936V4.53129C29.4936 2.58771 31.0812 1 33.0245 1H68.4157C70.359 1 71.9465 2.58771 71.9465 4.53129V36.9973C71.9465 38.9408 70.359 40.5286 68.4157 40.5286H47.6408H47.6682Z" stroke="white" stroke-miterlimit="10"/>
<path d="M8.17154 18.9032L11.6477 12.1143C12.1677 11.1289 13.1805 10.4993 14.2753 10.4993H21.8024C23.4447 10.4993 24.7585 11.8406 24.7585 13.4557V20.2445C24.7585 21.887 23.4173 23.201 21.8024 23.201H10.7718C8.55473 23.201 7.13142 20.8468 8.14416 18.8758L8.17154 18.9032Z" stroke="white" stroke-miterlimit="10"/>
<path d="M29.4937 6.06445V40.5288" stroke="white" stroke-miterlimit="10"/>
<path d="M8.82797 40.5289C8.82797 36.3953 12.1673 33.0557 16.3003 33.0557C20.4334 33.0557 23.7727 36.3953 23.7727 40.5289C23.7727 44.6624 20.4334 48.0021 16.3003 48.0021C12.1673 48.0021 8.82797 44.6624 8.82797 40.5289Z" fill="#212121" stroke="white" stroke-miterlimit="10"/>
<path d="M16.2731 43.3209C14.7312 43.3209 13.4812 42.0708 13.4812 40.5288C13.4812 38.9867 14.7312 37.7366 16.2731 37.7366C17.815 37.7366 19.0649 38.9867 19.0649 40.5288C19.0649 42.0708 17.815 43.3209 16.2731 43.3209Z" stroke="white" stroke-miterlimit="10"/>
<path d="M46.162 40.5289C46.162 36.3953 49.5013 33.0557 53.6343 33.0557C57.7674 33.0557 61.1067 36.3953 61.1067 40.5289C61.1067 44.6624 57.7674 48.0021 53.6343 48.0021C49.5013 48.0021 46.162 44.6624 46.162 40.5289Z" fill="#212121" stroke="white" stroke-miterlimit="10"/>
<path d="M53.607 43.3209C52.0651 43.3209 50.8152 42.0708 50.8152 40.5288C50.8152 38.9867 52.0651 37.7366 53.607 37.7366C55.1489 37.7366 56.3989 38.9867 56.3989 40.5288C56.3989 42.0708 55.1489 43.3209 53.607 43.3209Z" stroke="white" stroke-miterlimit="10"/>
<path d="M71.9739 33.0283H29.4936" stroke="white" stroke-miterlimit="10"/>
<path d="M4.4488 29.1409H1.02739V33.8493H4.4488C5.76262 33.8493 6.80273 32.7817 6.80273 31.4951C6.80273 30.1811 5.73525 29.1409 4.4488 29.1409Z" stroke="white" stroke-miterlimit="10"/>
</svg>
