<svg width="18" height="21" viewBox="0 0 18 21" fill="none" xmlns="http://www.w3.org/2000/svg">
<path d="M15.625 0.5H1.875C0.875 0.5 0 1.375 0 2.375V18.625C0 19.625 0.875 20.5 1.875 20.5H15.625C16.625 20.5 17.5 19.625 17.5 18.625V2.375C17.5 1.375 16.625 0.5 15.625 0.5ZM5 17.5C5 17.75 4.75 18 4.5 18H3C2.75 18 2.5 17.75 2.5 17.5V16C2.5 15.75 2.75 15.5 3 15.5H4.5C4.75 15.5 5 15.75 5 16V17.5ZM5 12.5C5 12.75 4.75 13 4.5 13H3C2.75 13 2.5 12.75 2.5 12.5V11C2.5 10.75 2.75 10.5 3 10.5H4.5C4.75 10.5 5 10.75 5 11V12.5ZM10 17.5C10 17.75 9.75 18 9.5 18H8C7.75 18 7.5 17.75 7.5 17.5V16C7.5 15.75 7.75 15.5 8 15.5H9.5C9.75 15.5 10 15.75 10 16V17.5ZM10 12.5C10 12.75 9.75 13 9.5 13H8C7.75 13 7.5 12.75 7.5 12.5V11C7.5 10.75 7.75 10.5 8 10.5H9.5C9.75 10.5 10 10.75 10 11V12.5ZM15 17.5C15 17.75 14.75 18 14.5 18H13C12.75 18 12.5 17.75 12.5 17.5V11C12.5 10.75 12.75 10.5 13 10.5H14.5C14.75 10.5 15 10.75 15 11V17.5ZM15 7.5C15 7.75 14.75 8 14.5 8H3C2.75 8 2.5 7.75 2.5 7.5V3.5C2.5 3.25 2.75 3 3 3H14.5C14.75 3 15 3.25 15 3.5V7.5Z" fill="white"/>
</svg>
