<svg width="28" height="28" viewBox="0 0 28 28" fill="none" xmlns="http://www.w3.org/2000/svg">
<path d="M14 27.125C11.4041 27.125 8.86654 26.3552 6.70815 24.913C4.54975 23.4709 2.86749 21.421 1.87409 19.0227C0.880687 16.6244 0.620768 13.9854 1.1272 11.4394C1.63363 8.89345 2.88367 6.55479 4.71923 4.71923C6.55479 2.88367 8.89345 1.63363 11.4394 1.1272C13.9854 0.620768 16.6244 0.880687 19.0227 1.87409C21.421 2.86749 23.4709 4.54975 24.913 6.70815C26.3552 8.86654 27.125 11.4041 27.125 14C27.125 17.481 25.7422 20.8194 23.2808 23.2808C20.8194 25.7422 17.481 27.125 14 27.125ZM14 2.62501C11.7502 2.62501 9.551 3.29214 7.68039 4.54204C5.80979 5.79194 4.35182 7.56847 3.49088 9.64698C2.62993 11.7255 2.40467 14.0126 2.84357 16.2192C3.28248 18.4257 4.36584 20.4525 5.95667 22.0433C7.54749 23.6342 9.57432 24.7175 11.7809 25.1564C13.9874 25.5953 16.2745 25.3701 18.353 24.5091C20.4315 23.6482 22.2081 22.1902 23.458 20.3196C24.7079 18.449 25.375 16.2498 25.375 14C25.375 10.9832 24.1766 8.08989 22.0433 5.95667C19.9101 3.82344 17.0168 2.62501 14 2.62501Z" fill="#ED9121"/>
<path d="M17.71 18.9525L13.3788 14.6212C13.2977 14.5395 13.2335 14.4425 13.19 14.3359C13.1464 14.2293 13.1243 14.1152 13.125 14V7H14.875V13.6412L18.9525 17.71L17.71 18.9525Z" fill="#ED9121"/>
</svg>
