<svg width="297" height="55" viewBox="0 0 297 55" fill="none" xmlns="http://www.w3.org/2000/svg">
<path d="M77.5041 45.8389H178.939" stroke="black" stroke-miterlimit="10"/>
<path d="M178.939 45.8392C189.371 45.8392 197.848 37.362 197.848 26.9286" stroke="black" stroke-miterlimit="10"/>
<path d="M197.817 26.9284C197.817 16.495 206.293 8.01782 216.725 8.01782H360.977" stroke="black" stroke-miterlimit="10"/>
<path d="M53.9386 45.8389H5.00618C2.80174 45.8389 1.00093 44.0379 1.00093 41.8332V28.7293C1.00093 26.9594 1.43561 25.2205 2.24287 23.6368L9.78764 8.91824C10.4707 7.58301 11.8679 6.74459 13.3582 6.74459H33.3224V5.0057C33.3224 2.80101 35.1232 1 37.3276 1H77.4733C79.6777 1 81.4785 2.80101 81.4785 5.0057V41.8332C81.4785 44.0379 79.6777 45.8389 77.4733 45.8389H53.9075H53.9386Z" stroke="black" stroke-miterlimit="10"/>
<path d="M9.13582 21.3082L13.079 13.6073C13.6689 12.4895 14.8177 11.7753 16.0596 11.7753H24.5979C26.4608 11.7753 27.9512 13.2968 27.9512 15.1289V22.8297C27.9512 24.6928 26.4298 26.1833 24.5979 26.1833H12.0854C9.57048 26.1833 7.95597 23.5129 9.10476 21.2771L9.13582 21.3082Z" stroke="black" stroke-miterlimit="10"/>
<path d="M33.3223 6.74487V45.8392" stroke="black" stroke-miterlimit="10"/>
<path d="M9.87958 45.8395C9.87958 41.1506 13.6675 37.3623 18.3558 37.3623C23.0441 37.3623 26.832 41.1506 26.832 45.8395C26.832 50.5283 23.0441 54.3166 18.3558 54.3166C13.6675 54.3166 9.87958 50.5283 9.87958 45.8395Z" fill="#F4F4F4" stroke="black" stroke-miterlimit="10"/>
<path d="M18.3253 49.0063C16.5762 49.0063 15.1583 47.5883 15.1583 45.8391C15.1583 44.0898 16.5762 42.6718 18.3253 42.6718C20.0743 42.6718 21.4922 44.0898 21.4922 45.8391C21.4922 47.5883 20.0743 49.0063 18.3253 49.0063Z" stroke="black" stroke-miterlimit="10"/>
<path d="M52.2311 45.8395C52.2311 41.1506 56.0191 37.3623 60.7074 37.3623C65.3957 37.3623 69.1836 41.1506 69.1836 45.8395C69.1836 50.5283 65.3957 54.3166 60.7074 54.3166C56.0191 54.3166 52.2311 50.5283 52.2311 45.8395Z" fill="#F4F4F4" stroke="black" stroke-miterlimit="10"/>
<path d="M60.6748 49.0063C58.9258 49.0063 57.5079 47.5883 57.5079 45.8391C57.5079 44.0898 58.9258 42.6718 60.6748 42.6718C62.4239 42.6718 63.8418 44.0898 63.8418 45.8391C63.8418 47.5883 62.4239 49.0063 60.6748 49.0063Z" stroke="black" stroke-miterlimit="10"/>
<path d="M81.5098 37.3309H33.3226" stroke="black" stroke-miterlimit="10"/>
<path d="M4.91382 32.9219H1.03276V38.2628H4.91382C6.40414 38.2628 7.58398 37.0518 7.58398 35.5923C7.58398 34.1018 6.37309 32.9219 4.91382 32.9219Z" stroke="black" stroke-miterlimit="10"/>
</svg>
