<svg width="21" height="21" viewBox="0 0 21 21" fill="none" xmlns="http://www.w3.org/2000/svg">
<path d="M3.96875 15.6C4.44117 15.6 4.89424 15.4209 5.22829 15.1021C5.56234 14.7833 5.75 14.3509 5.75 13.9V9.36667C5.75009 8.92163 5.56733 8.4943 5.24094 8.17645C4.91456 7.8586 4.47059 7.67557 4.00438 7.66667C4.15038 6.42037 4.7724 5.2691 5.75159 4.43283C6.73079 3.59656 7.9985 3.13393 9.3125 3.13334H11.6875C13.0015 3.13393 14.2692 3.59656 15.2484 4.43283C16.2276 5.2691 16.8496 6.42037 16.9956 7.66667C16.5294 7.67557 16.0854 7.8586 15.7591 8.17645C15.4327 8.4943 15.2499 8.92163 15.25 9.36667V13.9C15.2492 14.3337 15.4221 14.7514 15.7334 15.0674C16.0446 15.3834 16.4707 15.574 16.9244 15.6C16.8019 15.9307 16.5752 16.2171 16.2754 16.42C15.9757 16.6229 15.6175 16.7323 15.25 16.7333H12.7681C12.6281 16.3552 12.3525 16.0366 11.99 15.8337C11.6276 15.6308 11.2017 15.5567 10.7875 15.6245C10.3734 15.6923 9.99771 15.8977 9.72688 16.2043C9.45604 16.5109 9.3075 16.899 9.3075 17.3C9.3075 17.701 9.45604 18.0891 9.72688 18.3957C9.99771 18.7023 10.3734 18.9077 10.7875 18.9755C11.2017 19.0433 11.6276 18.9692 11.99 18.7663C12.3525 18.5634 12.6281 18.2448 12.7681 17.8667H15.25C15.9723 17.8635 16.6687 17.6092 17.2086 17.1513C17.7485 16.6933 18.095 16.0632 18.1831 15.379C18.7218 15.1626 19.1815 14.7993 19.5047 14.3346C19.8279 13.8698 20.0002 13.3244 20 12.7667V10.5C20.0009 9.94798 19.8327 9.40775 19.5163 8.94567C19.1998 8.4836 18.7489 8.11981 18.2187 7.899C18.129 6.30445 17.4015 4.80357 16.1862 3.70596C14.971 2.60834 13.3607 1.99771 11.6875 2.00001H9.3125C7.63933 1.99771 6.02904 2.60834 4.81378 3.70596C3.59853 4.80357 2.87099 6.30445 2.78125 7.899C2.25114 8.11981 1.80015 8.4836 1.48371 8.94567C1.16727 9.40775 0.999145 9.94798 1 10.5V12.7667C1 13.5181 1.31278 14.2388 1.86953 14.7701C2.42628 15.3015 3.18139 15.6 3.96875 15.6ZM11.0937 17.8667C10.9763 17.8667 10.8615 17.8334 10.7639 17.7712C10.6662 17.7089 10.5901 17.6204 10.5452 17.5169C10.5003 17.4133 10.4885 17.2994 10.5114 17.1894C10.5343 17.0795 10.5909 16.9786 10.6739 16.8993C10.7569 16.8201 10.8627 16.7661 10.9779 16.7442C11.0931 16.7224 11.2125 16.7336 11.321 16.7765C11.4295 16.8194 11.5222 16.892 11.5874 16.9852C11.6527 17.0784 11.6875 17.1879 11.6875 17.3C11.6875 17.4503 11.6249 17.5944 11.5136 17.7007C11.4022 17.807 11.2512 17.8667 11.0937 17.8667ZM18.8125 10.5V12.7667C18.8125 13.2175 18.6248 13.6499 18.2908 13.9687C17.9567 14.2876 17.5037 14.4667 17.0312 14.4667C16.8738 14.4667 16.7228 14.407 16.6114 14.3007C16.5001 14.1944 16.4375 14.0503 16.4375 13.9V9.36667C16.4375 9.21638 16.5001 9.07225 16.6114 8.96598C16.7228 8.8597 16.8738 8.8 17.0312 8.8C17.5037 8.8 17.9567 8.97911 18.2908 9.29792C18.6248 9.61673 18.8125 10.0491 18.8125 10.5ZM2.1875 10.5C2.1875 10.0491 2.37517 9.61673 2.70922 9.29792C3.04327 8.97911 3.49634 8.8 3.96875 8.8C4.12622 8.8 4.27725 8.8597 4.3886 8.96598C4.49995 9.07225 4.5625 9.21638 4.5625 9.36667V13.9C4.5625 14.0503 4.49995 14.1944 4.3886 14.3007C4.27725 14.407 4.12622 14.4667 3.96875 14.4667C3.49634 14.4667 3.04327 14.2876 2.70922 13.9687C2.37517 13.6499 2.1875 13.2175 2.1875 12.7667V10.5Z" fill="#ED9121"/>
</svg>
