<svg width="369" height="108" viewBox="0 0 369 108" fill="none" xmlns="http://www.w3.org/2000/svg">
<path d="M124.995 53.4039C114.718 53.4039 108.385 41.2005 108.385 27.5377V11.8875C108.385 8.47182 112.731 0.802002 124.995 0.802002" stroke="#ED9121" stroke-miterlimit="10"/>
<path d="M108.509 30.9224C108.509 30.9224 112.7 23.0352 124.996 23.0352" stroke="#ED9121" stroke-miterlimit="10"/>
<path d="M108.509 23.0663C108.509 23.0663 113.911 18.9674 124.996 18.9674" stroke="#ED9121" stroke-miterlimit="10"/>
<path d="M119.189 1.4541C118.6 3.9072 118.103 6.67082 117.73 9.68286C117.296 13.347 117.14 16.7316 117.171 19.7126" stroke="#ED9121" stroke-miterlimit="10"/>
<path d="M113.849 47.1625C114.377 48.2803 114.718 51.6029 113.259 55.2981C111.21 60.4216 101.864 61.85 96.4309 62.6884C86.4954 64.2721 83.7631 70.3582 82.6454 74.5192C81.6518 78.2454 81.5898 84.1142 81.6829 88.0268C81.745 90.2625 83.5458 92.0324 85.7813 92.0324H124.964" stroke="#ED9121" stroke-miterlimit="10"/>
<path d="M111.489 58.0616C112.793 58.9932 114.594 60.049 116.923 60.8874C120.183 62.0674 122.884 62.2847 124.995 62.2847" stroke="#ED9121" stroke-miterlimit="10"/>
<path d="M93.4192 92.0325V77.1276C93.4192 76.4445 93.978 75.8855 94.6611 75.8855H124.995" stroke="#ED9121" stroke-miterlimit="10"/>
<path d="M98.7905 62.6885V75.9166" stroke="#ED9121" stroke-miterlimit="10"/>
<path d="M106.677 75.9165V60.5769" stroke="#ED9121" stroke-miterlimit="10"/>
<path d="M109.751 38.2506C109.751 38.2506 105.528 37.1949 104.628 31.7608C104.131 28.6867 105.59 26.5441 108.354 26.5441" stroke="#ED9121" stroke-miterlimit="10"/>
<path d="M100.529 80.8228H100.498C99.298 80.8228 98.325 81.796 98.325 82.9964V83.0275C98.325 84.2279 99.298 85.2011 100.498 85.2011H100.529C101.73 85.2011 102.703 84.2279 102.703 83.0275V82.9964C102.703 81.796 101.73 80.8228 100.529 80.8228Z" stroke="#ED9121" stroke-miterlimit="10"/>
<path d="M124.995 53.4039C135.272 53.4039 141.606 41.2005 141.606 27.5377C141.606 27.5377 141.606 14.8375 141.606 11.8875C141.606 8.9376 137.26 0.802002 124.995 0.802002" stroke="#ED9121" stroke-miterlimit="10"/>
<path d="M141.482 30.9224C141.482 30.9224 137.291 23.0352 124.995 23.0352" stroke="#ED9121" stroke-miterlimit="10"/>
<path d="M141.482 23.0663C141.482 23.0663 136.08 18.9674 124.995 18.9674" stroke="#ED9121" stroke-miterlimit="10"/>
<path d="M130.771 1.4541C131.36 3.9072 131.857 6.67082 132.23 9.68286C132.664 13.347 132.82 16.7316 132.789 19.7126" stroke="#ED9121" stroke-miterlimit="10"/>
<path d="M136.142 47.1625C135.614 48.2803 135.273 51.6029 136.732 55.2981C138.781 60.4216 148.127 61.85 153.56 62.6884C163.496 64.2721 166.228 70.3582 167.346 74.5192C168.339 78.2454 168.401 84.1142 168.308 88.0268C168.246 90.2625 166.445 92.0324 164.21 92.0324H125.027" stroke="#ED9121" stroke-miterlimit="10"/>
<path d="M138.47 58.0616C137.166 58.9932 135.366 60.049 133.037 60.8874C129.777 62.0674 127.076 62.2847 124.964 62.2847" stroke="#ED9121" stroke-miterlimit="10"/>
<path d="M156.541 92.0325V77.1276C156.541 76.4445 155.982 75.8855 155.299 75.8855H124.964" stroke="#ED9121" stroke-miterlimit="10"/>
<path d="M151.2 62.6885V75.9166" stroke="#ED9121" stroke-miterlimit="10"/>
<path d="M143.314 75.9165V60.5769" stroke="#ED9121" stroke-miterlimit="10"/>
<path d="M140.24 38.2506C140.24 38.2506 144.463 37.1949 145.363 31.7608C145.86 28.6867 144.401 26.5441 141.637 26.5441" stroke="#ED9121" stroke-miterlimit="10"/>
<path d="M149.431 85.17H149.462C150.662 85.17 151.635 84.1968 151.635 82.9964V82.9653C151.635 81.7649 150.662 80.7917 149.462 80.7917H149.431C148.23 80.7917 147.257 81.7649 147.257 82.9653V82.9964C147.257 84.1968 148.23 85.17 149.431 85.17Z" stroke="#ED9121" stroke-miterlimit="10"/>
<path d="M230.871 66.1973C230.871 51.9444 242.421 40.3621 256.703 40.3621H368.788" stroke="#ED9121" stroke-miterlimit="10"/>
<path d="M230.871 66.1973C230.871 80.4501 219.321 92.0324 205.038 92.0324H30.7324" stroke="#ED9121" stroke-miterlimit="10"/>
<path d="M15.705 107.093C24.0216 107.093 30.7635 100.35 30.7635 92.0324C30.7635 83.7149 24.0216 76.9723 15.705 76.9723C7.38842 76.9723 0.646484 83.7149 0.646484 92.0324C0.646484 100.35 7.38842 107.093 15.705 107.093Z" stroke="#ED9121" stroke-miterlimit="10"/>
</svg>
