<svg width="210" height="55" viewBox="0 0 210 55" fill="none" xmlns="http://www.w3.org/2000/svg">
<path d="M132.473 45.8389H31.0376" stroke="black" stroke-miterlimit="10"/>
<path d="M31.0372 45.8393C20.6049 45.8393 12.1287 37.3621 12.1287 26.9287" stroke="black" stroke-miterlimit="10"/>
<path d="M12.1596 26.9282C12.1596 16.4947 3.68341 8.01758 -6.74887 8.01758H-151" stroke="black" stroke-miterlimit="10"/>
<path d="M156.038 45.8389H204.971C207.175 45.8389 208.976 44.0379 208.976 41.8332V28.7293C208.976 26.9594 208.541 25.2205 207.734 23.6368L200.189 8.91824C199.506 7.58301 198.109 6.74459 196.619 6.74459H176.654V5.0057C176.654 2.80101 174.854 1 172.649 1H132.504C130.299 1 128.498 2.80101 128.498 5.0057V41.8332C128.498 44.0379 130.299 45.8389 132.504 45.8389H156.069H156.038Z" stroke="black" stroke-miterlimit="10"/>
<path d="M200.841 21.3083L196.898 13.6074C196.308 12.4896 195.159 11.7754 193.917 11.7754H185.379C183.516 11.7754 182.026 13.2969 182.026 15.129V22.8299C182.026 24.693 183.547 26.1835 185.379 26.1835H197.892C200.407 26.1835 202.021 23.513 200.872 21.2773L200.841 21.3083Z" stroke="black" stroke-miterlimit="10"/>
<path d="M176.655 6.74512V45.8395" stroke="black" stroke-miterlimit="10"/>
<path d="M200.096 45.8395C200.096 41.1506 196.309 37.3623 191.62 37.3623C186.932 37.3623 183.144 41.1506 183.144 45.8395C183.144 50.5283 186.932 54.3166 191.62 54.3166C196.309 54.3166 200.096 50.5283 200.096 45.8395Z" fill="white" stroke="black" stroke-miterlimit="10"/>
<path d="M191.651 49.0065C193.4 49.0065 194.818 47.5884 194.818 45.8392C194.818 44.0899 193.4 42.6719 191.651 42.6719C189.902 42.6719 188.484 44.0899 188.484 45.8392C188.484 47.5884 189.902 49.0065 191.651 49.0065Z" stroke="black" stroke-miterlimit="10"/>
<path d="M157.747 45.8395C157.747 41.1506 153.959 37.3623 149.27 37.3623C144.582 37.3623 140.794 41.1506 140.794 45.8395C140.794 50.5283 144.582 54.3166 149.27 54.3166C153.959 54.3166 157.747 50.5283 157.747 45.8395Z" fill="white" stroke="black" stroke-miterlimit="10"/>
<path d="M149.301 49.0065C151.051 49.0065 152.468 47.5884 152.468 45.8392C152.468 44.0899 151.051 42.6719 149.301 42.6719C147.552 42.6719 146.135 44.0899 146.135 45.8392C146.135 47.5884 147.552 49.0065 149.301 49.0065Z" stroke="black" stroke-miterlimit="10"/>
<path d="M128.467 37.3311H176.654" stroke="black" stroke-miterlimit="10"/>
<path d="M205.064 32.9219H208.945V38.2628H205.064C203.574 38.2628 202.394 37.0518 202.394 35.5923C202.394 34.1018 203.605 32.9219 205.064 32.9219Z" stroke="black" stroke-miterlimit="10"/>
</svg>
