<svg width="361" height="55" viewBox="0 0 361 55" fill="none" xmlns="http://www.w3.org/2000/svg">
<path d="M283.907 45.8391H182.472" stroke="black" stroke-miterlimit="10"/>
<path d="M182.472 45.8392C172.039 45.8392 163.563 37.362 163.563 26.9286" stroke="black" stroke-miterlimit="10"/>
<path d="M163.594 26.9284C163.594 16.495 155.118 8.01782 144.685 8.01782H0.434326" stroke="black" stroke-miterlimit="10"/>
<path d="M307.473 45.8389H356.405C358.609 45.8389 360.41 44.0379 360.41 41.8332V28.7293C360.41 26.9594 359.976 25.2205 359.168 23.6368L351.623 8.91824C350.94 7.58301 349.543 6.74459 348.053 6.74459H328.089V5.0057C328.089 2.80101 326.288 1 324.084 1H283.938C281.733 1 279.933 2.80101 279.933 5.0057V41.8332C279.933 44.0379 281.733 45.8389 283.938 45.8389H307.504H307.473Z" stroke="black" stroke-miterlimit="10"/>
<path d="M352.276 21.3082L348.332 13.6073C347.742 12.4895 346.594 11.7753 345.352 11.7753H336.813C334.951 11.7753 333.46 13.2968 333.46 15.1289V22.8297C333.46 24.6928 334.982 26.1833 336.813 26.1833H349.326C351.841 26.1833 353.455 23.5129 352.307 21.2771L352.276 21.3082Z" stroke="black" stroke-miterlimit="10"/>
<path d="M328.089 6.74487V45.8392" stroke="black" stroke-miterlimit="10"/>
<path d="M351.531 45.8392C351.531 41.1504 347.743 37.3621 343.055 37.3621C338.366 37.3621 334.578 41.1504 334.578 45.8392C334.578 50.5281 338.366 54.3164 343.055 54.3164C347.743 54.3164 351.531 50.5281 351.531 45.8392Z" fill="white" stroke="black" stroke-miterlimit="10"/>
<path d="M343.085 49.0063C344.834 49.0063 346.252 47.5883 346.252 45.8391C346.252 44.0898 344.834 42.6718 343.085 42.6718C341.336 42.6718 339.918 44.0898 339.918 45.8391C339.918 47.5883 341.336 49.0063 343.085 49.0063Z" stroke="black" stroke-miterlimit="10"/>
<path d="M309.181 45.8392C309.181 41.1504 305.393 37.3621 300.705 37.3621C296.016 37.3621 292.229 41.1504 292.229 45.8392C292.229 50.5281 296.016 54.3164 300.705 54.3164C305.393 54.3164 309.181 50.5281 309.181 45.8392Z" fill="white" stroke="black" stroke-miterlimit="10"/>
<path d="M300.736 49.0063C302.485 49.0063 303.903 47.5883 303.903 45.8391C303.903 44.0898 302.485 42.6718 300.736 42.6718C298.987 42.6718 297.569 44.0898 297.569 45.8391C297.569 47.5883 298.987 49.0063 300.736 49.0063Z" stroke="black" stroke-miterlimit="10"/>
<path d="M279.902 37.3309H328.089" stroke="black" stroke-miterlimit="10"/>
<path d="M356.498 32.9214H360.379V38.2623H356.498C355.008 38.2623 353.828 37.0513 353.828 35.5919C353.828 34.1014 355.039 32.9214 356.498 32.9214Z" stroke="black" stroke-miterlimit="10"/>
</svg>
