<svg width="112" height="66" viewBox="0 0 112 66" fill="none" xmlns="http://www.w3.org/2000/svg">
<path d="M75.9382 32.7002C69.7448 32.7002 65.9277 25.3459 65.9277 17.1121V7.68063C65.9277 5.62217 68.5473 1 75.9382 1" stroke="black" stroke-miterlimit="10"/>
<path d="M66.0029 19.1519C66.0029 19.1519 68.5289 14.3987 75.9386 14.3987" stroke="black" stroke-miterlimit="10"/>
<path d="M66.0029 14.4174C66.0029 14.4174 69.2587 11.9472 75.9386 11.9472" stroke="black" stroke-miterlimit="10"/>
<path d="M72.4393 1.39294C72.0837 2.87129 71.7844 4.53677 71.5598 6.35196C71.2979 8.56012 71.2043 10.5999 71.223 12.3963" stroke="black" stroke-miterlimit="10"/>
<path d="M69.2209 28.9388C69.539 29.6125 69.7448 31.6148 68.8654 33.8417C67.6304 36.9294 61.9984 37.7902 58.7239 38.2955C52.7363 39.2498 51.0897 42.9176 50.4161 45.4252C49.8174 47.6708 49.78 51.2076 49.8361 53.5655C49.8735 54.9128 50.9588 55.9795 52.306 55.9795H75.9195" stroke="black" stroke-miterlimit="10"/>
<path d="M67.7988 35.5072C68.5847 36.0686 69.6699 36.7049 71.0733 37.2101C73.038 37.9212 74.6658 38.0522 75.9382 38.0522" stroke="black" stroke-miterlimit="10"/>
<path d="M56.9092 55.9795V46.9971C56.9092 46.5855 57.246 46.2486 57.6576 46.2486H75.9384" stroke="black" stroke-miterlimit="10"/>
<path d="M60.1455 38.2955V46.2673" stroke="black" stroke-miterlimit="10"/>
<path d="M64.8984 46.2673V37.023" stroke="black" stroke-miterlimit="10"/>
<path d="M66.7507 23.5681C66.7507 23.5681 64.2059 22.9319 63.6633 19.6571C63.3639 17.8045 64.2434 16.5132 65.9087 16.5132" stroke="black" stroke-miterlimit="10"/>
<path d="M61.1937 49.224H61.175C60.4516 49.224 59.8652 49.8105 59.8652 50.5339V50.5527C59.8652 51.2761 60.4516 51.8626 61.175 51.8626H61.1937C61.9171 51.8626 62.5035 51.2761 62.5035 50.5527V50.5339C62.5035 49.8105 61.9171 49.224 61.1937 49.224Z" stroke="black" stroke-miterlimit="10"/>
<path d="M75.9385 32.7002C82.1319 32.7002 85.9489 25.3459 85.9489 17.1121C85.9489 17.1121 85.9489 9.45839 85.9489 7.68063C85.9489 5.90287 83.3294 1 75.9385 1" stroke="black" stroke-miterlimit="10"/>
<path d="M85.8741 19.1519C85.8741 19.1519 83.3481 14.3987 75.9385 14.3987" stroke="black" stroke-miterlimit="10"/>
<path d="M85.8741 14.4174C85.8741 14.4174 82.6184 11.9472 75.9385 11.9472" stroke="black" stroke-miterlimit="10"/>
<path d="M79.4189 1.39294C79.7745 2.87129 80.0738 4.53677 80.2984 6.35196C80.5603 8.56012 80.6539 10.5999 80.6352 12.3963" stroke="black" stroke-miterlimit="10"/>
<path d="M82.6556 28.9388C82.3375 29.6125 82.1317 31.6148 83.0112 33.8417C84.2461 36.9294 89.8782 37.7902 93.1526 38.2955C99.1402 39.2498 100.787 42.9176 101.46 45.4252C102.059 47.6708 102.097 51.2076 102.04 53.5655C102.003 54.9128 100.918 55.9795 99.5706 55.9795H75.957" stroke="black" stroke-miterlimit="10"/>
<path d="M84.0583 35.5072C83.2724 36.0686 82.1872 36.7049 80.7838 37.2101C78.8192 37.9212 77.1913 38.0522 75.9189 38.0522" stroke="black" stroke-miterlimit="10"/>
<path d="M94.9482 55.9795V46.9971C94.9482 46.5855 94.6114 46.2486 94.1997 46.2486H75.9189" stroke="black" stroke-miterlimit="10"/>
<path d="M91.7305 38.2955V46.2673" stroke="black" stroke-miterlimit="10"/>
<path d="M86.9775 46.2673V37.023" stroke="black" stroke-miterlimit="10"/>
<path d="M85.125 23.5681C85.125 23.5681 87.6697 22.9319 88.2123 19.6571C88.5117 17.8045 87.6323 16.5132 85.967 16.5132" stroke="black" stroke-miterlimit="10"/>
<path d="M90.6637 51.8439H90.6824C91.4058 51.8439 91.9922 51.2574 91.9922 50.5339V50.5152C91.9922 49.7918 91.4058 49.2053 90.6824 49.2053H90.6637C89.9403 49.2053 89.3539 49.7918 89.3539 50.5152V50.5339C89.3539 51.2574 89.9403 51.8439 90.6637 51.8439Z" stroke="black" stroke-miterlimit="10"/>
<path d="M139.743 40.4101C139.743 48.9995 132.783 55.9795 124.175 55.9795H19.1309" stroke="black" stroke-miterlimit="10"/>
<path d="M10.0749 65.0554C15.0869 65.0554 19.1498 60.992 19.1498 55.9795C19.1498 50.967 15.0869 46.9036 10.0749 46.9036C5.06299 46.9036 1 50.967 1 55.9795C1 60.992 5.06299 65.0554 10.0749 65.0554Z" stroke="black" stroke-miterlimit="10"/>
</svg>
