<svg width="18" height="24" viewBox="0 0 18 24" fill="none" xmlns="http://www.w3.org/2000/svg">
<path d="M17.0992 10.635C17.1326 10.505 17.2992 9.23751 17.2992 8.84751C17.1992 4.39501 13.3992 0.852506 8.83255 0.917506C4.39922 1.01501 0.799219 4.52501 0.699219 8.84751C0.699219 9.23751 0.865885 10.505 0.899219 10.6025C2.06589 16.4525 8.39922 21.7825 8.66588 22.01L8.93255 22.2375H5.66588V23.2125H12.3659V22.2375H9.03255L9.29922 22.01C9.59922 21.815 15.8992 16.4525 17.0992 10.635ZM1.89922 10.44C1.86589 10.31 1.69922 9.14001 1.69922 8.88001C1.79922 4.91501 5.13255 1.82751 9.16588 1.89251C13.0659 1.99001 16.2326 5.04501 16.2992 8.84751C16.2992 9.14001 16.1326 10.2775 16.0992 10.44C15.1326 15.2175 10.2992 19.8325 8.99922 21.0025C7.69922 19.8325 2.86589 15.2175 1.89922 10.44Z" fill="black"/>
<path d="M13.3996 8.1975C13.3996 5.825 11.4329 3.9075 8.99961 3.9075C6.56628 3.9075 4.59961 5.825 4.59961 8.1975C4.59961 10.57 6.56628 12.4875 8.99961 12.4875C11.4329 12.4875 13.3996 10.57 13.3996 8.1975ZM5.59961 8.1975C5.59961 6.3775 7.13294 4.8825 8.99961 4.8825C10.8663 4.8825 12.3996 6.3775 12.3996 8.1975C12.3996 10.0175 10.8663 11.5125 8.99961 11.5125C7.13294 11.5125 5.59961 10.0175 5.59961 8.1975Z" fill="black"/>
</svg>
