<svg width="64" height="35" viewBox="0 0 64 35" fill="none" xmlns="http://www.w3.org/2000/svg">
<path d="M63.5448 17.5029C63.5448 27.1507 55.7597 35 46.1915 35C42.0423 35 38.0817 33.5231 34.9531 30.8239C36.081 29.3178 37.0147 27.6537 37.7337 25.8786C37.7801 25.7587 37.8323 25.6388 37.8787 25.513C40.0359 27.7883 43.0369 29.1043 46.1915 29.1043C50.9089 29.1043 55.2175 26.1242 56.9166 21.6878L57.3892 20.442H46.1886C44.5736 20.442 43.263 19.1202 43.263 17.5C43.263 15.8798 44.5736 14.5463 46.1886 14.5463H57.3834L56.905 13.3005C55.2001 8.8699 50.8973 5.8928 46.1886 5.8928C42.4657 5.8928 38.9544 7.72644 36.8001 10.803C35.417 12.7711 34.6864 15.0844 34.6864 17.5C34.6864 19.088 34.4776 20.6467 34.063 22.1411C33.4686 24.3491 32.4567 26.3874 31.0475 28.2094C30.4792 28.9551 29.8617 29.6424 29.2035 30.2594C25.9793 33.3126 21.7663 34.9971 17.3388 34.9971C7.77638 35 0 27.1478 0 17.5029C0 7.85804 7.77638 0 17.3388 0C21.488 0 25.4516 1.47686 28.5859 4.17614C27.458 5.68808 26.5273 7.34626 25.8111 9.12141C25.7589 9.24131 25.7096 9.36706 25.6603 9.49281C23.5002 7.21758 20.4935 5.89572 17.3388 5.89572C10.9948 5.89572 5.83664 11.1013 5.83664 17.5029C5.83664 23.9046 10.9948 29.1043 17.3388 29.1043C21.0589 29.1043 24.573 27.2706 26.7418 24.1941C28.122 22.2259 28.8497 19.9127 28.8497 17.5029C28.8497 15.9266 29.0585 14.3679 29.4644 12.8676C30.0675 10.6538 31.0823 8.61255 32.4915 6.78184C33.0308 6.06242 33.6484 5.37809 34.3355 4.73763C37.554 1.68449 41.764 0 46.1915 0C55.7597 0 63.5448 7.85219 63.5448 17.5029Z" fill="#ED9121"/>
</svg>
