<svg width="76" height="33" viewBox="0 0 76 33" fill="none" xmlns="http://www.w3.org/2000/svg">
<path d="M3.34208 10.768C2.50123 10.3031 1.84595 9.6626 1.36754 8.84375C0.892024 8.02782 0.651367 7.10954 0.651367 6.08598C0.651367 5.06242 0.889124 4.14413 1.36754 3.32821C1.84305 2.51228 2.50413 1.87183 3.34788 1.40391C4.19162 0.938921 5.13685 0.704964 6.17776 0.704964C6.99252 0.704964 7.73768 0.842413 8.41325 1.11731C9.08883 1.39221 9.66582 1.80164 10.1413 2.34266L9.17291 3.29019C8.38716 2.45964 7.41004 2.04437 6.23865 2.04437C5.46449 2.04437 4.76282 2.21984 4.13943 2.57077C3.51315 2.92171 3.02314 3.40425 2.6723 4.02131C2.31856 4.63837 2.1446 5.32562 2.1446 6.08598C2.1446 6.84634 2.32146 7.53651 2.6723 8.15065C3.02603 8.76771 3.51315 9.25025 4.13943 9.60119C4.76572 9.95212 5.46449 10.1276 6.23865 10.1276C7.40134 10.1276 8.37846 9.70647 9.17291 8.86715L10.1413 9.81467C9.66582 10.3557 9.08593 10.7651 8.40456 11.0459C7.72318 11.3266 6.97801 11.467 6.16326 11.467C5.11945 11.467 4.18003 11.233 3.33918 10.768H3.34208Z" fill="black"/>
<path d="M17.6221 4.64422H14.7314V11.3442H13.3019V4.64422H10.4111V3.38085H17.6221V4.64422Z" fill="black"/>
<path d="M24.4065 4.12074C24.9864 4.66177 25.2792 5.46892 25.2792 6.53927V11.3471H23.9223V10.2943C23.6845 10.6657 23.3424 10.9464 22.9017 11.1424C22.461 11.3383 21.9362 11.4348 21.3302 11.4348C20.4458 11.4348 19.7384 11.2213 19.2078 10.7885C18.6772 10.3586 18.4104 9.79128 18.4104 9.09233C18.4104 8.39338 18.6627 7.82896 19.1701 7.40199C19.6775 6.97502 20.4806 6.76446 21.5824 6.76446H23.8469V6.47786C23.8469 5.85787 23.6671 5.38119 23.3105 5.05072C22.9539 4.72026 22.4262 4.55356 21.7303 4.55356C21.2635 4.55356 20.8083 4.63252 20.3588 4.78752C19.9123 4.94252 19.5354 5.15015 19.228 5.41043L18.6308 4.32838C19.0367 3.99791 19.5238 3.74641 20.0921 3.57094C20.6575 3.39547 21.2577 3.30774 21.8956 3.30774C22.9887 3.30774 23.8237 3.57679 24.4065 4.11782V4.12074ZM22.9829 9.95797C23.3801 9.71232 23.6671 9.36431 23.8469 8.91394V7.80264H21.6433C20.4313 7.80264 19.8253 8.21207 19.8253 9.03384C19.8253 9.43449 19.979 9.75034 20.2864 9.98137C20.5937 10.2124 21.0199 10.3265 21.5679 10.3265C22.1159 10.3265 22.5856 10.2036 22.9829 9.95797Z" fill="black"/>
<path d="M27.8535 3.38377H29.283V6.76446H33.7829V3.38377H35.2124V11.3471H33.7829V8.01028H29.283V11.3471H27.8535V3.38377Z" fill="black"/>
<path d="M46.0281 10.0837V13.1954H44.6886V11.3471H38.0894V13.1954H36.7324V10.0837H37.1499C37.6574 10.0545 38.0053 9.69185 38.1938 9.00167C38.3822 8.3115 38.5127 7.33473 38.5823 6.07136L38.7012 3.38085H44.8248V10.0808H46.031L46.0281 10.0837ZM39.6435 8.66536C39.5188 9.32044 39.2927 9.7942 38.965 10.0837H43.3896V4.64422H39.9624L39.887 6.17664C39.8465 7.17681 39.7653 8.00736 39.6406 8.66244L39.6435 8.66536Z" fill="black"/>
<path d="M53.2156 4.12074C53.7955 4.66177 54.0883 5.46892 54.0883 6.53927V11.3471H52.7314V10.2943C52.4936 10.6657 52.1515 10.9464 51.7108 11.1424C51.27 11.3383 50.7452 11.4348 50.1393 11.4348C49.2549 11.4348 48.5474 11.2213 48.0168 10.7885C47.4862 10.3586 47.2195 9.79128 47.2195 9.09233C47.2195 8.39338 47.4717 7.82896 47.9791 7.40199C48.4866 6.97502 49.2897 6.76446 50.3915 6.76446H52.656V6.47786C52.656 5.85787 52.4762 5.38119 52.1196 5.05072C51.763 4.72026 51.2353 4.55356 50.5394 4.55356C50.0726 4.55356 49.6173 4.63252 49.1679 4.78752C48.7214 4.94252 48.3445 5.15015 48.0371 5.41043L47.4398 4.32838C47.8458 3.99791 48.3329 3.74641 48.9012 3.57094C49.4666 3.39547 50.0668 3.30774 50.7046 3.30774C51.7977 3.30774 52.6328 3.57679 53.2156 4.11782V4.12074ZM51.7919 9.95797C52.1892 9.71232 52.4762 9.36431 52.656 8.91394V7.80264H50.4524C49.2404 7.80264 48.6344 8.21207 48.6344 9.03384C48.6344 9.43449 48.7881 9.75034 49.0954 9.98137C49.4028 10.2124 49.829 10.3265 50.377 10.3265C50.925 10.3265 51.3947 10.2036 51.7919 9.95797Z" fill="black"/>
<path d="M62.9056 3.81952C63.5116 4.16168 63.9843 4.63545 64.3293 5.24666C64.6714 5.85787 64.8425 6.56559 64.8425 7.36397C64.8425 8.16235 64.6714 8.873 64.3293 9.49006C63.9872 10.1071 63.5116 10.5838 62.9056 10.926C62.2997 11.2681 61.6154 11.4378 60.8499 11.4378C60.2845 11.4378 59.7655 11.3266 59.2929 11.1073C58.8203 10.888 58.4202 10.5663 58.0925 10.1451V14.2628H56.6631V3.38378H58.0345V4.64714C58.3535 4.20555 58.7536 3.87216 59.2407 3.64698C59.7278 3.42179 60.2642 3.30774 60.8499 3.30774C61.6154 3.30774 62.2997 3.47736 62.9056 3.81952ZM62.0938 9.82345C62.4968 9.58949 62.8129 9.25903 63.0477 8.83205C63.2797 8.40508 63.3986 7.9167 63.3986 7.3669C63.3986 6.8171 63.2826 6.32871 63.0477 5.90174C62.8129 5.47769 62.4968 5.14723 62.0938 4.9162C61.6908 4.68516 61.2385 4.57111 60.731 4.57111C60.2236 4.57111 59.7858 4.68809 59.3828 4.92497C58.9798 5.16185 58.6637 5.48939 58.4289 5.91051C58.194 6.33164 58.078 6.8171 58.078 7.3669C58.078 7.9167 58.1911 8.40508 58.4202 8.83205C58.6492 9.25903 58.9653 9.58949 59.3741 9.82345C59.78 10.0603 60.2323 10.1773 60.731 10.1773C61.2298 10.1773 61.6908 10.0603 62.0938 9.82345Z" fill="black"/>
<path d="M72.5 4.64422H69.6093V11.3442H68.1798V4.64422H65.2891V3.38085H72.5V4.64422Z" fill="black"/>
<path d="M7.2909 19.3777C8.11146 19.8427 8.75224 20.489 9.21905 21.3166C9.68587 22.1442 9.91783 23.0771 9.91783 24.1182C9.91783 25.1593 9.68297 26.0952 9.21905 26.9199C8.75224 27.7475 8.10856 28.3909 7.2909 28.8588C6.47035 29.3238 5.54542 29.5577 4.51321 29.5577C3.58827 29.5577 2.75903 29.3969 2.01677 29.0781C1.2774 28.7564 0.65981 28.2914 0.161101 27.6802L1.69492 26.2385C2.43139 27.069 3.32733 27.4843 4.39143 27.4843C5.15689 27.4843 5.80347 27.2591 6.33407 26.8087C6.86468 26.3584 7.20972 25.753 7.36919 24.9897H3.13886V23.1268H7.34019C7.17202 22.4045 6.82409 21.8284 6.29639 21.3985C5.76868 20.9686 5.1337 20.7522 4.38853 20.7522C3.32442 20.7522 2.42849 21.1674 1.69202 21.998L0.158203 20.5562C0.654013 19.945 1.2745 19.48 2.01386 19.1583C2.75323 18.8366 3.58538 18.6787 4.51031 18.6787C5.54252 18.6787 6.47035 18.9127 7.288 19.3777H7.2909Z" fill="black"/>
<path d="M15.1634 26.3116H13.9572V29.3764H11.6348V21.2932H13.9572V24.4341H15.2098L17.3844 21.2932H19.8577L17.0568 25.171L20.0519 29.3764H17.3119L15.1663 26.3116H15.1634Z" fill="black"/>
<path d="M22.4552 28.9641C21.7738 28.6073 21.2432 28.116 20.8605 27.4843C20.4777 26.8526 20.2864 26.1361 20.2864 25.3348C20.2864 24.5335 20.4777 23.817 20.8605 23.1853C21.2432 22.5536 21.7738 22.0623 22.4552 21.7055C23.1366 21.3488 23.902 21.1733 24.7574 21.1733C25.6127 21.1733 26.3376 21.3517 26.9697 21.7055C27.5988 22.0623 28.0599 22.5683 28.3469 23.2292L26.5434 24.206C26.1259 23.4661 25.5257 23.0947 24.74 23.0947C24.134 23.0947 23.6324 23.2965 23.2351 23.6971C22.8379 24.0978 22.6407 24.6446 22.6407 25.3348C22.6407 26.025 22.8379 26.5719 23.2351 26.9725C23.6324 27.3732 24.134 27.5749 24.74 27.5749C25.5344 27.5749 26.1346 27.2035 26.5434 26.4637L28.3469 27.455C28.0599 28.0955 27.5988 28.5956 26.9697 28.9582C26.3376 29.3179 25.6011 29.4992 24.7574 29.4992C23.9136 29.4992 23.1366 29.3209 22.4552 28.967V28.9641Z" fill="black"/>
<path d="M37.7324 21.2932V29.3764H35.4099V23.2146H32.0726V29.3764H29.7646V21.2932H37.7353H37.7324Z" fill="black"/>
<path d="M46.7205 21.6909C47.3323 22.036 47.8107 22.5215 48.1586 23.1473C48.5066 23.7731 48.6805 24.5013 48.6805 25.3348C48.6805 26.1683 48.5066 26.8936 48.1586 27.5223C47.8107 28.1481 47.3323 28.6336 46.7205 28.9787C46.1087 29.3238 45.4331 29.4963 44.688 29.4963C43.6644 29.4963 42.8613 29.1717 42.2756 28.5196V32.2921H39.9531V21.2932H42.1712V22.2232C42.7482 21.5213 43.5862 21.1704 44.688 21.1704C45.4331 21.1704 46.1116 21.3429 46.7205 21.688V21.6909ZM45.7521 26.9637C46.1348 26.5572 46.3262 26.0133 46.3262 25.3348C46.3262 24.6563 46.1348 24.1095 45.7521 23.7059C45.3693 23.2994 44.8793 23.0976 44.2849 23.0976C43.6905 23.0976 43.2005 23.2994 42.8178 23.7059C42.4351 24.1124 42.2437 24.6563 42.2437 25.3348C42.2437 26.0133 42.4351 26.5602 42.8178 26.9637C43.2005 27.3702 43.6905 27.572 44.2849 27.572C44.8793 27.572 45.3693 27.3702 45.7521 26.9637Z" fill="black"/>
<path d="M58.0492 25.9957H51.9864C52.0965 26.4958 52.3546 26.8935 52.7605 27.1831C53.1664 27.4726 53.6739 27.6188 54.2798 27.6188C54.6974 27.6188 55.0656 27.5574 55.3903 27.4317C55.7122 27.3059 56.0137 27.11 56.2921 26.838L57.5272 28.1891C56.7734 29.0606 55.6687 29.4963 54.219 29.4963C53.3143 29.4963 52.517 29.3179 51.8211 28.9641C51.1252 28.6073 50.5888 28.116 50.2119 27.4843C49.835 26.8526 49.6465 26.1361 49.6465 25.3348C49.6465 24.5335 49.832 23.8287 50.2061 23.1941C50.5772 22.5595 51.0904 22.0623 51.7399 21.7055C52.3894 21.3488 53.1172 21.1733 53.9232 21.1733C54.7293 21.1733 55.4164 21.3429 56.0543 21.6851C56.6893 22.0272 57.188 22.5127 57.5504 23.1502C57.9129 23.7848 58.0926 24.5247 58.0926 25.367C58.0926 25.3962 58.0782 25.6068 58.0492 25.9987V25.9957ZM52.6126 23.3959C52.256 23.6971 52.0356 24.1065 51.9574 24.6271H55.9035C55.8253 24.1153 55.6049 23.7088 55.2483 23.4017C54.8916 23.0947 54.4538 22.9426 53.9377 22.9426C53.4216 22.9426 52.9693 23.0917 52.6126 23.393V23.3959Z" fill="black"/>
<path d="M61.3954 28.9641C60.714 28.6073 60.1834 28.116 59.8007 27.4843C59.4179 26.8526 59.2266 26.1361 59.2266 25.3348C59.2266 24.5335 59.4179 23.817 59.8007 23.1853C60.1834 22.5536 60.714 22.0623 61.3954 21.7055C62.0767 21.3488 62.8422 21.1733 63.6975 21.1733C64.5529 21.1733 65.2778 21.3517 65.9098 21.7055C66.539 22.0623 67 22.5683 67.2871 23.2292L65.4836 24.206C65.0661 23.4661 64.4659 23.0947 63.6801 23.0947C63.0742 23.0947 62.5725 23.2965 62.1753 23.6971C61.7781 24.0978 61.5809 24.6446 61.5809 25.3348C61.5809 26.025 61.7781 26.5719 62.1753 26.9725C62.5725 27.3732 63.0742 27.5749 63.6801 27.5749C64.4746 27.5749 65.0748 27.2035 65.4836 26.4637L67.2871 27.455C67 28.0955 66.539 28.5956 65.9098 28.9582C65.2778 29.3179 64.5413 29.4992 63.6975 29.4992C62.8538 29.4992 62.0767 29.3209 61.3954 28.967V28.9641Z" fill="black"/>
<path d="M70.1083 28.9641C69.4269 28.6073 68.8963 28.116 68.5136 27.4843C68.1308 26.8526 67.9395 26.1361 67.9395 25.3348C67.9395 24.5335 68.1308 23.817 68.5136 23.1853C68.8963 22.5536 69.4269 22.0623 70.1083 21.7055C70.7896 21.3488 71.5551 21.1733 72.4104 21.1733C73.2658 21.1733 73.9907 21.3517 74.6227 21.7055C75.2519 22.0623 75.7129 22.5683 76 23.2292L74.1965 24.206C73.779 23.4661 73.1788 23.0947 72.393 23.0947C71.7871 23.0947 71.2854 23.2965 70.8882 23.6971C70.491 24.0978 70.2938 24.6446 70.2938 25.3348C70.2938 26.025 70.491 26.5719 70.8882 26.9725C71.2854 27.3732 71.7871 27.5749 72.393 27.5749C73.1875 27.5749 73.7877 27.2035 74.1965 26.4637L76 27.455C75.7129 28.0955 75.2519 28.5956 74.6227 28.9582C73.9907 29.3179 73.2542 29.4992 72.4104 29.4992C71.5667 29.4992 70.7896 29.3209 70.1083 28.967V28.9641Z" fill="black"/>
</svg>
