<svg width="21" height="21" viewBox="0 0 21 21" fill="none" xmlns="http://www.w3.org/2000/svg">
<path d="M18.375 8.53125C18.201 8.53125 18.034 8.60039 17.911 8.72346C17.7879 8.84653 17.7188 9.01345 17.7188 9.1875V14.4375C17.7188 14.6115 17.6496 14.7785 17.5265 14.9015C17.4035 15.0246 17.2365 15.0938 17.0625 15.0938H3.9375C3.76345 15.0938 3.59653 15.0246 3.47346 14.9015C3.35039 14.7785 3.28125 14.6115 3.28125 14.4375V9.1875C3.28125 9.01345 3.21211 8.84653 3.08904 8.72346C2.96597 8.60039 2.79905 8.53125 2.625 8.53125C2.45095 8.53125 2.28403 8.60039 2.16096 8.72346C2.03789 8.84653 1.96875 9.01345 1.96875 9.1875V14.4375C1.96921 14.9595 2.17693 15.4599 2.54625 15.8288C2.91511 16.1981 3.41553 16.4058 3.9375 16.4062H17.0625C17.5845 16.4058 18.0849 16.1981 18.4538 15.8288C18.8231 15.4599 19.0308 14.9595 19.0312 14.4375V9.1875C19.0312 9.01345 18.9621 8.84653 18.839 8.72346C18.716 8.60039 18.549 8.53125 18.375 8.53125Z" fill="#ED9121"/>
<path d="M10.0114 12.7437C10.125 12.8289 10.2632 12.875 10.4052 12.875C10.5472 12.875 10.6854 12.8289 10.7989 12.7437L18.5493 6.92937C18.6702 6.8382 18.7558 6.70802 18.7917 6.5609C18.8276 6.41379 18.8115 6.25879 18.7461 6.12219C18.6484 5.92027 18.5175 5.73616 18.3589 5.5775C17.9901 5.20818 17.4897 5.00046 16.9677 5H3.8427C3.32073 5.00046 2.82031 5.20818 2.45145 5.5775C2.29287 5.73616 2.16199 5.92027 2.06426 6.12219C1.99891 6.25879 1.98281 6.41379 2.01869 6.5609C2.05457 6.70802 2.14023 6.8382 2.26113 6.92937L10.0114 12.7437ZM3.8427 6.3125H16.9677C17.0286 6.30291 17.0906 6.30291 17.1514 6.3125L10.4052 11.3984L3.65895 6.3125C3.71982 6.30291 3.78182 6.30291 3.8427 6.3125Z" fill="#ED9121"/>
</svg>
