<svg width="20" height="20" viewBox="0 0 20 20" fill="none" xmlns="http://www.w3.org/2000/svg">
<path d="M18.3333 16.6667H1.66667C0.7475 16.6667 0 15.9192 0 15V5.00001C0 4.08084 0.7475 3.33334 1.66667 3.33334H18.3333C19.2525 3.33334 20 4.08084 20 5.00001V15C20 15.9192 19.2525 16.6667 18.3333 16.6667ZM1.66667 4.16668C1.20708 4.16668 0.833333 4.54043 0.833333 5.00001V15C0.833333 15.4596 1.20708 15.8333 1.66667 15.8333H18.3333C18.7929 15.8333 19.1667 15.4596 19.1667 15V5.00001C19.1667 4.54043 18.7929 4.16668 18.3333 4.16668H1.66667Z" fill="black"/>
<path d="M10.0002 12.1629L2.69059 7.43334C2.49726 7.30792 2.44184 7.05042 2.56684 6.85709C2.69184 6.66376 2.94976 6.60876 3.14309 6.73334L10.0002 11.1704L16.8573 6.73334C17.0506 6.60876 17.3085 6.66376 17.4335 6.85709C17.5585 7.05042 17.5031 7.30792 17.3098 7.43334L10.0002 12.1629Z" fill="black"/>
<path d="M2.50131 14.1667C2.36672 14.1667 2.23422 14.1017 2.15422 13.9813C2.02631 13.7896 2.07797 13.5313 2.26964 13.4033L6.01964 10.9033C6.21131 10.7754 6.47006 10.8271 6.59756 11.0188C6.72547 11.2104 6.67381 11.4688 6.48214 11.5967L2.73214 14.0967C2.66089 14.1438 2.58047 14.1667 2.50131 14.1667Z" fill="black"/>
<path d="M17.5005 14.1667C17.4213 14.1667 17.3409 14.1438 17.2696 14.0967L13.5196 11.5967C13.328 11.4688 13.2763 11.2104 13.4042 11.0188C13.5317 10.8271 13.7901 10.7754 13.9821 10.9033L17.7321 13.4033C17.9238 13.5313 17.9755 13.7896 17.8476 13.9813C17.7676 14.1017 17.6351 14.1667 17.5005 14.1667Z" fill="black"/>
</svg>
