<svg width="40" height="40" viewBox="0 0 40 40" fill="none" xmlns="http://www.w3.org/2000/svg">
<path d="M23.75 21.25H22.5V25H23.75V21.25Z" fill="#333333"/>
<path d="M26.25 21.25H25V25H26.25V21.25Z" fill="#333333"/>
<path d="M28.75 21.25H27.5V25H28.75V21.25Z" fill="#333333"/>
<path d="M31.25 21.25H30V25H31.25V21.25Z" fill="#333333"/>
<path d="M33.75 21.25H32.5V25H33.75V21.25Z" fill="#333333"/>
<path d="M36.25 21.25H35V25H36.25V21.25Z" fill="#333333"/>
<path d="M38.125 30H20.625C20.4592 30 20.3003 30.0658 20.1831 30.1831C20.0658 30.3003 20 30.4592 20 30.625V38.125C20 38.2908 20.0658 38.4497 20.1831 38.5669C20.3003 38.6842 20.4592 38.75 20.625 38.75H38.125C38.2908 38.75 38.4497 38.6842 38.5669 38.5669C38.6842 38.4497 38.75 38.2908 38.75 38.125V30.625C38.75 30.4592 38.6842 30.3003 38.5669 30.1831C38.4497 30.0658 38.2908 30 38.125 30ZM37.5 37.5H21.25V31.25H37.5V37.5Z" fill="#ED9121"/>
<path d="M23.75 32.5H22.5V36.25H23.75V32.5Z" fill="#ED9121"/>
<path d="M26.25 32.5H25V36.25H26.25V32.5Z" fill="#ED9121"/>
<path d="M28.75 32.5H27.5V36.25H28.75V32.5Z" fill="#ED9121"/>
<path d="M31.25 32.5H30V36.25H31.25V32.5Z" fill="#ED9121"/>
<path d="M33.75 32.5H32.5V36.25H33.75V32.5Z" fill="#ED9121"/>
<path d="M36.25 32.5H35V36.25H36.25V32.5Z" fill="#ED9121"/>
<path d="M36 16H32.1125L31.6063 13.9731C31.5724 13.838 31.4943 13.718 31.3845 13.6323C31.2747 13.5466 31.1393 13.5 31 13.5H29.75V4.75H30.375C30.8723 4.75 31.3492 4.55246 31.7008 4.20083C32.0525 3.84919 32.25 3.37228 32.25 2.875C32.25 2.37772 32.0525 1.90081 31.7008 1.54917C31.3492 1.19754 30.8723 1 30.375 1H26.625C26.4848 1.00234 26.3498 1.05288 26.2425 1.14313L26.2362 1.13563L5.77813 17.3812C5.12438 17.5644 4.54824 17.9559 4.13711 18.4962C3.72597 19.0364 3.50229 19.6961 3.5 20.375V27.875H2.875C2.70924 27.875 2.55027 27.9408 2.43306 28.0581C2.31585 28.1753 2.25 28.3342 2.25 28.5V34.9888L1.34563 35.4406C1.24173 35.4925 1.15436 35.5724 1.09331 35.6712C1.03226 35.77 0.999946 35.8839 1 36V37.875C1 38.0408 1.06585 38.1997 1.18306 38.3169C1.30027 38.4342 1.45924 38.5 1.625 38.5H11.625C11.7908 38.5 11.9497 38.4342 12.0669 38.3169C12.1842 38.1997 12.25 38.0408 12.25 37.875V36C12.2506 35.8833 12.2186 35.7688 12.1575 35.6694C12.0964 35.57 12.0087 35.4897 11.9044 35.4375L11 34.9888V28.5C11 28.3342 10.9342 28.1753 10.8169 28.0581C10.6997 27.9408 10.5408 27.875 10.375 27.875H9.75V21.2656L26.875 4.75H28.5V13.5H27.25C27.1107 13.5 26.9753 13.5466 26.8655 13.6323C26.7557 13.718 26.6776 13.838 26.6437 13.9731L26.1375 16H22.25C21.587 16 20.9511 16.2634 20.4822 16.7322C20.0134 17.2011 19.75 17.837 19.75 18.5V26.625C19.75 26.7908 19.8158 26.9497 19.9331 27.0669C20.0503 27.1842 20.2092 27.25 20.375 27.25H37.875C38.0408 27.25 38.1997 27.1842 38.3169 27.0669C38.4342 26.9497 38.5 26.7908 38.5 26.625V18.5C38.5 17.837 38.2366 17.2011 37.7678 16.7322C37.2989 16.2634 36.663 16 36 16ZM7.69938 17.4519L26 2.91938V3.85687L9.64937 19.625C9.52583 19.1314 9.28361 18.6754 8.94378 18.2967C8.60394 17.918 8.17677 17.628 7.69938 17.4519ZM6.625 18.5C7.12228 18.5 7.59919 18.6975 7.95083 19.0492C8.30246 19.4008 8.5 19.8777 8.5 20.375H4.75C4.75 19.8777 4.94754 19.4008 5.29917 19.0492C5.65081 18.6975 6.12772 18.5 6.625 18.5ZM3.5 29.125H9.75V34.75H3.5V29.125ZM11 37.25H2.25V36.3862L3.0225 36H10.2275L11 36.3862V37.25ZM4.75 27.875V21.625H8.5V27.875H4.75ZM27.25 2.25H30.375C30.5408 2.25 30.6997 2.31585 30.8169 2.43306C30.9342 2.55027 31 2.70924 31 2.875C31 3.04076 30.9342 3.19973 30.8169 3.31694C30.6997 3.43415 30.5408 3.5 30.375 3.5H27.25V2.25ZM37.25 18.5H32.25V17.25H36C36.3315 17.25 36.6495 17.3817 36.8839 17.6161C37.1183 17.8505 37.25 18.1685 37.25 18.5ZM27.25 16.7019L27.7381 14.75H30.5119L31 16.7019V18.5H27.25V16.7019ZM22.25 17.25H26V18.5H21C21 18.1685 21.1317 17.8505 21.3661 17.6161C21.6005 17.3817 21.9185 17.25 22.25 17.25ZM37.25 26H21V19.75H37.25V26Z" fill="#333333"/>
</svg>
