<svg width="40" height="40" viewBox="0 0 40 40" fill="none" xmlns="http://www.w3.org/2000/svg">
<path fill-rule="evenodd" clip-rule="evenodd" d="M16.75 4.66667C15.3692 4.66667 14.25 5.78596 14.25 7.16667C14.25 8.54737 15.3692 9.66667 16.75 9.66667C18.1307 9.66667 19.25 8.54737 19.25 7.16667C19.25 5.78596 18.1307 4.66667 16.75 4.66667ZM12.5833 7.16667C12.5833 4.86548 14.4488 3 16.75 3C19.0512 3 20.9167 4.86548 20.9167 7.16667C20.9167 8.82187 19.9515 10.2517 18.5533 10.9239H21.2421C21.6271 10.9239 22.0541 11.0795 22.4238 11.2735C22.8196 11.4812 23.2472 11.7839 23.6433 12.1797C24.4398 12.9754 25.138 14.1802 25.138 15.766C25.138 17.7169 24.491 19.1422 23.6909 20.0892C23.295 20.5579 22.8631 20.9077 22.4576 21.145C22.3349 21.2167 22.2065 21.2829 22.0754 21.3398V35.8273C22.0754 37.0367 21.0894 38.0228 19.88 38.0228C18.6706 38.0228 17.6845 37.0367 17.6845 35.8273V26.5166H15.7935V35.8273C15.7935 37.0367 14.8075 38.0228 13.5981 38.0228C12.3887 38.0228 11.4026 37.0367 11.4026 35.8273V15.0922H7.28573V29.529C8.0923 29.6939 8.81717 30.1323 9.33775 30.7701C9.85842 31.4078 10.1427 32.2057 10.1429 33.0291V37.3148H8.71431V32.3147H7.28573V37.3148H5.85716V32.3147H4.42858V37.3148H3V33.0291C3.0001 32.2057 3.2845 31.4078 3.80511 30.7701C4.32572 30.1323 5.05058 29.6939 5.85716 29.529V15.0922H5.08333C3.93274 15.0922 3 14.1595 3 13.0089C3 11.8583 3.93274 10.9256 5.08333 10.9256H5.85716V8.00038H7.28573V10.9256H12.9999H14.6149C14.6498 10.9245 14.6848 10.9239 14.7198 10.9239H14.9467C13.5485 10.2517 12.5833 8.82187 12.5833 7.16667ZM12.2359 13.4256H7.28573V12.5922H12.9999H14.6288H14.6437L14.6587 12.5917C14.6789 12.591 14.6993 12.5906 14.7198 12.5906H21.2421C21.2415 12.5906 21.2416 12.5904 21.2421 12.5906L21.2459 12.5917C21.2715 12.5967 21.4108 12.6242 21.6496 12.7494C21.8983 12.8799 22.1895 13.0831 22.4653 13.3587C23.0128 13.9057 23.4713 14.7052 23.4713 15.766C23.4713 17.3265 22.9617 18.3699 22.4177 19.0137C22.3043 19.1479 22.1892 19.2652 22.0762 19.3664V14.6667H20.4095V19.8701L20.4087 20.7034V35.8273C20.4087 36.1162 20.1689 36.3561 19.88 36.3561C19.591 36.3561 19.3512 36.1162 19.3512 35.8273V25.6833V24.8499H18.5178H14.9602H14.1268V25.6833V35.8273C14.1268 36.1162 13.887 36.3561 13.5981 36.3561C13.3091 36.3561 13.0693 36.1162 13.0693 35.8273V14.2589V13.4256H12.2359ZM5.08333 12.5922H5.85716V13.4256H5.08333C4.85322 13.4256 4.66667 13.239 4.66667 13.0089C4.66667 12.7788 4.85322 12.5922 5.08333 12.5922Z" fill="#333333"/>
<path fill-rule="evenodd" clip-rule="evenodd" d="M30.8333 16.6667C31.2936 16.6667 31.6667 17.0398 31.6667 17.5001V36.6667C31.6667 37.1269 31.2936 37.5 30.8333 37.5C30.3731 37.5 30 37.1269 30 36.6667V17.5001C30 17.0398 30.3731 16.6667 30.8333 16.6667Z" fill="#ED9121"/>
<path fill-rule="evenodd" clip-rule="evenodd" d="M32.6488 33.1826C32.7425 33.206 32.8418 33.2285 32.9446 33.2485C33.2197 33.3023 33.4976 33.3344 33.7441 33.3274C33.9976 33.3201 34.1588 33.2731 34.2484 33.2214C34.3379 33.1697 34.4592 33.0536 34.5923 32.8376C34.7216 32.6276 34.8327 32.371 34.9237 32.1059C34.9577 32.0068 34.988 31.9095 35.0146 31.8168C34.921 31.7935 34.8216 31.771 34.7188 31.7509C34.4436 31.6971 34.1659 31.665 33.9193 31.672C33.6657 31.6793 33.5046 31.7263 33.4151 31.778C33.3255 31.8297 33.2041 31.9457 33.0711 32.1617C32.9417 32.3717 32.8306 32.6284 32.7396 32.8935C32.7056 32.9926 32.6755 33.0899 32.6488 33.1826ZM35.9967 31.2497C36.3019 30.4743 36.3017 30.4742 36.3016 30.4741L36.3002 30.4736L36.2978 30.4726L36.2908 30.47L36.2684 30.4614C36.2497 30.4544 36.2238 30.4447 36.1913 30.433C36.1265 30.4098 36.0351 30.3781 35.9231 30.3426C35.7004 30.272 35.3891 30.1837 35.0385 30.1151C34.6911 30.0472 34.2827 29.9943 33.8718 30.006C33.4679 30.0175 33.0002 30.093 32.5817 30.3346C32.1631 30.5763 31.864 30.9436 31.6521 31.2876C31.4365 31.6376 31.2781 32.0177 31.1632 32.3525C31.0472 32.6905 30.9681 33.0042 30.918 33.2324C30.8927 33.3471 30.8744 33.4421 30.8621 33.5099C30.856 33.5439 30.8513 33.5711 30.8481 33.5908L30.8443 33.6145L30.8431 33.622L30.8427 33.6245L30.8426 33.6255C30.8426 33.6256 30.8425 33.6263 31.6666 33.7497L30.8426 33.6255C30.7851 34.0094 31.0002 34.383 31.3615 34.5251L31.6666 33.7497C31.3615 34.5251 31.3613 34.525 31.3615 34.5251L31.3631 34.5258L31.3656 34.5268L31.3726 34.5295L31.3951 34.538C31.4136 34.545 31.4396 34.5547 31.4721 34.5664C31.5369 34.5896 31.6283 34.6212 31.7403 34.6568C31.963 34.7274 32.2742 34.8157 32.6249 34.8843C32.9723 34.9521 33.3806 35.005 33.7916 34.9934C34.1955 34.9819 34.6631 34.9064 35.0817 34.6648C35.5002 34.4231 35.7994 34.0558 36.0113 33.7118C36.2269 33.3618 36.3852 32.9817 36.5001 32.6469C36.6161 32.3089 36.6953 31.9951 36.7455 31.767C36.7707 31.6523 36.7891 31.5573 36.8013 31.4895C36.8074 31.4555 36.8121 31.4283 36.8152 31.4086L36.8191 31.3849L36.8202 31.3775L36.8206 31.375L36.8208 31.374C36.8208 31.3738 36.8209 31.3731 35.9967 31.2497ZM35.9967 31.2497L36.8208 31.374C36.8783 30.99 36.6628 30.6163 36.3016 30.4741L35.9967 31.2497Z" fill="#ED9121"/>
<path fill-rule="evenodd" clip-rule="evenodd" d="M26.8155 31.817C26.8422 31.9097 26.8723 32.007 26.9063 32.1061C26.9973 32.3713 27.1084 32.6279 27.2377 32.8379C27.3708 33.0539 27.4922 33.1699 27.5817 33.2216C27.6712 33.2734 27.8324 33.3204 28.086 33.3276C28.3326 33.3346 28.6103 33.3025 28.8855 33.2488C28.9882 33.2287 29.0877 33.2062 29.1812 33.1829C29.1547 33.0901 29.1244 32.9929 29.0904 32.8938C28.9994 32.6286 28.8883 32.3719 28.759 32.1619C28.6259 31.9459 28.5046 31.8299 28.4151 31.7783C28.3255 31.7265 28.1643 31.6794 27.9107 31.6723C27.6642 31.6652 27.3864 31.6973 27.1113 31.7511C27.0085 31.7712 26.9092 31.7937 26.8155 31.817ZM30.1634 33.7499C30.9876 33.6264 30.9876 33.6263 30.9875 33.6261L30.9873 33.6247L30.9869 33.6221L30.9857 33.6147L30.9819 33.591C30.9787 33.5714 30.9741 33.544 30.968 33.5101C30.9557 33.4424 30.9374 33.3474 30.9122 33.2325C30.862 33.0044 30.7828 32.6907 30.6668 32.3528C30.5519 32.0179 30.3936 31.6379 30.178 31.2879C29.9661 30.9439 29.6669 30.5765 29.2484 30.3349C28.8298 30.0932 28.3622 30.0178 27.9582 30.0063C27.5473 29.9945 27.139 30.0474 26.7916 30.1154C26.4409 30.1839 26.1297 30.2723 25.907 30.3429C25.795 30.3784 25.7036 30.41 25.6387 30.4333C25.6062 30.4449 25.5803 30.4546 25.5617 30.4616L25.5392 30.4702L25.5322 30.4729L25.5298 30.4739L25.5289 30.4742C25.5287 30.4743 25.5282 30.4744 25.8333 31.2499L25.5289 30.4742C25.1677 30.6164 24.9517 30.9894 25.0092 31.3734L25.8333 31.2499C25.0092 31.3734 25.0092 31.3732 25.0092 31.3734L25.0094 31.3752L25.0098 31.3777L25.011 31.3851L25.0148 31.4089C25.018 31.4285 25.0227 31.4558 25.0288 31.4898C25.0411 31.5575 25.0594 31.6525 25.0847 31.7673C25.1348 31.9954 25.2139 32.3091 25.3299 32.6471C25.4448 32.9819 25.6032 33.362 25.8187 33.712C26.0307 34.056 26.3298 34.4234 26.7484 34.665C27.1669 34.9066 27.6346 34.9821 28.0385 34.9936C28.4494 35.0053 28.8577 34.9524 29.2052 34.8844C29.5558 34.8159 29.8671 34.7276 30.0897 34.657C30.2017 34.6214 30.2932 34.5899 30.358 34.5665C30.3905 34.5549 30.4164 34.5453 30.4351 34.5383L30.4575 34.5297L30.4645 34.5269L30.4669 34.526L30.4678 34.5257C30.468 34.5256 30.4686 34.5254 30.1634 33.7499ZM30.1634 33.7499L30.4678 34.5257C30.8291 34.3835 31.045 34.01 30.9875 33.6261L30.1634 33.7499Z" fill="#ED9121"/>
<path fill-rule="evenodd" clip-rule="evenodd" d="M32.6488 27.3494C32.7425 27.3727 32.8418 27.3952 32.9446 27.4153C33.2197 27.469 33.4976 27.5011 33.7441 27.4941C33.9976 27.4869 34.1588 27.4399 34.2484 27.3881C34.3379 27.3364 34.4592 27.2204 34.5923 27.0044C34.7216 26.7944 34.8327 26.5378 34.9237 26.2726C34.9577 26.1735 34.988 26.0762 35.0146 25.9835C34.921 25.9602 34.8216 25.9377 34.7188 25.9176C34.4436 25.8639 34.1659 25.8317 33.9193 25.8388C33.6657 25.846 33.5046 25.893 33.4151 25.9448C33.3255 25.9964 33.2041 26.1124 33.0711 26.3284C32.9417 26.5384 32.8306 26.7951 32.7396 27.0603C32.7056 27.1594 32.6755 27.2566 32.6488 27.3494ZM35.9967 25.4164C36.3019 24.641 36.3017 24.6409 36.3016 24.6409L36.3002 24.6404L36.2978 24.6394L36.2908 24.6367L36.2684 24.6281C36.2497 24.6211 36.2238 24.6114 36.1913 24.5998C36.1265 24.5765 36.0351 24.5449 35.9231 24.5094C35.7004 24.4388 35.3891 24.3504 35.0385 24.2819C34.6911 24.2139 34.2827 24.161 33.8718 24.1728C33.4679 24.1843 33.0002 24.2598 32.5817 24.5014C32.1631 24.743 31.864 25.1104 31.6521 25.4544C31.4365 25.8044 31.2781 26.1844 31.1632 26.5193C31.0472 26.8572 30.9681 27.1709 30.918 27.3991C30.8927 27.5139 30.8744 27.6089 30.8621 27.6766C30.856 27.7106 30.8513 27.7379 30.8481 27.7575L30.8443 27.7813L30.8431 27.7887L30.8427 27.7912L30.8426 27.7922C30.8426 27.7924 30.8425 27.793 31.6666 27.9164L30.8426 27.7922C30.7851 28.1761 31.0002 28.5497 31.3615 28.6919L31.6666 27.9164C31.3615 28.6919 31.3613 28.6918 31.3615 28.6919L31.3631 28.6925L31.3656 28.6935L31.3726 28.6962L31.3951 28.7048C31.4136 28.7118 31.4396 28.7214 31.4721 28.7331C31.5369 28.7564 31.6283 28.788 31.7403 28.8235C31.963 28.8941 32.2742 28.9824 32.6249 29.051C32.9723 29.1189 33.3806 29.1718 33.7916 29.1601C34.1955 29.1486 34.6631 29.0731 35.0817 28.8315C35.5002 28.5899 35.7994 28.2225 36.0113 27.8785C36.2269 27.5285 36.3852 27.1485 36.5001 26.8136C36.6161 26.4756 36.6953 26.1619 36.7455 25.9338C36.7707 25.819 36.7891 25.724 36.8013 25.6563C36.8074 25.6223 36.8121 25.595 36.8152 25.5754L36.8191 25.5516L36.8202 25.5442L36.8206 25.5417L36.8208 25.5407C36.8208 25.5405 36.8209 25.5399 35.9967 25.4164ZM35.9967 25.4164L36.8208 25.5407C36.8783 25.1568 36.6628 24.783 36.3016 24.6409L35.9967 25.4164Z" fill="#ED9121"/>
<path fill-rule="evenodd" clip-rule="evenodd" d="M30.8333 16.3658C30.9003 16.2964 30.9695 16.2216 31.0383 16.1426C31.2224 15.9313 31.3891 15.7067 31.5063 15.4897C31.6268 15.2664 31.6666 15.1034 31.6666 15C31.6666 14.8965 31.6268 14.7335 31.5063 14.5103C31.3891 14.2933 31.2224 14.0687 31.0383 13.8573C30.9695 13.7783 30.9003 13.7035 30.8333 13.6341C30.7663 13.7035 30.6971 13.7783 30.6283 13.8573C30.4442 14.0687 30.2775 14.2933 30.1603 14.5103C30.0398 14.7335 30 14.8965 30 15C30 15.1034 30.0398 15.2664 30.1603 15.4897C30.2775 15.7067 30.4442 15.9313 30.6283 16.1426C30.6971 16.2216 30.7663 16.2964 30.8333 16.3658ZM30.8333 12.5C30.3143 11.848 30.3142 11.8481 30.3141 11.8482L30.3129 11.8491L30.3109 11.8507L30.3051 11.8554L30.2864 11.8706C30.271 11.8833 30.2497 11.9008 30.2234 11.9232C30.1708 11.9677 30.0977 12.031 30.0109 12.1103C29.8385 12.2678 29.6063 12.4932 29.3716 12.7626C29.1391 13.0295 28.8891 13.3567 28.6938 13.7184C28.5018 14.0739 28.3333 14.5167 28.3333 15C28.3333 15.4833 28.5018 15.926 28.6938 16.2815C28.8891 16.6433 29.1391 16.9704 29.3716 17.2373C29.6063 17.5068 29.8385 17.7322 30.0109 17.8897C30.0977 17.9689 30.1708 18.0323 30.2234 18.0768C30.2497 18.0991 30.271 18.1168 30.2864 18.1293L30.3051 18.1445L30.3109 18.1493L30.3129 18.1508L30.3137 18.1515C30.3139 18.1516 30.3143 18.152 30.8333 17.5L30.3137 18.1515C30.6175 18.3933 31.0486 18.3938 31.3523 18.152L30.8333 17.5C31.3523 18.152 31.3521 18.1521 31.3523 18.152L31.3537 18.1508L31.3557 18.1493L31.3616 18.1445L31.3802 18.1293C31.3956 18.1168 31.4169 18.0991 31.4432 18.0768C31.4958 18.0323 31.5689 17.9689 31.6557 17.8897C31.8281 17.7322 32.0603 17.5068 32.295 17.2373C32.5276 16.9704 32.7775 16.6433 32.9728 16.2815C33.1648 15.926 33.3333 15.4833 33.3333 15C33.3333 14.5167 33.1648 14.0739 32.9728 13.7184C32.7775 13.3567 32.5276 13.0295 32.295 12.7626C32.0603 12.4932 31.8281 12.2678 31.6557 12.1103C31.5689 12.031 31.4958 11.9677 31.4432 11.9232C31.4169 11.9008 31.3956 11.8833 31.3802 11.8706L31.3616 11.8554L31.3557 11.8507L31.3537 11.8491L31.3529 11.8485C31.3527 11.8483 31.3523 11.848 30.8333 12.5ZM30.8333 12.5L31.3529 11.8485C31.0491 11.6067 30.6178 11.6064 30.3141 11.8482L30.8333 12.5Z" fill="#ED9121"/>
<path fill-rule="evenodd" clip-rule="evenodd" d="M26.8155 25.9835C26.8422 26.0762 26.8723 26.1735 26.9063 26.2726C26.9973 26.5378 27.1084 26.7944 27.2377 27.0044C27.3708 27.2204 27.4922 27.3364 27.5817 27.3881C27.6712 27.4399 27.8324 27.4869 28.086 27.4941C28.3326 27.5011 28.6103 27.469 28.8855 27.4153C28.9882 27.3952 29.0877 27.3727 29.1812 27.3494C29.1547 27.2566 29.1244 27.1594 29.0904 27.0603C28.9994 26.7951 28.8883 26.5384 28.759 26.3284C28.6259 26.1124 28.5046 25.9964 28.4151 25.9448C28.3255 25.893 28.1643 25.8459 27.9107 25.8388C27.6642 25.8317 27.3864 25.8638 27.1113 25.9176C27.0085 25.9377 26.9092 25.9602 26.8155 25.9835ZM30.1634 27.9165C30.9876 27.793 30.9876 27.7928 30.9875 27.7926L30.9873 27.7912L30.9869 27.7886L30.9857 27.7812L30.9819 27.7575C30.9787 27.7379 30.9741 27.7105 30.968 27.6766C30.9557 27.6089 30.9374 27.5139 30.9122 27.399C30.862 27.1709 30.7828 26.8572 30.6668 26.5193C30.5519 26.1844 30.3936 25.8044 30.178 25.4544C29.9661 25.1104 29.6669 24.743 29.2484 24.5014C28.8298 24.2597 28.3622 24.1843 27.9582 24.1728C27.5473 24.161 27.139 24.2139 26.7916 24.2819C26.4409 24.3504 26.1297 24.4388 25.907 24.5094C25.795 24.5449 25.7036 24.5765 25.6387 24.5998C25.6062 24.6114 25.5803 24.6211 25.5617 24.6281L25.5392 24.6367L25.5322 24.6394L25.5298 24.6404L25.5289 24.6407C25.5287 24.6408 25.5282 24.6409 25.8333 25.4164L25.5289 24.6407C25.1677 24.7829 24.9517 25.1559 25.0092 25.5399L25.8333 25.4164C25.0092 25.5399 25.0092 25.5397 25.0092 25.5399L25.0094 25.5417L25.0098 25.5442L25.011 25.5516L25.0148 25.5754C25.018 25.595 25.0227 25.6223 25.0288 25.6563C25.0411 25.724 25.0594 25.819 25.0847 25.9338C25.1348 26.1619 25.2139 26.4756 25.3299 26.8136C25.4448 27.1484 25.6032 27.5285 25.8187 27.8785C26.0307 28.2225 26.3298 28.5899 26.7484 28.8315C27.1669 29.0731 27.6346 29.1486 28.0385 29.1601C28.4494 29.1718 28.8577 29.1189 29.2052 29.0509C29.5558 28.9824 29.8671 28.8941 30.0897 28.8235C30.2017 28.7879 30.2932 28.7564 30.358 28.733C30.3905 28.7214 30.4164 28.7118 30.4351 28.7048L30.4575 28.6962L30.4645 28.6935L30.4669 28.6925L30.4678 28.6922C30.468 28.6921 30.4686 28.6919 30.1634 27.9165ZM30.1634 27.9165L30.4678 28.6922C30.8291 28.55 31.045 28.1765 30.9875 27.7926L30.1634 27.9165Z" fill="#ED9121"/>
<path fill-rule="evenodd" clip-rule="evenodd" d="M32.6488 21.5159C32.7425 21.5392 32.8418 21.5617 32.9446 21.5818C33.2197 21.6355 33.4976 21.6676 33.7441 21.6606C33.9976 21.6534 34.1588 21.6064 34.2484 21.5546C34.3379 21.503 34.4592 21.3869 34.5923 21.1709C34.7216 20.9609 34.8327 20.7043 34.9237 20.4391C34.9577 20.34 34.988 20.2427 35.0146 20.15C34.921 20.1267 34.8216 20.1042 34.7188 20.0841C34.4436 20.0304 34.1659 19.9982 33.9193 20.0053C33.6657 20.0125 33.5046 20.0595 33.4151 20.1113C33.3255 20.163 33.2041 20.279 33.0711 20.495C32.9417 20.705 32.8306 20.9616 32.7396 21.2268C32.7056 21.3259 32.6755 21.4231 32.6488 21.5159ZM35.9967 19.583C36.3019 18.8075 36.3017 18.8075 36.3016 18.8074L36.3002 18.8069L36.2978 18.8059L36.2908 18.8032L36.2684 18.7946C36.2497 18.7876 36.2238 18.778 36.1913 18.7663C36.1265 18.743 36.0351 18.7114 35.9231 18.6759C35.7004 18.6053 35.3891 18.517 35.0385 18.4484C34.6911 18.3805 34.2827 18.3275 33.8718 18.3393C33.4679 18.3508 33.0002 18.4263 32.5817 18.6679C32.1631 18.9095 31.864 19.2769 31.6521 19.6209C31.4365 19.9709 31.2781 20.351 31.1632 20.6858C31.0472 21.0237 30.9681 21.3375 30.918 21.5656C30.8927 21.6804 30.8744 21.7754 30.8621 21.8431C30.856 21.8771 30.8513 21.9044 30.8481 21.924L30.8443 21.9478L30.8431 21.9552L30.8427 21.9577L30.8426 21.9587C30.8426 21.9589 30.8425 21.9595 31.6666 22.083L30.8426 21.9587C30.7851 22.3426 31.0002 22.7162 31.3615 22.8584L31.6666 22.083C31.3615 22.8584 31.3613 22.8583 31.3615 22.8584L31.3631 22.859L31.3656 22.86L31.3726 22.8627L31.3951 22.8713C31.4136 22.8783 31.4396 22.888 31.4721 22.8996C31.5369 22.9229 31.6283 22.9545 31.7403 22.99C31.963 23.0606 32.2742 23.149 32.6249 23.2175C32.9723 23.2854 33.3806 23.3383 33.7916 23.3266C34.1955 23.3151 34.6631 23.2396 35.0817 22.998C35.5002 22.7564 35.7994 22.389 36.0113 22.045C36.2269 21.695 36.3852 21.315 36.5001 20.9801C36.6161 20.6421 36.6953 20.3284 36.7455 20.1003C36.7707 19.9855 36.7891 19.8905 36.8013 19.8228C36.8074 19.7888 36.8121 19.7615 36.8152 19.7419L36.8191 19.7181L36.8202 19.7107L36.8206 19.7082L36.8208 19.7072C36.8208 19.707 36.8209 19.7064 35.9967 19.583ZM35.9967 19.583L36.8208 19.7072C36.8783 19.3233 36.6628 18.9495 36.3016 18.8074L35.9967 19.583Z" fill="#ED9121"/>
<path fill-rule="evenodd" clip-rule="evenodd" d="M26.8155 20.1503C26.8422 20.2429 26.8723 20.3403 26.9063 20.4394C26.9973 20.7045 27.1084 20.9611 27.2377 21.1711C27.3708 21.3871 27.4922 21.5032 27.5817 21.5549C27.6712 21.6066 27.8324 21.6536 28.086 21.6609C28.3326 21.6679 28.6103 21.6358 28.8855 21.582C28.9882 21.5619 29.0877 21.5394 29.1812 21.5161C29.1547 21.4234 29.1244 21.3261 29.0904 21.227C28.9994 20.9619 28.8883 20.7052 28.759 20.4952C28.6259 20.2792 28.5046 20.1632 28.4151 20.1115C28.3255 20.0598 28.1643 20.0127 27.9107 20.0055C27.6642 19.9984 27.3864 20.0305 27.1113 20.0844C27.0085 20.1044 26.9092 20.1269 26.8155 20.1503ZM30.1634 22.0832C30.9876 21.9597 30.9876 21.9595 30.9875 21.9594L30.9873 21.9579L30.9869 21.9554L30.9857 21.9479L30.9819 21.9243C30.9787 21.9046 30.9741 21.8773 30.968 21.8434C30.9557 21.7756 30.9374 21.6806 30.9122 21.5658C30.862 21.3377 30.7828 21.0239 30.6668 20.686C30.5519 20.3512 30.3936 19.9711 30.178 19.6211C29.9661 19.2771 29.6669 18.9098 29.2484 18.6681C28.8298 18.4264 28.3622 18.351 27.9582 18.3395C27.5473 18.3278 27.139 18.3807 26.7916 18.4486C26.4409 18.5172 26.1297 18.6055 25.907 18.6761C25.795 18.7116 25.7036 18.7433 25.6387 18.7665C25.6062 18.7782 25.5803 18.7879 25.5617 18.7949L25.5392 18.8034L25.5322 18.8061L25.5298 18.8071L25.5289 18.8074C25.5287 18.8075 25.5282 18.8077 25.8333 19.5832L25.5289 18.8074C25.1677 18.9496 24.9517 19.3227 25.0092 19.7066L25.8333 19.5832C25.0092 19.7066 25.0092 19.7064 25.0092 19.7066L25.0094 19.7084L25.0098 19.7109L25.011 19.7184L25.0148 19.7421C25.018 19.7618 25.0227 19.789 25.0288 19.823C25.0411 19.8908 25.0594 19.9858 25.0847 20.1005C25.1348 20.3286 25.2139 20.6424 25.3299 20.9804C25.4448 21.3152 25.6032 21.6953 25.8187 22.0453C26.0307 22.3893 26.3298 22.7566 26.7484 22.9983C27.1669 23.2399 27.6346 23.3154 28.0385 23.3269C28.4494 23.3385 28.8577 23.2856 29.2052 23.2177C29.5558 23.1492 29.8671 23.0609 30.0897 22.9903C30.2017 22.9547 30.2932 22.9231 30.358 22.8998C30.3905 22.8882 30.4164 22.8785 30.4351 22.8715L30.4575 22.8629L30.4645 22.8602L30.4669 22.8593L30.4678 22.8589C30.468 22.8589 30.4686 22.8586 30.1634 22.0832ZM30.1634 22.0832L30.4678 22.8589C30.8291 22.7168 31.045 22.3433 30.9875 21.9594L30.1634 22.0832Z" fill="#ED9121"/>
</svg>
