<svg width="40" height="40" viewBox="0 0 40 40" fill="none" xmlns="http://www.w3.org/2000/svg">
<g clip-path="url(#clip0_735_1148)">
<path d="M5.96191 7.19091L9.47066 5.89185L10.8591 9.64216L14.406 19.2212L18.0375 29.0297" stroke="#333333" stroke-width="1.7" stroke-miterlimit="10" stroke-linecap="round" stroke-linejoin="round"/>
<path d="M21.9816 30.7382L36.3525 25.4173L39.2944 24.3279" stroke="#333333" stroke-width="1.7" stroke-miterlimit="10" stroke-linecap="round" stroke-linejoin="round"/>
<path d="M22.1674 30.6695L36.3524 25.4173L31.689 12.8223L26.2578 14.8332L14.4059 19.2213L17.9499 28.7932" stroke="#333333" stroke-width="1.7" stroke-miterlimit="10" stroke-linecap="round" stroke-linejoin="round"/>
<path d="M22.7098 5.25494L10.8586 9.64307L14.4057 19.2228L26.2569 14.8347L22.7098 5.25494Z" stroke="#333333" stroke-width="1.7" stroke-miterlimit="10" stroke-linecap="round" stroke-linejoin="round"/>
<path d="M19.1916 34.7439C20.8346 34.7439 22.1666 33.412 22.1666 31.7689C22.1666 30.1259 20.8346 28.7939 19.1916 28.7939C17.5485 28.7939 16.2166 30.1259 16.2166 31.7689C16.2166 33.412 17.5485 34.7439 19.1916 34.7439Z" stroke="#333333" stroke-width="1.7" stroke-miterlimit="10" stroke-linecap="round" stroke-linejoin="round"/>
<path d="M21.3369 16.9372L23.4763 22.7147L24.6688 20.4763L27.081 21.38L24.9416 15.6025" stroke="#ED9121" stroke-width="1.7" stroke-miterlimit="10" stroke-linecap="round" stroke-linejoin="round"/>
<path d="M15.4597 7.93975L17.0319 12.1863L17.9085 10.541L19.6816 11.2054L18.1091 6.9585" stroke="#ED9121" stroke-width="1.7" stroke-miterlimit="10" stroke-linecap="round" stroke-linejoin="round"/>
<path d="M3.60193 15.356H7.6563" stroke="#ED9121" stroke-width="1.7" stroke-miterlimit="10" stroke-linecap="round" stroke-linejoin="round"/>
<path d="M3.60193 22.2747H7.6563" stroke="#ED9121" stroke-width="1.7" stroke-miterlimit="10" stroke-linecap="round" stroke-linejoin="round"/>
<path d="M0.705566 18.8154H7.65619" stroke="#ED9121" stroke-width="1.7" stroke-miterlimit="10" stroke-linecap="round" stroke-linejoin="round"/>
</g>
<defs>
<clipPath id="clip0_735_1148">
<rect width="40" height="40" fill="white"/>
</clipPath>
</defs>
</svg>
