<svg width="40" height="28" viewBox="0 0 40 28" fill="none" xmlns="http://www.w3.org/2000/svg">
<path d="M7.99999 22.6667C7.26663 22.6667 6.66663 23.2667 6.66663 24.0001C6.66663 24.7335 7.26663 25.3335 7.99999 25.3335C8.73334 25.3335 9.33334 24.7335 9.33334 24.0001C9.33334 23.2667 8.73334 22.6667 7.99999 22.6667Z" fill="#ED9121"/>
<path d="M32 22.6667C31.2666 22.6667 30.6666 23.2667 30.6666 24.0001C30.6666 24.7335 31.2666 25.3335 32 25.3335C32.7333 25.3335 33.3333 24.7335 33.3333 24.0001C33.3333 23.2667 32.7333 22.6667 32 22.6667Z" fill="#ED9121"/>
<path d="M30 18H28.6666C28.2666 18 28 18.2666 28 18.6666C28 19.0666 28.2666 19.3333 28.6666 19.3333H30C30.4 19.3333 30.6666 19.0666 30.6666 18.6666C30.6666 18.2666 30.4 18 30 18Z" fill="#ED9121"/>
<path d="M39.1334 16.6L36.5334 15.5334L34.8667 8.86672C34.6667 7.93336 33.8667 7.33336 32.9334 7.33336H24.6666C24.2666 7.33336 24 7.6 24 8V9.33336H23.3334V0.66664C23.3334 0.26664 23.0667 0 22.6667 0H20H16H13.3334C12.9334 0 12.6667 0.26664 12.6667 0.66664V2.66664H10.6667H6.66672H4C3.6 2.66664 3.33336 2.93328 3.33336 3.33328V9.33328H2.66672C2.26672 9.33328 2.00008 9.59992 2.00008 9.99992V14.6666H0.666641C0.266641 14.6666 0 14.9332 0 15.3332V23.3332C0 24.0666 0.6 24.6666 1.33336 24.6666H4.05703C4.37695 26.552 6.02711 27.9999 8 27.9999C9.97289 27.9999 11.623 26.552 11.943 24.6666H28.057C28.377 26.552 30.0271 27.9999 32 27.9999C33.9729 27.9999 35.623 26.552 35.943 24.6666H38.6666C39.4 24.6666 40 24.0666 40 23.3332V17.8666C40 17.2666 39.6666 16.8 39.1334 16.6ZM19.3334 1.33336V3.46672L18.4 2.80008C18.2666 2.73344 18.1334 2.66672 18 2.66672C17.8666 2.66672 17.7334 2.73336 17.6 2.73336L16.6666 3.4V1.33336H19.3334ZM14 1.33336H15.3334V4.66672C15.3334 4.93336 15.4667 5.13336 15.7334 5.20008C15.9334 5.33344 16.2 5.33344 16.4 5.20008L18 4.13344L19.6 5.20008C19.7334 5.26672 19.8666 5.33344 20 5.33344C20.1334 5.33344 20.2 5.33344 20.3334 5.2668C20.5334 5.13344 20.6667 4.93344 20.6667 4.6668V1.33336H22V9.33336H14V3.33336V1.33336ZM10 4V6.13336L9.06664 5.46672C8.93328 5.40008 8.8 5.33336 8.66664 5.33336C8.53328 5.33336 8.4 5.4 8.26664 5.4L7.33328 6.06664V4H10ZM4.66664 4H6V7.33336C6 7.6 6.13336 7.8 6.4 7.86672C6.6 8.00008 6.86664 8.00008 7.06664 7.86672L8.66664 6.80008L10.2666 7.86672C10.4 7.93336 10.5333 8.00008 10.6666 8.00008C10.8 8.00008 10.8666 8.00008 11 7.93344C11.2 7.80008 11.3334 7.60008 11.3334 7.33344V4H12.6667V9.33336H4.66672L4.66664 4ZM3.33336 10.6666H4H13.3334H22.6667H24V14.6666H3.33336V10.6666ZM8 26.6666C6.53336 26.6666 5.33336 25.4666 5.33336 24C5.33336 22.5334 6.53336 21.3334 8 21.3334C9.46664 21.3334 10.6666 22.5334 10.6666 24C10.6666 25.4666 9.46664 26.6666 8 26.6666ZM32 26.6666C30.5334 26.6666 29.3334 25.4666 29.3334 24C29.3334 22.5334 30.5334 21.3334 32 21.3334C33.4666 21.3334 34.6666 22.5334 34.6666 24C34.6666 25.4666 33.4666 26.6666 32 26.6666ZM38.6666 23.3334H35.943C35.7179 22.0068 34.8342 20.8977 33.6427 20.3563C33.6162 20.3442 33.59 20.3318 33.5632 20.3203C33.5464 20.3131 33.5294 20.3066 33.5124 20.2996C33.4693 20.2817 33.4259 20.2643 33.382 20.248C33.3701 20.2435 33.358 20.2395 33.3459 20.2351C33.2971 20.2174 33.248 20.2006 33.1983 20.1848C33.1875 20.1814 33.1767 20.1782 33.1659 20.1749C33.1152 20.1594 33.0641 20.1447 33.0126 20.1312C33.0012 20.1282 32.9898 20.1252 32.9783 20.1223C32.9277 20.1095 32.8766 20.0977 32.8252 20.0868C32.8122 20.0841 32.7993 20.0813 32.7863 20.0787C32.7366 20.0687 32.6866 20.0598 32.6362 20.0516C32.6213 20.0492 32.6064 20.0466 32.5914 20.0444C32.5429 20.0371 32.4939 20.0311 32.4448 20.0256C32.4281 20.0238 32.4116 20.0216 32.3948 20.0198C32.3457 20.015 32.2962 20.0115 32.2465 20.0084C32.2301 20.0074 32.2139 20.0059 32.1974 20.0051C32.132 20.0019 32.0662 20 31.9998 20C31.9335 20 31.8677 20.0019 31.8023 20.0051C31.7859 20.0059 31.7696 20.0074 31.7532 20.0084C31.7035 20.0115 31.654 20.015 31.6048 20.0198C31.5881 20.0215 31.5716 20.0238 31.5549 20.0256C31.5058 20.0311 31.4568 20.0372 31.4083 20.0444C31.3933 20.0466 31.3784 20.0492 31.3634 20.0516C31.313 20.0598 31.263 20.0687 31.2134 20.0786C31.2003 20.0812 31.1874 20.084 31.1745 20.0867C31.123 20.0976 31.072 20.1095 31.0214 20.1223C31.01 20.1252 30.9985 20.128 30.9871 20.1311C30.9355 20.1447 30.8845 20.1593 30.8338 20.1749C30.823 20.1782 30.8123 20.1814 30.8015 20.1848C30.7517 20.2006 30.7025 20.2175 30.6537 20.2352C30.6417 20.2395 30.6296 20.2435 30.6177 20.248C30.5738 20.2644 30.5303 20.2818 30.4871 20.2997C30.4703 20.3066 30.4533 20.3131 30.4366 20.3203C30.4098 20.3319 30.3834 20.3443 30.357 20.3565C29.1655 20.8979 28.2819 22.007 28.0569 23.3334H11.943C11.7179 22.0069 10.8342 20.8977 9.64266 20.3564C9.61625 20.3443 9.59 20.3319 9.5632 20.3204C9.54641 20.3132 9.52938 20.3066 9.51242 20.2997C9.4693 20.2818 9.42594 20.2644 9.38203 20.248C9.37008 20.2436 9.35797 20.2395 9.34594 20.2352C9.29711 20.2175 9.24797 20.2007 9.19828 20.1849C9.1875 20.1815 9.17672 20.1783 9.16586 20.175C9.11523 20.1595 9.06414 20.1448 9.01258 20.1312C9.00117 20.1283 8.98977 20.1253 8.97828 20.1224C8.92766 20.1096 8.87664 20.0977 8.82523 20.0869C8.81227 20.0841 8.79937 20.0813 8.78633 20.0788C8.73664 20.0688 8.68656 20.0598 8.63625 20.0517C8.62133 20.0493 8.60648 20.0467 8.59148 20.0445C8.54297 20.0372 8.49398 20.0312 8.44484 20.0257C8.4282 20.0238 8.41164 20.0216 8.39492 20.0199C8.34578 20.0151 8.29625 20.0116 8.24656 20.0085C8.23016 20.0075 8.21398 20.0059 8.1975 20.0052C8.13211 20.002 8.06625 20.0001 7.99992 20.0001C7.93359 20.0001 7.86773 20.002 7.80234 20.0052C7.78594 20.0059 7.76969 20.0075 7.75328 20.0085C7.70359 20.0116 7.65406 20.0151 7.60492 20.0199C7.5882 20.0216 7.57164 20.0238 7.555 20.0257C7.50586 20.0312 7.45688 20.0373 7.40836 20.0445C7.39336 20.0467 7.37852 20.0493 7.36352 20.0517C7.31312 20.0598 7.26312 20.0688 7.21344 20.0787C7.20039 20.0813 7.1875 20.0841 7.17453 20.0868C7.12313 20.0977 7.07211 20.1095 7.02148 20.1223C7.01008 20.1252 6.99859 20.1281 6.98719 20.1312C6.93562 20.1448 6.88453 20.1594 6.83391 20.175C6.82312 20.1783 6.81234 20.1815 6.80156 20.1849C6.7518 20.2007 6.70258 20.2176 6.65375 20.2352C6.6418 20.2395 6.62969 20.2436 6.61781 20.248C6.57383 20.2645 6.53039 20.2819 6.48719 20.2998C6.47039 20.3067 6.45336 20.3132 6.43664 20.3204C6.40984 20.332 6.38352 20.3444 6.35703 20.3566C5.16563 20.898 4.28195 22.007 4.05695 23.3335H1.33336V16H2.66672H24.6667C25.0667 16 25.3334 15.7334 25.3334 15.3334V10V8.66664H32.9334C33.2667 8.66664 33.5334 8.93328 33.6 9.2L35.1187 15.3334H29.3334V11.3334C29.3334 10.9334 29.0667 10.6667 28.6667 10.6667C28.2667 10.6667 28.0001 10.9334 28.0001 11.3334V16C28.0001 16.4 28.2667 16.6666 28.6667 16.6666H35.7334L38.6667 17.8L38.6666 23.3334Z" fill="#333333"/>
</svg>
