<svg width="41" height="40" viewBox="0 0 41 40" fill="none" xmlns="http://www.w3.org/2000/svg">
<g clip-path="url(#clip0_737_1120)">
<path d="M13.9548 10.2819C15.7688 10.2819 17.2445 8.80614 17.2445 6.99216C17.2445 5.17817 15.7687 3.70239 13.9548 3.70239C12.1409 3.70239 10.6651 5.17817 10.6651 6.99216C10.6651 8.80614 12.1409 10.2819 13.9548 10.2819ZM13.9548 4.95239C15.0795 4.95239 15.9945 5.86739 15.9945 6.99216C15.9945 8.11692 15.0795 9.03192 13.9548 9.03192C12.8302 9.03192 11.9151 8.11692 11.9151 6.99216C11.9151 5.86739 12.8302 4.95239 13.9548 4.95239ZM38.5606 31.9611H1.43937C0.645703 31.9611 0 32.6067 0 33.4004V34.8579C0 35.6516 0.645703 36.2974 1.43937 36.2974H38.5606C39.3543 36.2974 40 35.6516 40 34.8579V33.4004C40 32.6067 39.3543 31.9611 38.5606 31.9611ZM38.75 34.858C38.75 34.9607 38.6633 35.0475 38.5606 35.0475H1.43937C1.3368 35.0475 1.25 34.9608 1.25 34.858V33.4004C1.25 33.2979 1.33672 33.2111 1.43937 33.2111H38.5606C38.6632 33.2111 38.75 33.2978 38.75 33.4004V34.858ZM4.35086 28.3146L10.1468 23.3465C10.3634 23.1729 10.5451 22.9599 10.6824 22.7187L11.0656 23.04L10.0236 27.4844C9.88937 28.0603 9.98758 28.654 10.2999 29.1561C10.6123 29.6582 11.1016 30.0086 11.6774 30.1427C11.8456 30.1819 12.0154 30.2013 12.1839 30.2013C12.5923 30.2013 12.9937 30.0875 13.3491 29.8664C13.8513 29.554 14.2016 29.0647 14.3356 28.4897L15.6878 22.7211C15.8777 21.9033 15.5958 21.0606 14.9527 20.5224L12.0547 18.0931L12.6241 16.1066L13.7266 16.9126C13.9667 17.0935 14.2411 17.2237 14.5331 17.2955C14.8251 17.3672 15.1286 17.3789 15.4252 17.33L19.1657 16.702C20.3691 16.5015 21.1851 15.3592 20.9845 14.1556C20.7841 12.9522 19.6414 12.1362 18.4381 12.3368L18.4374 12.3369L15.6134 12.811L12.6697 10.6586C11.6859 9.93747 10.2987 10.151 9.5775 11.1349C9.4204 11.3487 9.30316 11.5891 9.23141 11.8445C8.82355 13.289 8.41396 14.7331 8.00266 16.1766C7.60195 17.5854 7.1882 19.0399 6.81023 20.3801L1.4743 24.9537C1.02547 25.3378 0.753047 25.8737 0.707266 26.4627C0.661406 27.0518 0.847734 27.6233 1.23187 28.0722C2.02492 28.999 3.42383 29.1078 4.35086 28.3146ZM1.95367 26.5597C1.96314 26.4337 1.99752 26.3107 2.05484 26.198C2.11216 26.0853 2.19126 25.9851 2.28758 25.9033L7.76742 21.2063C7.86101 21.1261 7.9288 21.0199 7.96227 20.9013C8.35352 19.5129 8.78648 17.9908 9.20516 16.5188C9.61922 15.0633 10.0473 13.5581 10.4348 12.1833C10.4662 12.072 10.5173 11.9672 10.5858 11.8741C10.8995 11.4462 11.5027 11.3532 11.9315 11.6674L15.0884 13.9757C15.1557 14.0249 15.2322 14.0601 15.3133 14.0793C15.3944 14.0985 15.4786 14.1013 15.5608 14.0875L18.6445 13.5699C19.1673 13.4831 19.6645 13.838 19.7517 14.3612C19.8389 14.8849 19.4839 15.3818 18.9596 15.4693L15.2191 16.0972C15.0896 16.1193 14.957 16.1144 14.8294 16.0829C14.7019 16.0513 14.5823 15.9938 14.478 15.9138C14.475 15.9114 14.4719 15.9091 14.4688 15.9068L12.6391 14.569C12.5579 14.5097 12.4635 14.4708 12.364 14.4558C12.2645 14.4407 12.1629 14.4499 12.0677 14.4825C11.9725 14.5151 11.8866 14.5702 11.8173 14.6431C11.7479 14.716 11.6972 14.8046 11.6695 14.9013L10.7413 18.139C10.708 18.2551 10.7091 18.3785 10.7445 18.4941C10.7799 18.6096 10.848 18.7125 10.9406 18.7901L14.1502 21.4806C14.2871 21.5946 14.3896 21.7444 14.4462 21.9133C14.5028 22.0823 14.5113 22.2636 14.4706 22.4371L13.1186 28.2051C13.0602 28.4559 12.9076 28.669 12.6889 28.805C12.4702 28.941 12.2117 28.9835 11.9612 28.9253C11.8378 28.8969 11.7212 28.8443 11.6183 28.7706C11.5153 28.6968 11.4281 28.6034 11.3615 28.4957C11.2943 28.3885 11.2491 28.269 11.2284 28.1443C11.2077 28.0195 11.212 27.8918 11.2409 27.7687L12.3706 22.9508C12.397 22.8381 12.3916 22.7204 12.3551 22.6107C12.3185 22.5009 12.2523 22.4035 12.1637 22.3291L10.7988 21.1849C10.7188 21.1178 10.6233 21.0718 10.521 21.0512C10.4187 21.0305 10.3128 21.0358 10.213 21.0665C10.1133 21.0973 10.0228 21.1526 9.94991 21.2273C9.87701 21.3021 9.82399 21.3939 9.7957 21.4943L9.68625 21.8829C9.63223 22.0776 9.51778 22.2502 9.35938 22.3757C9.35336 22.3805 9.34742 22.3854 9.34148 22.3904L3.53789 27.365C3.13516 27.7097 2.52672 27.6625 2.18187 27.2595C2.09942 27.1638 2.03679 27.0526 1.99762 26.9325C1.95845 26.8124 1.94351 26.6857 1.95367 26.5597ZM24.0377 30.2008H37.6288C38.5499 30.2008 39.2993 29.4515 39.2993 28.5304V13.8937C39.2993 13.728 39.2334 13.569 39.1162 13.4518C38.999 13.3346 38.8401 13.2687 38.6743 13.2687H22.9922C22.8264 13.2687 22.6675 13.3346 22.5502 13.4518C22.433 13.569 22.3672 13.728 22.3672 13.8937V28.5304C22.3672 29.4515 23.1166 30.2008 24.0377 30.2008ZM28.8329 14.5187H32.8337V19.6669H28.8329V14.5187ZM23.6172 14.5187H27.5829V20.2919C27.5829 20.4577 27.6487 20.6167 27.7659 20.7339C27.8832 20.8511 28.0421 20.9169 28.2079 20.9169H33.4587C33.6244 20.9169 33.7834 20.8511 33.9006 20.7339C34.0178 20.6167 34.0837 20.4577 34.0837 20.2919V14.5187H38.0493V28.5304C38.0492 28.6418 38.0048 28.7487 37.926 28.8275C37.8472 28.9064 37.7403 28.9507 37.6288 28.9508H24.0377C23.9262 28.9507 23.8193 28.9064 23.7405 28.8275C23.6617 28.7487 23.6173 28.6418 23.6172 28.5304V14.5187Z" fill="#333333"/>
</g>
<g clip-path="url(#clip1_737_1120)">
<path d="M13.9548 10.2819C15.7688 10.2819 17.2445 8.80614 17.2445 6.99216C17.2445 5.17817 15.7687 3.70239 13.9548 3.70239C12.1409 3.70239 10.6651 5.17817 10.6651 6.99216C10.6651 8.80614 12.1409 10.2819 13.9548 10.2819ZM13.9548 4.95239C15.0795 4.95239 15.9945 5.86739 15.9945 6.99216C15.9945 8.11692 15.0795 9.03192 13.9548 9.03192C12.8302 9.03192 11.9151 8.11692 11.9151 6.99216C11.9151 5.86739 12.8302 4.95239 13.9548 4.95239ZM38.5606 31.9611H1.43937C0.645703 31.9611 0 32.6067 0 33.4004V34.8579C0 35.6516 0.645703 36.2974 1.43937 36.2974H38.5606C39.3543 36.2974 40 35.6516 40 34.8579V33.4004C40 32.6067 39.3543 31.9611 38.5606 31.9611ZM38.75 34.858C38.75 34.9607 38.6633 35.0475 38.5606 35.0475H1.43937C1.3368 35.0475 1.25 34.9608 1.25 34.858V33.4004C1.25 33.2979 1.33672 33.2111 1.43937 33.2111H38.5606C38.6632 33.2111 38.75 33.2978 38.75 33.4004V34.858ZM4.35086 28.3146L10.1468 23.3465C10.3634 23.1729 10.5451 22.9599 10.6824 22.7187L11.0656 23.04L10.0236 27.4844C9.88937 28.0603 9.98758 28.654 10.2999 29.1561C10.6123 29.6582 11.1016 30.0086 11.6774 30.1427C11.8456 30.1819 12.0154 30.2013 12.1839 30.2013C12.5923 30.2013 12.9937 30.0875 13.3491 29.8664C13.8513 29.554 14.2016 29.0647 14.3356 28.4897L15.6878 22.7211C15.8777 21.9033 15.5958 21.0606 14.9527 20.5224L12.0547 18.0931L12.6241 16.1066L13.7266 16.9126C13.9667 17.0935 14.2411 17.2237 14.5331 17.2955C14.8251 17.3672 15.1286 17.3789 15.4252 17.33L19.1657 16.702C20.3691 16.5015 21.1851 15.3592 20.9845 14.1556C20.7841 12.9522 19.6414 12.1362 18.4381 12.3368L18.4374 12.3369L15.6134 12.811L12.6697 10.6586C11.6859 9.93747 10.2987 10.151 9.5775 11.1349C9.4204 11.3487 9.30316 11.5891 9.23141 11.8445C8.82355 13.289 8.41396 14.7331 8.00266 16.1766C7.60195 17.5854 7.1882 19.0399 6.81023 20.3801L1.4743 24.9537C1.02547 25.3378 0.753047 25.8737 0.707266 26.4627C0.661406 27.0518 0.847734 27.6233 1.23187 28.0722C2.02492 28.999 3.42383 29.1078 4.35086 28.3146ZM1.95367 26.5597C1.96314 26.4337 1.99752 26.3107 2.05484 26.198C2.11216 26.0853 2.19126 25.9851 2.28758 25.9033L7.76742 21.2063C7.86101 21.1261 7.9288 21.0199 7.96227 20.9013C8.35352 19.5129 8.78648 17.9908 9.20516 16.5188C9.61922 15.0633 10.0473 13.5581 10.4348 12.1833C10.4662 12.072 10.5173 11.9672 10.5858 11.8741C10.8995 11.4462 11.5027 11.3532 11.9315 11.6674L15.0884 13.9757C15.1557 14.0249 15.2322 14.0601 15.3133 14.0793C15.3944 14.0985 15.4786 14.1013 15.5608 14.0875L18.6445 13.5699C19.1673 13.4831 19.6645 13.838 19.7517 14.3612C19.8389 14.8849 19.4839 15.3818 18.9596 15.4693L15.2191 16.0972C15.0896 16.1193 14.957 16.1144 14.8294 16.0829C14.7019 16.0513 14.5823 15.9938 14.478 15.9138C14.475 15.9114 14.4719 15.9091 14.4688 15.9068L12.6391 14.569C12.5579 14.5097 12.4635 14.4708 12.364 14.4558C12.2645 14.4407 12.1629 14.4499 12.0677 14.4825C11.9725 14.5151 11.8866 14.5702 11.8173 14.6431C11.7479 14.716 11.6972 14.8046 11.6695 14.9013L10.7413 18.139C10.708 18.2551 10.7091 18.3785 10.7445 18.4941C10.7799 18.6096 10.848 18.7125 10.9406 18.7901L14.1502 21.4806C14.2871 21.5946 14.3896 21.7444 14.4462 21.9133C14.5028 22.0823 14.5113 22.2636 14.4706 22.4371L13.1186 28.2051C13.0602 28.4559 12.9076 28.669 12.6889 28.805C12.4702 28.941 12.2117 28.9835 11.9612 28.9253C11.8378 28.8969 11.7212 28.8443 11.6183 28.7706C11.5153 28.6968 11.4281 28.6034 11.3615 28.4957C11.2943 28.3885 11.2491 28.269 11.2284 28.1443C11.2077 28.0195 11.212 27.8918 11.2409 27.7687L12.3706 22.9508C12.397 22.8381 12.3916 22.7204 12.3551 22.6107C12.3185 22.5009 12.2523 22.4035 12.1637 22.3291L10.7988 21.1849C10.7188 21.1178 10.6233 21.0718 10.521 21.0512C10.4187 21.0305 10.3128 21.0358 10.213 21.0665C10.1133 21.0973 10.0228 21.1526 9.94991 21.2273C9.87701 21.3021 9.82399 21.3939 9.7957 21.4943L9.68625 21.8829C9.63223 22.0776 9.51778 22.2502 9.35938 22.3757C9.35336 22.3805 9.34742 22.3854 9.34148 22.3904L3.53789 27.365C3.13516 27.7097 2.52672 27.6625 2.18187 27.2595C2.09942 27.1638 2.03679 27.0526 1.99762 26.9325C1.95845 26.8124 1.94351 26.6857 1.95367 26.5597ZM24.0377 30.2008H37.6288C38.5499 30.2008 39.2993 29.4515 39.2993 28.5304V13.8937C39.2993 13.728 39.2334 13.569 39.1162 13.4518C38.999 13.3346 38.8401 13.2687 38.6743 13.2687H22.9922C22.8264 13.2687 22.6675 13.3346 22.5502 13.4518C22.433 13.569 22.3672 13.728 22.3672 13.8937V28.5304C22.3672 29.4515 23.1166 30.2008 24.0377 30.2008ZM28.8329 14.5187H32.8337V19.6669H28.8329V14.5187ZM23.6172 14.5187H27.5829V20.2919C27.5829 20.4577 27.6487 20.6167 27.7659 20.7339C27.8832 20.8511 28.0421 20.9169 28.2079 20.9169H33.4587C33.6244 20.9169 33.7834 20.8511 33.9006 20.7339C34.0178 20.6167 34.0837 20.4577 34.0837 20.2919V14.5187H38.0493V28.5304C38.0492 28.6418 38.0048 28.7487 37.926 28.8275C37.8472 28.9064 37.7403 28.9507 37.6288 28.9508H24.0377C23.9262 28.9507 23.8193 28.9064 23.7405 28.8275C23.6617 28.7487 23.6173 28.6418 23.6172 28.5304V14.5187Z" fill="#ED9121"/>
</g>
<defs>
<clipPath id="clip0_737_1120">
<rect width="22" height="40" fill="white"/>
</clipPath>
<clipPath id="clip1_737_1120">
<rect width="19" height="40" fill="white" transform="translate(22)"/>
</clipPath>
</defs>
</svg>
