<svg width="40" height="40" viewBox="0 0 40 40" fill="none" xmlns="http://www.w3.org/2000/svg">
<path d="M14.1667 8.33325H9.16668C8.94566 8.33325 8.7337 8.42105 8.57742 8.57733C8.42114 8.73361 8.33334 8.94557 8.33334 9.16659C8.33334 9.3876 8.42114 9.59956 8.57742 9.75584C8.7337 9.91212 8.94566 9.99992 9.16668 9.99992H14.1667C14.3877 9.99992 14.5997 9.91212 14.7559 9.75584C14.9122 9.59956 15 9.3876 15 9.16659C15 8.94557 14.9122 8.73361 14.7559 8.57733C14.5997 8.42105 14.3877 8.33325 14.1667 8.33325Z" fill="#ED9121"/>
<path d="M14.1667 13.3333H9.16668C8.94566 13.3333 8.7337 13.421 8.57742 13.5773C8.42114 13.7336 8.33334 13.9456 8.33334 14.1666C8.33334 14.3876 8.42114 14.5996 8.57742 14.7558C8.7337 14.9121 8.94566 14.9999 9.16668 14.9999H14.1667C14.3877 14.9999 14.5997 14.9121 14.7559 14.7558C14.9122 14.5996 15 14.3876 15 14.1666C15 13.9456 14.9122 13.7336 14.7559 13.5773C14.5997 13.421 14.3877 13.3333 14.1667 13.3333Z" fill="#ED9121"/>
<path d="M14.1667 18.3333H9.16668C8.94566 18.3333 8.7337 18.421 8.57742 18.5773C8.42114 18.7336 8.33334 18.9456 8.33334 19.1666C8.33334 19.3876 8.42114 19.5996 8.57742 19.7558C8.7337 19.9121 8.94566 19.9999 9.16668 19.9999H14.1667C14.3877 19.9999 14.5997 19.9121 14.7559 19.7558C14.9122 19.5996 15 19.3876 15 19.1666C15 18.9456 14.9122 18.7336 14.7559 18.5773C14.5997 18.421 14.3877 18.3333 14.1667 18.3333Z" fill="#ED9121"/>
<path d="M30 26.6666H28.3333C28.3767 25.4852 28.8373 24.3573 29.6333 23.4833C31.6667 21.9666 33.3333 20.1999 33.3333 17.4999C33.3318 15.5767 32.5931 13.7272 31.2693 12.332C29.9455 10.9369 28.1372 10.1023 26.2167 9.99992L19.75 3.58325C19.6493 3.46437 19.5161 3.37748 19.3667 3.33325H5.83334C5.1703 3.33325 4.53442 3.59664 4.06558 4.06549C3.59674 4.53433 3.33334 5.17021 3.33334 5.83325V34.1666C3.33334 34.8296 3.59674 35.4655 4.06558 35.9343C4.53442 36.4032 5.1703 36.6666 5.83334 36.6666H24.1667C24.8297 36.6666 25.4656 36.4032 25.9344 35.9343C26.4033 35.4655 26.6667 34.8296 26.6667 34.1666V33.3333H32.5C32.721 33.3333 32.933 33.2455 33.0893 33.0892C33.2455 32.9329 33.3333 32.7209 33.3333 32.4999V29.9999C33.3333 29.1159 32.9822 28.268 32.357 27.6429C31.7319 27.0178 30.8841 26.6666 30 26.6666ZM31.6667 17.4999C31.5529 18.4585 31.2221 19.3785 30.6993 20.1901C30.1766 21.0016 29.4757 21.6833 28.65 22.1833C27.4335 23.3646 26.7225 24.9717 26.6667 26.6666H25C24.9574 24.9788 24.2648 23.3727 23.0667 22.1833C22.2316 21.6888 21.521 21.0096 20.9894 20.1978C20.4578 19.3859 20.1193 18.463 20 17.4999C20 15.9528 20.6146 14.4691 21.7086 13.3751C22.8025 12.2812 24.2862 11.6666 25.8333 11.6666C27.3804 11.6666 28.8642 12.2812 29.9581 13.3751C31.0521 14.4691 31.6667 15.9528 31.6667 17.4999ZM23.8167 9.99992H20V6.18325L23.8167 9.99992ZM25 34.1666C25 34.3876 24.9122 34.5996 24.7559 34.7558C24.5997 34.9121 24.3877 34.9999 24.1667 34.9999H5.83334C5.61233 34.9999 5.40037 34.9121 5.24409 34.7558C5.08781 34.5996 5.00001 34.3876 5.00001 34.1666V5.83325C5.00001 5.61224 5.08781 5.40028 5.24409 5.244C5.40037 5.08772 5.61233 4.99992 5.83334 4.99992H18.3333V10.8333C18.3333 11.0543 18.4211 11.2662 18.5774 11.4225C18.7337 11.5788 18.9457 11.6666 19.1667 11.6666H21.1833C20.298 12.36 19.5815 13.2452 19.0878 14.2557C18.5942 15.2661 18.3362 16.3753 18.3333 17.4999C18.3333 20.1999 20.0833 21.9666 21.9833 23.4833C22.7868 24.3571 23.2637 25.4816 23.3333 26.6666H21.6667C20.7826 26.6666 19.9348 27.0178 19.3097 27.6429C18.6845 28.268 18.3333 29.1159 18.3333 29.9999V32.4999C18.3333 32.7209 18.4211 32.9329 18.5774 33.0892C18.7337 33.2455 18.9457 33.3333 19.1667 33.3333H25V34.1666ZM31.6667 31.6666H20V29.9999C20 29.5579 20.1756 29.134 20.4882 28.8214C20.8007 28.5088 21.2246 28.3333 21.6667 28.3333H30C30.442 28.3333 30.866 28.5088 31.1785 28.8214C31.4911 29.134 31.6667 29.5579 31.6667 29.9999V31.6666Z" fill="#333333"/>
<path d="M11.6667 23.3333C11.0074 23.3333 10.3629 23.5287 9.81478 23.895C9.26661 24.2613 8.83937 24.7819 8.58708 25.391C8.33479 26.0001 8.26878 26.6703 8.39739 27.3169C8.52601 27.9635 8.84348 28.5574 9.30966 29.0236C9.77583 29.4898 10.3698 29.8073 11.0164 29.9359C11.663 30.0645 12.3332 29.9985 12.9423 29.7462C13.5514 29.4939 14.072 29.0667 14.4382 28.5185C14.8045 27.9703 15 27.3259 15 26.6666C15 25.7825 14.6488 24.9347 14.0237 24.3096C13.3986 23.6844 12.5507 23.3333 11.6667 23.3333ZM11.6667 28.3333C11.337 28.3333 11.0148 28.2355 10.7407 28.0524C10.4666 27.8692 10.253 27.6089 10.1269 27.3044C10.0007 26.9998 9.96773 26.6647 10.032 26.3414C10.0963 26.0181 10.2551 25.7212 10.4882 25.4881C10.7213 25.255 11.0182 25.0963 11.3415 25.0319C11.6648 24.9676 11.9999 25.0006 12.3045 25.1268C12.609 25.2529 12.8693 25.4666 13.0525 25.7406C13.2356 26.0147 13.3333 26.3369 13.3333 26.6666C13.3333 27.1086 13.1578 27.5325 12.8452 27.8451C12.5326 28.1577 12.1087 28.3333 11.6667 28.3333Z" fill="#ED9121"/>
</svg>
