<svg width="40" height="40" viewBox="0 0 40 40" fill="none" xmlns="http://www.w3.org/2000/svg">
<path d="M13.125 19.9999C13.0427 20.0004 12.9612 19.9846 12.8851 19.9535C12.8089 19.9224 12.7397 19.8766 12.6813 19.8186L10.4563 17.5936L8.95 18.0936C8.85585 18.1254 8.75547 18.1343 8.65719 18.1196C8.55891 18.1048 8.46557 18.0668 8.38491 18.0088C8.30425 17.9507 8.23859 17.8743 8.19339 17.7858C8.14819 17.6973 8.12475 17.5993 8.125 17.4999V13.1249C8.12537 12.999 8.16376 12.8761 8.23513 12.7724C8.30651 12.6687 8.40754 12.589 8.525 12.5436L21.65 7.54363C21.805 7.48479 21.977 7.48992 22.1282 7.5579C22.2794 7.62589 22.3974 7.75115 22.4563 7.90613C22.5151 8.06112 22.51 8.23313 22.442 8.38433C22.374 8.53554 22.2487 8.65354 22.0938 8.71238L9.375 13.5561V16.6311L10.425 16.2811C10.533 16.2472 10.6482 16.2432 10.7583 16.2696C10.8683 16.2961 10.9692 16.3519 11.05 16.4311L12.5 17.8686V14.9999C12.4994 14.8754 12.5359 14.7536 12.605 14.6501C12.674 14.5465 12.7724 14.4659 12.8875 14.4186L26.0125 9.04988C26.1658 8.98689 26.3379 8.98739 26.4909 9.05127C26.6438 9.11515 26.7651 9.23718 26.8281 9.39051C26.8911 9.54384 26.8906 9.71591 26.8267 9.86887C26.7629 10.0218 26.6408 10.1431 26.4875 10.2061L13.75 15.4186V19.3749C13.75 19.5406 13.6842 19.6996 13.5669 19.8168C13.4497 19.934 13.2908 19.9999 13.125 19.9999Z" fill="#ED9121"/>
<path d="M17.5 35.625C17.4275 35.6249 17.3556 35.6122 17.2875 35.5875L3.5375 30.5875C3.41671 30.5438 3.3123 30.464 3.23849 30.3589C3.16468 30.2538 3.12505 30.1284 3.125 30V11.25C3.125 11.0842 3.19085 10.9253 3.30806 10.8081C3.42527 10.6908 3.58424 10.625 3.75 10.625C3.91576 10.625 4.07473 10.6908 4.19194 10.8081C4.30915 10.9253 4.375 11.0842 4.375 11.25V29.5625L16.875 34.1063V16.25C16.875 16.0842 16.9408 15.9253 17.0581 15.8081C17.1753 15.6908 17.3342 15.625 17.5 15.625C17.6658 15.625 17.8247 15.6908 17.9419 15.8081C18.0592 15.9253 18.125 16.0842 18.125 16.25V35C18.125 35.1658 18.0592 35.3247 17.9419 35.4419C17.8247 35.5592 17.6658 35.625 17.5 35.625ZM31.25 16.25C31.0842 16.25 30.9253 16.1842 30.8081 16.0669C30.6908 15.9497 30.625 15.7908 30.625 15.625V11.25C30.625 11.0842 30.6908 10.9253 30.8081 10.8081C30.9253 10.6908 31.0842 10.625 31.25 10.625C31.4158 10.625 31.5747 10.6908 31.6919 10.8081C31.8092 10.9253 31.875 11.0842 31.875 11.25V15.625C31.875 15.7908 31.8092 15.9497 31.6919 16.0669C31.5747 16.1842 31.4158 16.25 31.25 16.25Z" fill="#333333"/>
<path d="M17.5 35.625C17.3531 35.6248 17.2109 35.5729 17.0985 35.4783C16.986 35.3837 16.9105 35.2526 16.8851 35.1079C16.8598 34.9632 16.8862 34.8141 16.9598 34.687C17.0334 34.5598 17.1494 34.4626 17.2875 34.4125L30.625 29.5625V28.125C30.625 27.9592 30.6908 27.8002 30.8081 27.683C30.9253 27.5658 31.0842 27.5 31.25 27.5C31.4158 27.5 31.5747 27.5658 31.6919 27.683C31.8092 27.8002 31.875 27.9592 31.875 28.125V30C31.8749 30.1284 31.8353 30.2537 31.7615 30.3589C31.6877 30.464 31.5833 30.5438 31.4625 30.5875L17.7125 35.5875C17.6444 35.6122 17.5725 35.6249 17.5 35.625ZM17.5 16.875C17.4275 16.8749 17.3556 16.8622 17.2875 16.8375L3.5375 11.8375C3.41684 11.7937 3.31259 11.7138 3.23892 11.6087C3.16525 11.5036 3.12573 11.3783 3.12573 11.25C3.12573 11.1216 3.16525 10.9964 3.23892 10.8913C3.31259 10.7862 3.41684 10.7063 3.5375 10.6625L17.2875 5.66248C17.4248 5.61283 17.5752 5.61283 17.7125 5.66248L31.4625 10.6625C31.5832 10.7063 31.6874 10.7862 31.7611 10.8913C31.8347 10.9964 31.8743 11.1216 31.8743 11.25C31.8743 11.3783 31.8347 11.5036 31.7611 11.6087C31.6874 11.7138 31.5832 11.7937 31.4625 11.8375L17.7125 16.8375C17.6444 16.8622 17.5725 16.8749 17.5 16.875ZM5.58125 11.25L17.5 15.5875L29.4187 11.25L17.5 6.91248L5.58125 11.25ZM20.625 30.9687C20.4781 30.9686 20.3359 30.9166 20.2235 30.8221C20.111 30.7275 20.0355 30.5963 20.0101 30.4516C19.9848 30.3069 20.0112 30.1579 20.0848 30.0307C20.1584 29.9035 20.2744 29.8064 20.4125 29.7562L22.9125 28.85C23.0553 28.8273 23.2016 28.8548 23.3264 28.9278C23.4512 29.0008 23.5468 29.1149 23.597 29.2506C23.6471 29.3862 23.6486 29.535 23.6013 29.6717C23.554 29.8083 23.4608 29.9244 23.3375 30L20.8375 30.9062C20.771 30.9395 20.699 30.9607 20.625 30.9687ZM20.625 28.4687C20.4781 28.4686 20.3359 28.4166 20.2235 28.3221C20.111 28.2275 20.0355 28.0963 20.0101 27.9516C19.9848 27.8069 20.0112 27.6579 20.0848 27.5307C20.1584 27.4035 20.2744 27.3064 20.4125 27.2562L21.6625 26.8C21.817 26.749 21.9853 26.7603 22.1316 26.8314C22.2779 26.9025 22.3908 27.0279 22.4461 27.1809C22.5015 27.3339 22.4949 27.5025 22.428 27.6507C22.361 27.799 22.2389 27.9153 22.0875 27.975L20.8375 28.4312C20.7694 28.456 20.6975 28.4686 20.625 28.4687Z" fill="#ED9121"/>
<path d="M30.3125 28.125C29.199 28.1245 28.1039 27.8407 27.1303 27.3003C26.1568 26.7598 25.3367 25.9806 24.7474 25.0358C24.158 24.0911 23.8188 23.0119 23.7615 21.8999C23.7043 20.7878 23.931 19.6795 24.4202 18.6792C24.9094 17.679 25.6451 16.8196 26.558 16.1821C27.471 15.5446 28.5311 15.1498 29.6387 15.035C30.7462 14.9202 31.8648 15.0891 32.8891 15.5258C33.9134 15.9625 34.8097 16.6526 35.4937 17.5313C35.5957 17.6622 35.6414 17.8283 35.6209 17.993C35.6004 18.1576 35.5153 18.3074 35.3844 18.4094C35.2534 18.5113 35.0873 18.5571 34.9226 18.5366C34.758 18.516 34.6082 18.431 34.5062 18.3C33.8833 17.5021 33.0454 16.8988 32.0912 16.5611C31.137 16.2234 30.1061 16.1653 29.12 16.3937C28.1339 16.6221 27.2335 17.1275 26.525 17.8503C25.8164 18.5732 25.3291 19.4834 25.1204 20.4739C24.9117 21.4644 24.9903 22.4939 25.347 23.4412C25.7037 24.3885 26.3236 25.2142 27.1337 25.8211C27.9439 26.4279 28.9105 26.7907 29.9199 26.8667C30.9293 26.9427 31.9394 26.7287 32.8312 26.25C32.9771 26.1713 33.1483 26.1537 33.3071 26.2012C33.4659 26.2486 33.5994 26.3573 33.6781 26.5031C33.7568 26.649 33.7744 26.8202 33.7269 26.979C33.6795 27.1378 33.5709 27.2713 33.425 27.35C32.4673 27.8611 31.398 28.1273 30.3125 28.125Z" fill="#333333"/>
<path d="M35 18.75H32.5C32.3342 18.75 32.1753 18.6842 32.0581 18.5669C31.9408 18.4497 31.875 18.2908 31.875 18.125C31.875 17.9592 31.9408 17.8003 32.0581 17.6831C32.1753 17.5658 32.3342 17.5 32.5 17.5H34.375V15.625C34.375 15.4592 34.4408 15.3003 34.5581 15.1831C34.6753 15.0658 34.8342 15 35 15C35.1658 15 35.3247 15.0658 35.4419 15.1831C35.5592 15.3003 35.625 15.4592 35.625 15.625V18.125C35.625 18.2908 35.5592 18.4497 35.4419 18.5669C35.3247 18.6842 35.1658 18.75 35 18.75Z" fill="#333333"/>
</svg>
