<svg width="54" height="52" viewBox="0 0 54 52" fill="none" xmlns="http://www.w3.org/2000/svg">
<path d="M39.3379 8.60936C39.7535 10.7312 41.6129 12.2844 43.7785 12.2844C45.9442 12.2844 47.8035 10.7312 48.2192 8.60936L48.766 5.83124C48.941 4.47499 48.5473 3.11874 47.6504 2.09061C46.7535 1.06249 45.4629 0.471863 44.1067 0.471863H43.4723C42.116 0.471863 40.8254 1.06249 39.9285 2.09061C39.0317 3.11874 38.616 4.47499 38.8129 5.89686L39.3379 8.60936ZM41.5692 3.53436C42.0504 2.98749 42.7504 2.65936 43.4942 2.65936H44.1285C44.8723 2.65936 45.5504 2.96561 46.0535 3.53436C46.5348 4.08124 46.7535 4.82499 46.666 5.48124L46.141 8.19374C45.9223 9.30936 44.9598 10.0969 43.8223 10.0969C42.6848 10.0969 41.7223 9.28749 41.5035 8.19374L40.9785 5.54686C40.8692 4.82499 41.0879 4.08124 41.5692 3.53436Z" fill="black"/>
<path d="M53.9719 23.025L52.725 17.1187C52.5719 16.3969 52.0469 15.8062 51.3687 15.5656L47.0594 14.0344L43.8219 17.2719L40.5844 14.0344L36.275 15.5656C35.5969 15.8062 35.0719 16.3969 34.9187 17.1187L33.6719 23.025C33.5406 23.6156 33.9125 24.1844 34.5031 24.3156C35.0937 24.4469 35.6625 24.075 35.7937 23.4844L37.0187 17.6219L40.0375 16.55L43.8437 20.3562L47.65 16.55L50.625 17.5781L51.8719 23.4844C51.9812 23.9875 52.4406 24.3375 52.9437 24.3375C53.0094 24.3375 53.0969 24.3375 53.1625 24.3156C53.7094 24.2062 54.0812 23.6156 53.9719 23.025Z" fill="black"/>
<path d="M5.75979 8.60936C6.17541 10.7312 8.03479 12.2844 10.2004 12.2844C12.366 12.2844 14.2254 10.7312 14.641 8.60936L15.1879 5.83124C15.3629 4.47499 14.9692 3.11874 14.0723 2.09061C13.1754 1.06249 11.8848 0.471863 10.5285 0.471863H9.89416C8.53791 0.471863 7.24729 1.06249 6.35041 2.09061C5.45354 3.11874 5.03791 4.47499 5.23479 5.89686L5.75979 8.60936ZM7.99104 3.53436C8.47229 2.98749 9.17229 2.65936 9.91604 2.65936H10.5504C11.2942 2.65936 11.9723 2.96561 12.4754 3.53436C12.9567 4.08124 13.1754 4.82499 13.0879 5.48124L12.5629 8.19374C12.3442 9.30936 11.3817 10.0969 10.2442 10.0969C9.10666 10.0969 8.14416 9.28749 7.92541 8.19374L7.40041 5.54686C7.26916 4.82499 7.50979 4.08124 7.99104 3.53436Z" fill="black"/>
<path d="M14.0282 16.55L17.0032 17.5781L18.25 23.4844C18.3594 23.9875 18.8188 24.3375 19.3219 24.3375C19.3875 24.3375 19.475 24.3375 19.5407 24.3156C20.1313 24.1844 20.5032 23.6156 20.3719 23.025L19.125 17.1187C18.9719 16.3969 18.4469 15.8062 17.7688 15.5656L13.4594 14.0344L10.2 17.2937L6.96253 14.0344L2.65316 15.5656C1.97503 15.8062 1.45003 16.3969 1.2969 17.1187L0.0500298 23.025C-0.0812203 23.6156 0.290655 24.1844 0.88128 24.3156C1.4719 24.4469 2.04065 24.075 2.1719 23.4844L3.37503 17.6219L6.39378 16.55L10.2 20.3562L14.0282 16.55Z" fill="black"/>
<path d="M27 39.4531C29.1656 39.4531 31.025 37.9 31.4406 35.7781L31.9875 33C32.1625 31.6438 31.7687 30.2875 30.8718 29.2594C29.975 28.2312 28.6843 27.6406 27.3281 27.6406H26.6937C25.3375 27.6406 24.0468 28.2312 23.15 29.2594C22.2531 30.2875 21.8375 31.6438 22.0343 33.0656L22.5593 35.7781C22.975 37.9 24.8343 39.4531 27 39.4531ZM24.7687 30.7031C25.25 30.1562 25.95 29.8281 26.6937 29.8281H27.3281C28.0718 29.8281 28.75 30.1344 29.2531 30.7031C29.7343 31.25 29.9531 31.9937 29.8656 32.65L29.3406 35.3625C29.1218 36.4781 28.1593 37.2656 27.0218 37.2656C25.8843 37.2656 24.9218 36.4563 24.7031 35.3625L24.1781 32.7156C24.0687 31.9937 24.2875 31.25 24.7687 30.7031Z" fill="black"/>
<path d="M35.9251 44.3093C35.772 43.5875 35.247 42.9969 34.5688 42.7562L30.2595 41.225L27.0001 44.4625L23.7626 41.225L19.4532 42.7562C18.7751 42.9969 18.2501 43.5875 18.097 44.3093L16.8501 50.2156C16.7188 50.8062 17.0907 51.375 17.6813 51.5062C18.272 51.6375 18.8407 51.2656 18.972 50.675L20.1751 44.8125L23.1938 43.7406L27.0001 47.5468L30.8063 43.7406L33.7813 44.7687L35.0282 50.675C35.1376 51.1781 35.597 51.5281 36.1001 51.5281C36.1657 51.5281 36.2532 51.5281 36.3188 51.5062C36.9095 51.375 37.2813 50.8062 37.1501 50.2156L35.9251 44.3093Z" fill="black"/>
<path d="M45.6812 27.2031C45.0687 27.1375 44.5437 27.575 44.5 28.1875C44.0625 32.7156 41.8969 36.8281 38.4406 39.7812C37.9812 40.175 37.9375 40.8531 38.3094 41.3125C38.5281 41.575 38.8344 41.6844 39.1406 41.6844C39.3812 41.6844 39.6437 41.5969 39.8406 41.4219C43.7344 38.0969 46.1625 33.4812 46.6656 28.3844C46.7094 27.7937 46.2719 27.2687 45.6812 27.2031Z" fill="#ED9121"/>
<path d="M9.52142 28.1875C9.4558 27.5968 8.9308 27.1593 8.34017 27.2031C7.74955 27.2687 7.31205 27.7937 7.3558 28.3843C7.85892 33.4812 10.287 38.1187 14.1808 41.4218C14.3777 41.5968 14.6402 41.6843 14.8808 41.6843C15.187 41.6843 15.4933 41.5531 15.712 41.2906C16.1058 40.8312 16.0402 40.1531 15.5808 39.7593C12.1245 36.8281 9.95892 32.7156 9.52142 28.1875Z" fill="#ED9121"/>
<path d="M21.2468 9.83434C24.8999 8.54371 29.0999 8.54371 32.7749 9.83434C32.8843 9.87809 33.0156 9.89996 33.1468 9.89996C33.5843 9.89996 34.0218 9.61559 34.175 9.17809C34.3718 8.60934 34.0875 7.99684 33.5187 7.79996C29.3843 6.33434 24.6812 6.33434 20.5468 7.79996C19.9781 7.99684 19.6937 8.63121 19.8906 9.17809C20.0437 9.74684 20.6781 10.0312 21.2468 9.83434Z" fill="#ED9121"/>
</svg>
