<svg width="50" height="61" viewBox="0 0 50 61" fill="none" xmlns="http://www.w3.org/2000/svg">
<path d="M0.741665 33.382C1.28767 35.063 2.71067 36.135 4.08767 37.172C4.89708 37.717 5.62674 38.3719 6.25566 39.118C6.77933 39.9578 7.18323 40.8666 7.45567 41.818C8.01667 43.436 8.59766 45.108 10.0047 46.133C11.4337 47.174 13.2547 47.186 14.9957 47.226C14.9957 47.226 15.0447 54.478 14.9957 56.895C14.9487 59.212 17.6957 60.924 19.5837 59.523C20.8577 58.579 24.5777 55.614 24.5777 55.614C24.7071 55.548 24.8504 55.5136 24.9957 55.5136C25.141 55.5136 25.2842 55.548 25.4137 55.614C25.4137 55.614 29.1337 58.579 30.4077 59.523C32.2987 60.923 35.0437 59.212 34.9957 56.895C34.9457 54.478 34.9957 47.226 34.9957 47.226C36.7377 47.186 38.5577 47.174 39.9867 46.133C41.3937 45.108 41.9747 43.433 42.5357 41.818C42.8079 40.8665 43.2118 39.9577 43.7357 39.118C44.3646 38.3719 45.0942 37.717 45.9037 37.172C47.2807 36.135 48.7037 35.062 49.2497 33.381C49.7717 31.771 49.2687 30.1 48.7817 28.481C48.4362 27.5205 48.2265 26.5165 48.1587 25.498C48.2265 24.4795 48.4362 23.4755 48.7817 22.515C49.2687 20.898 49.7717 19.227 49.2497 17.615C48.7037 15.935 47.2807 14.862 45.9037 13.825C45.0942 13.28 44.3646 12.6251 43.7357 11.879C43.212 11.0392 42.8081 10.1304 42.5357 9.179C41.9787 7.567 41.3997 5.9 39.9907 4.87C38.5817 3.84 36.8337 3.817 35.1297 3.781C34.13 3.8121 33.1308 3.7044 32.1607 3.461C31.2741 3.09962 30.4421 2.61666 29.6887 2.026C28.3347 1.076 26.7997 0 24.9997 0C23.1997 0 21.6647 1.076 20.3107 2.026C19.5572 2.61666 18.7252 3.09962 17.8387 3.461C16.8682 3.70446 15.8687 3.81215 14.8687 3.781C13.1687 3.817 11.4027 3.855 10.0087 4.87C8.61467 5.885 8.02067 7.57 7.45967 9.185C7.18743 10.1365 6.78352 11.0453 6.25967 11.885C5.63074 12.6311 4.90108 13.286 4.09167 13.831C2.71467 14.868 1.29167 15.941 0.745665 17.622C0.223665 19.232 0.726665 20.903 1.21366 22.522C1.55728 23.4811 1.76562 24.4834 1.83267 25.5C1.76479 26.5185 1.5551 27.5225 1.20967 28.483C0.722665 30.1 0.219665 31.771 0.741665 33.382ZM32.9997 56.892C33.016 57.0672 32.9859 57.2435 32.9123 57.4033C32.8388 57.5631 32.7243 57.7007 32.5806 57.8021C32.4369 57.9036 32.2689 57.9653 32.0937 57.9811C31.9185 57.9968 31.7422 57.9661 31.5827 57.892L26.5877 53.983C26.1162 53.6728 25.5641 53.5074 24.9997 53.5074C24.4352 53.5074 23.8832 53.6728 23.4117 53.983L18.4167 57.9C18.2571 57.9741 18.0808 58.0048 17.9056 57.9891C17.7304 57.9733 17.5625 57.9116 17.4187 57.8101C17.275 57.7087 17.1606 57.5711 17.087 57.4113C17.0134 57.2515 16.9833 57.0752 16.9997 56.9V47.355C18.2244 47.6003 19.365 48.158 20.3107 48.974C21.6647 49.924 23.1997 51 24.9997 51C26.7997 51 28.3347 49.924 29.6887 48.974C30.6346 48.1584 31.7751 47.6007 32.9997 47.355V56.892ZM3.12467 21.94C2.70767 20.557 2.31467 19.251 2.64467 18.24C2.99467 17.16 4.10967 16.319 5.29067 15.429C6.26213 14.7705 7.13201 13.9734 7.87267 13.063C8.51962 12.0665 9.01723 10.9806 9.34967 9.84C9.83067 8.453 10.2847 7.14 11.1867 6.487C12.0727 5.841 13.4517 5.812 14.9117 5.781C16.1069 5.81381 17.3007 5.67335 18.4557 5.364C19.5333 4.94691 20.5441 4.37416 21.4557 3.664C22.6787 2.808 23.8307 2 24.9997 2C26.1687 2 27.3207 2.808 28.5417 3.664C29.4533 4.37416 30.464 4.94691 31.5417 5.364C32.6963 5.67344 33.8898 5.81357 35.0847 5.78C36.5457 5.812 37.9247 5.841 38.8107 6.487C39.7107 7.143 40.1667 8.453 40.6477 9.84C40.9805 10.9793 41.4781 12.0637 42.1247 13.059C42.8655 13.9689 43.735 14.7659 44.7057 15.425C45.8877 16.314 47.0057 17.155 47.3527 18.235C47.6827 19.25 47.2897 20.557 46.8727 21.94C46.4654 23.0861 46.2269 24.2853 46.1647 25.5C46.2268 26.7147 46.4653 27.9139 46.8727 29.06C47.2897 30.443 47.6827 31.749 47.3527 32.76C47.0027 33.84 45.8877 34.681 44.7067 35.571C43.7352 36.2295 42.8653 37.0266 42.1247 37.937C41.4784 38.9336 40.9815 40.0195 40.6497 41.16C40.1687 42.547 39.7147 43.86 38.8127 44.513C37.9267 45.159 36.5477 45.188 35.0877 45.219C33.8924 45.1862 32.6987 45.3267 31.5437 45.636C30.466 46.0531 29.4553 46.6258 28.5437 47.336C27.3207 48.192 26.1687 49 24.9997 49C23.8307 49 22.6787 48.192 21.4577 47.336C20.5461 46.6258 19.5353 46.0531 18.4577 45.636C17.303 45.3266 16.1096 45.1864 14.9147 45.22C13.4537 45.188 12.0747 45.159 11.1887 44.513C10.2887 43.857 9.83266 42.547 9.35166 41.16C9.01886 40.0207 8.52127 38.9363 7.87467 37.941C7.13385 37.0311 6.26438 36.2341 5.29366 35.575C4.11166 34.686 2.99367 33.845 2.64667 32.765C2.31667 31.75 2.70967 30.443 3.12667 29.06C3.53397 27.9139 3.77247 26.7147 3.83467 25.5C3.77191 24.2852 3.53273 23.086 3.12467 21.94Z" fill="black"/>
<path d="M25 44C28.659 44 32.2357 42.915 35.278 40.8822C38.3204 38.8494 40.6915 35.9601 42.0918 32.5797C43.492 29.1992 43.8584 25.4795 43.1445 21.8908C42.4307 18.3022 40.6687 15.0058 38.0815 12.4185C35.4942 9.83126 32.1978 8.06931 28.6092 7.35548C25.0205 6.64165 21.3008 7.00802 17.9204 8.40824C14.5399 9.80846 11.6506 12.1796 9.61781 15.222C7.58501 18.2643 6.5 21.8411 6.5 25.5C6.50556 30.4048 8.45644 35.1071 11.9247 38.5753C15.3929 42.0436 20.0952 43.9944 25 44ZM25 9.00001C28.2634 9.00001 31.4535 9.96772 34.1669 11.7808C36.8803 13.5938 38.9952 16.1708 40.244 19.1857C41.4929 22.2007 41.8196 25.5183 41.183 28.719C40.5463 31.9197 38.9748 34.8597 36.6673 37.1673C34.3597 39.4748 31.4197 41.0463 28.219 41.683C25.0183 42.3196 21.7007 41.9929 18.6857 40.744C15.6707 39.4952 13.0938 37.3803 11.2808 34.6669C9.46771 31.9535 8.5 28.7634 8.5 25.5C8.50503 21.1255 10.245 16.9316 13.3383 13.8383C16.4316 10.745 20.6255 9.00504 25 9.00001Z" fill="black"/>
<path d="M19 24C19.7911 24 20.5645 23.7654 21.2223 23.3259C21.8801 22.8864 22.3928 22.2616 22.6955 21.5307C22.9983 20.7998 23.0775 19.9956 22.9231 19.2196C22.7688 18.4437 22.3878 17.731 21.8284 17.1716C21.269 16.6122 20.5563 16.2312 19.7804 16.0769C19.0044 15.9225 18.2002 16.0017 17.4693 16.3045C16.7384 16.6072 16.1136 17.1199 15.6741 17.7777C15.2346 18.4355 15 19.2089 15 20C15 21.0609 15.4214 22.0783 16.1716 22.8284C16.9217 23.5786 17.9391 24 19 24ZM19 18C19.3956 18 19.7822 18.1173 20.1111 18.3371C20.44 18.5568 20.6964 18.8692 20.8478 19.2346C20.9991 19.6001 21.0387 20.0022 20.9616 20.3902C20.8844 20.7781 20.6939 21.1345 20.4142 21.4142C20.1345 21.6939 19.7781 21.8844 19.3902 21.9616C19.0022 22.0387 18.6001 21.9991 18.2346 21.8478C17.8692 21.6964 17.5568 21.44 17.3371 21.1111C17.1173 20.7822 17 20.3956 17 20C17 19.4696 17.2107 18.9609 17.5858 18.5858C17.9609 18.2107 18.4696 18 19 18Z" fill="#ED9121"/>
<path d="M31 28C30.2089 28 29.4355 28.2346 28.7777 28.6741C28.1199 29.1136 27.6072 29.7384 27.3045 30.4693C27.0017 31.2002 26.9225 32.0044 27.0769 32.7804C27.2312 33.5563 27.6122 34.269 28.1716 34.8284C28.731 35.3878 29.4437 35.7688 30.2196 35.9231C30.9956 36.0775 31.7998 35.9983 32.5307 35.6955C33.2616 35.3928 33.8864 34.8801 34.3259 34.2223C34.7654 33.5645 35 32.7911 35 32C35 30.9391 34.5786 29.9217 33.8284 29.1716C33.0783 28.4214 32.0609 28 31 28ZM31 34C30.6044 34 30.2178 33.8827 29.8889 33.6629C29.56 33.4432 29.3036 33.1308 29.1522 32.7654C29.0009 32.3999 28.9613 31.9978 29.0384 31.6098C29.1156 31.2219 29.3061 30.8655 29.5858 30.5858C29.8655 30.3061 30.2219 30.1156 30.6098 30.0384C30.9978 29.9613 31.3999 30.0009 31.7654 30.1522C32.1308 30.3036 32.4432 30.56 32.6629 30.8889C32.8827 31.2178 33 31.6044 33 32C33 32.5304 32.7893 33.0391 32.4142 33.4142C32.0391 33.7893 31.5304 34 31 34Z" fill="#ED9121"/>
<path d="M15.8816 32C15.8808 32.6165 16.0633 33.2193 16.4059 33.7319C16.7484 34.2445 17.2356 34.6437 17.8055 34.8788C18.3754 35.1139 19.0023 35.1743 19.6067 35.0524C20.211 34.9305 20.7654 34.6317 21.1996 34.194L33.1206 22.122C33.677 21.5561 33.9888 20.7942 33.9888 20.0005C33.9888 19.2068 33.677 18.445 33.1206 17.879C32.5477 17.3379 31.7896 17.0365 31.0016 17.0365C30.2136 17.0365 29.4555 17.3379 28.8826 17.879L16.8056 29.8C16.5136 30.0873 16.2816 30.4297 16.123 30.8074C15.9644 31.185 15.8823 31.5904 15.8816 32ZM18.2106 31.22L30.2936 19.292C30.385 19.1921 30.4958 19.1118 30.6192 19.0559C30.7426 19.0001 30.8761 18.9699 31.0115 18.9672C31.1469 18.9645 31.2815 18.9894 31.407 19.0402C31.5325 19.0911 31.6464 19.167 31.7418 19.2632C31.8371 19.3594 31.9119 19.474 31.9616 19.6C32.0113 19.726 32.0349 19.8607 32.031 19.9961C32.027 20.1315 31.9956 20.2647 31.9387 20.3876C31.8817 20.5105 31.8004 20.6205 31.6996 20.711L19.7796 32.788C19.5717 32.9961 19.2896 33.113 18.9954 33.1131C18.7013 33.1132 18.4192 32.9964 18.2111 32.7885C18.003 32.5806 17.8861 32.2985 17.886 32.0044C17.8859 31.7102 18.0027 31.4281 18.2106 31.22Z" fill="#ED9121"/>
</svg>
