<svg width="54" height="54" viewBox="0 0 54 54" fill="none" xmlns="http://www.w3.org/2000/svg">
<path d="M48.1665 23.9398V22.7616C48.1665 21.8616 47.4384 21.1334 46.5384 21.1334C45.9165 21.1334 45.3847 21.4852 45.1065 21.9925L28.5711 15.4225C28.5711 15.398 28.5793 15.3816 28.5793 15.3571C28.5793 15.128 28.3993 14.948 28.1702 14.948C28.0311 14.948 27.9084 15.0216 27.8347 15.128L27.1474 14.858C27.0493 14.8171 26.9429 14.8171 26.8447 14.858L24.6847 15.717C24.6602 15.6025 24.6356 15.4798 24.6356 15.3571C24.6356 14.498 25.3393 13.8025 26.1984 13.8025C26.4274 13.8025 26.6074 13.6225 26.6074 13.3934V11.7652H28.2029C28.3502 11.7652 28.4811 11.6834 28.5547 11.5607L30.5674 8.07523C30.6411 7.95251 30.6411 7.78887 30.5674 7.66614L28.5547 4.18069C28.4811 4.05796 28.3502 3.97614 28.2029 3.97614H27.8674V2.70796C27.8674 2.47887 27.6874 2.29887 27.4584 2.29887C27.2293 2.29887 27.0493 2.47887 27.0493 2.70796V3.97614H25.3311V1.63614C25.3311 1.40705 25.1511 1.22705 24.922 1.22705C24.6929 1.22705 24.5129 1.40705 24.5129 1.63614V3.97614H24.1774C24.0302 3.97614 23.8993 4.05796 23.8256 4.18069L21.8129 7.66614C21.7393 7.78887 21.7393 7.95251 21.8129 8.07523L23.8256 11.5607C23.8993 11.6834 24.0302 11.7652 24.1774 11.7652H25.7811V13.0252C24.6602 13.2216 23.8093 14.1952 23.8093 15.3652C23.8093 15.5943 23.8502 15.8152 23.9156 16.028L8.92653 21.9843C8.64835 21.4852 8.11653 21.1416 7.51108 21.1416C6.61108 21.1416 5.8829 21.8698 5.8829 22.7698V23.9316C5.38381 24.0952 5.01562 24.5616 5.01562 25.118V51.5207C5.01562 52.2161 5.58017 52.7807 6.27562 52.7807H47.7084C48.4038 52.7807 48.9683 52.2161 48.9683 51.5207V25.1098C48.9683 24.578 48.6411 24.1198 48.1665 23.9398ZM24.4311 10.9389L22.6556 7.8625L24.4311 4.78614H27.9738L29.7493 7.8625L27.9738 10.9389H24.4311ZM45.7202 22.7616C45.7202 22.3116 46.0883 21.9516 46.5302 21.9516C46.9802 21.9516 47.3402 22.3198 47.3402 22.7616V23.8498H45.712V22.7616H45.7202ZM27.0002 15.6761L27.6465 15.9298C27.4174 16.5025 26.8611 16.9116 26.2065 16.9116C25.7647 16.9116 25.372 16.7234 25.0856 16.4289L27.0002 15.6761ZM9.15562 22.7698L24.292 16.7561C24.7256 17.3452 25.4211 17.738 26.2065 17.738C27.2047 17.738 28.0556 17.1161 28.4074 16.2407L44.902 22.7943V23.8743C44.542 23.9152 44.2147 24.0952 44.002 24.398L42.202 26.9916C42.1202 27.1061 41.9893 27.1798 41.842 27.1798H12.142C11.9947 27.1798 11.8638 27.1061 11.782 26.9916L9.98199 24.398C9.78562 24.1116 9.4829 23.9398 9.14744 23.8825V22.7698H9.15562ZM6.70926 22.7616C6.70926 22.3116 7.07744 21.9516 7.51926 21.9516C7.96926 21.9516 8.32926 22.3198 8.32926 22.7616V23.8498H6.70926V22.7616ZM48.1502 51.5125C48.1502 51.758 47.9538 51.9543 47.7084 51.9543H6.28381C6.03835 51.9543 5.84199 51.758 5.84199 51.5125V25.1098C5.84199 24.8643 6.03835 24.668 6.28381 24.668C6.29199 24.668 6.29199 24.668 6.30017 24.668C6.30835 24.668 6.30835 24.668 6.31653 24.668H8.73017C8.73835 24.668 8.73835 24.668 8.74653 24.668C8.75472 24.668 8.75472 24.668 8.7629 24.668H8.95926C9.10653 24.668 9.23744 24.7416 9.31926 24.8561L11.1193 27.4498C11.3565 27.7852 11.7411 27.9898 12.1502 27.9898H41.8584C42.2674 27.9898 42.6602 27.7852 42.8893 27.4498L44.6893 24.8561C44.7711 24.7416 44.9102 24.668 45.0493 24.668H45.3111C45.3193 24.668 45.3193 24.668 45.3274 24.668C45.3356 24.668 45.3356 24.668 45.3438 24.668H47.7329C47.9784 24.668 48.1747 24.8643 48.1747 25.1098V51.5125H48.1502Z" fill="black" stroke="black" stroke-width="0.5"/>
<path d="M10.292 30.6323C9.1793 30.6323 8.2793 31.5323 8.2793 32.6451V47.8141C8.2793 48.9269 9.1793 49.8269 10.292 49.8269C11.4048 49.8269 12.3048 48.9269 12.3048 47.8141V32.6451C12.3048 31.5323 11.4048 30.6323 10.292 30.6323ZM11.4866 47.8141C11.4866 48.4769 10.9466 49.0087 10.292 49.0087C9.63748 49.0087 9.09748 48.4687 9.09748 47.8141V32.6451C9.09748 31.9823 9.63748 31.4505 10.292 31.4505C10.9466 31.4505 11.4866 31.9905 11.4866 32.6451V47.8141Z" fill="#ED9121" stroke="#ED9121" stroke-width="0.5"/>
<path d="M16.9776 30.6323C15.8648 30.6323 14.9648 31.5323 14.9648 32.6451V47.8141C14.9648 48.9269 15.8648 49.8269 16.9776 49.8269C18.0903 49.8269 18.9903 48.9269 18.9903 47.8141V32.6451C18.9903 31.5323 18.0821 30.6323 16.9776 30.6323ZM18.1721 47.8141C18.1721 48.4769 17.6321 49.0087 16.9776 49.0087C16.323 49.0087 15.783 48.4687 15.783 47.8141V32.6451C15.783 31.9823 16.323 31.4505 16.9776 31.4505C17.6321 31.4505 18.1721 31.9905 18.1721 32.6451V47.8141Z" fill="#ED9121" stroke="#ED9121" stroke-width="0.5"/>
<path d="M23.6612 30.6323C22.5484 30.6323 21.6484 31.5323 21.6484 32.6451V47.8141C21.6484 48.9269 22.5484 49.8269 23.6612 49.8269C24.7739 49.8269 25.6739 48.9269 25.6739 47.8141V32.6451C25.6739 31.5323 24.7657 30.6323 23.6612 30.6323ZM24.8557 47.8141C24.8557 48.4769 24.3157 49.0087 23.6612 49.0087C23.0066 49.0087 22.4666 48.4687 22.4666 47.8141V32.6451C22.4666 31.9823 23.0066 31.4505 23.6612 31.4505C24.3157 31.4505 24.8557 31.9905 24.8557 32.6451V47.8141Z" fill="black" stroke="black" stroke-width="0.5"/>
<path d="M30.3389 30.6323C29.2262 30.6323 28.3262 31.5323 28.3262 32.6451V47.8141C28.3262 48.9269 29.2262 49.8269 30.3389 49.8269C31.4516 49.8269 32.3516 48.9269 32.3516 47.8141V32.6451C32.3598 31.5323 31.4516 30.6323 30.3389 30.6323ZM31.5416 47.8141C31.5416 48.4769 31.0016 49.0087 30.3471 49.0087C29.6925 49.0087 29.1525 48.4687 29.1525 47.8141V32.6451C29.1525 31.9823 29.6925 31.4505 30.3471 31.4505C31.0016 31.4505 31.5416 31.9905 31.5416 32.6451V47.8141Z" fill="black" stroke="black" stroke-width="0.5"/>
<path d="M37.0225 30.6323C35.9098 30.6323 35.0098 31.5323 35.0098 32.6451V47.8141C35.0098 48.9269 35.9098 49.8269 37.0225 49.8269C38.1352 49.8269 39.0352 48.9269 39.0352 47.8141V32.6451C39.0434 31.5323 38.1352 30.6323 37.0225 30.6323ZM38.2252 47.8141C38.2252 48.4769 37.6852 49.0087 37.0307 49.0087C36.3761 49.0087 35.8361 48.4687 35.8361 47.8141V32.6451C35.8361 31.9823 36.3761 31.4505 37.0307 31.4505C37.6852 31.4505 38.2252 31.9905 38.2252 32.6451V47.8141Z" fill="#ED9121" stroke="#ED9121" stroke-width="0.5"/>
<path d="M43.708 30.6323C42.5953 30.6323 41.6953 31.5323 41.6953 32.6451V47.8141C41.6953 48.9269 42.5953 49.8269 43.708 49.8269C44.8208 49.8269 45.7208 48.9269 45.7208 47.8141V32.6451C45.7208 31.5323 44.8208 30.6323 43.708 30.6323ZM44.9026 47.8141C44.9026 48.4769 44.3626 49.0087 43.708 49.0087C43.0535 49.0087 42.5135 48.4687 42.5135 47.8141V32.6451C42.5135 31.9823 43.0535 31.4505 43.708 31.4505C44.3626 31.4505 44.9026 31.9905 44.9026 32.6451V47.8141Z" fill="#ED9121" stroke="#ED9121" stroke-width="0.5"/>
<path d="M26.2066 6.19336C25.282 6.19336 24.5293 6.94609 24.5293 7.86245C24.5293 8.77881 25.282 9.53154 26.2066 9.53154C27.1311 9.53154 27.8757 8.77881 27.8757 7.86245C27.8757 6.94609 27.1229 6.19336 26.2066 6.19336ZM26.2066 8.72154C25.732 8.72154 25.3475 8.337 25.3475 7.87063C25.3475 7.40427 25.732 7.01972 26.2066 7.01972C26.6811 7.01972 27.0575 7.40427 27.0575 7.87063C27.0575 8.337 26.6729 8.72154 26.2066 8.72154Z" fill="black" stroke="black" stroke-width="0.5"/>
</svg>
