<svg width="46" height="46" viewBox="0 0 46 46" fill="none" xmlns="http://www.w3.org/2000/svg">
<path d="M37.7855 41.0991C37.7855 42.5253 36.6118 43.7002 35.1855 43.7002" stroke="black" stroke-width="2" stroke-miterlimit="2.6131" stroke-linecap="round" stroke-linejoin="round"/>
<path d="M35.1865 43.7007H6.79297" stroke="black" stroke-width="2" stroke-miterlimit="2.6131" stroke-linecap="round" stroke-linejoin="round"/>
<path d="M6.79261 43.7002C5.36763 43.7002 4.19141 42.5316 4.19141 41.0991" stroke="black" stroke-width="2" stroke-miterlimit="2.6131" stroke-linecap="round" stroke-linejoin="round"/>
<path d="M4.19141 41.0992V12.7147L15.4495 2.2998H35.186" stroke="black" stroke-width="2" stroke-miterlimit="2.6131" stroke-linecap="round" stroke-linejoin="round"/>
<path d="M35.1855 2.2998C36.6182 2.2998 37.7855 3.47602 37.7855 4.89972" stroke="black" stroke-width="2" stroke-miterlimit="2.6131" stroke-linecap="round" stroke-linejoin="round"/>
<path d="M37.7852 4.89941V22.1139" stroke="black" stroke-width="2" stroke-miterlimit="2.6131" stroke-linecap="round" stroke-linejoin="round"/>
<path d="M15.9668 2.2998V11.902" stroke="black" stroke-width="2" stroke-miterlimit="2.6131" stroke-linecap="round" stroke-linejoin="round"/>
<path d="M15.9667 11.9019C15.9667 12.6634 15.339 13.2936 14.5762 13.2936" stroke="black" stroke-width="2" stroke-miterlimit="2.6131" stroke-linecap="round" stroke-linejoin="round"/>
<path d="M14.5757 13.2939H4.19141" stroke="black" stroke-width="2" stroke-miterlimit="2.6131" stroke-linecap="round" stroke-linejoin="round"/>
<path d="M22.5996 6.71387H32.5846" stroke="black" stroke-width="2" stroke-miterlimit="2.6131" stroke-linecap="round" stroke-linejoin="round"/>
<path d="M32.5859 6.71387C32.924 6.71387 33.2047 7.02004 33.2047 7.38869" stroke="black" stroke-width="2" stroke-miterlimit="2.6131" stroke-linecap="round" stroke-linejoin="round"/>
<path d="M33.2031 7.38867V13.0923" stroke="black" stroke-width="2" stroke-miterlimit="2.6131" stroke-linecap="round" stroke-linejoin="round"/>
<path d="M33.2028 13.0923C33.2028 13.4648 32.9221 13.7671 32.584 13.7671" stroke="black" stroke-width="2" stroke-miterlimit="2.6131" stroke-linecap="round" stroke-linejoin="round"/>
<path d="M32.5846 13.7671H22.5996" stroke="black" stroke-width="2" stroke-miterlimit="2.6131" stroke-linecap="round" stroke-linejoin="round"/>
<path d="M22.6005 13.7671C22.2585 13.7671 21.9805 13.4648 21.9805 13.0923" stroke="black" stroke-width="2" stroke-miterlimit="2.6131" stroke-linecap="round" stroke-linejoin="round"/>
<path d="M21.9805 13.0923V7.38867" stroke="black" stroke-width="2" stroke-miterlimit="2.6131" stroke-linecap="round" stroke-linejoin="round"/>
<path d="M21.9805 7.38869C21.9805 7.02004 22.2585 6.71387 22.6005 6.71387" stroke="black" stroke-width="2" stroke-miterlimit="2.6131" stroke-linecap="round" stroke-linejoin="round"/>
<path d="M8 22H32.9619" stroke="black" stroke-width="2" stroke-miterlimit="2.6131" stroke-linecap="round" stroke-linejoin="round"/>
<path d="M8.29883 29.0015H25.4648" stroke="#ED9121" stroke-width="2" stroke-miterlimit="2.6131" stroke-linecap="round" stroke-linejoin="round"/>
<path d="M8.29883 37.6572H26.6921" stroke="#ED9121" stroke-width="2" stroke-miterlimit="2.6131" stroke-linecap="round" stroke-linejoin="round"/>
<path d="M41.8078 31.4354C41.8078 34.7765 39.0995 37.4875 35.7584 37.4875C32.4148 37.4875 29.7051 34.7765 29.7051 31.4354C29.7051 28.0918 32.4148 25.3848 35.7584 25.3848C36.867 25.3848 37.9054 25.6832 38.8009 26.2038" stroke="#ED9121" stroke-width="2" stroke-miterlimit="2.6131" stroke-linecap="round" stroke-linejoin="round"/>
<path d="M33.1016 30.8335L36.176 33.6515" stroke="black" stroke-width="2" stroke-miterlimit="2.6131" stroke-linecap="round" stroke-linejoin="round"/>
<path d="M41.8079 27.5L36.1758 33.6514" stroke="#ED9121" stroke-width="2" stroke-miterlimit="2.6131" stroke-linecap="round" stroke-linejoin="round"/>
</svg>
