<svg width="60" height="60" viewBox="0 0 60 60" fill="none" xmlns="http://www.w3.org/2000/svg">
<path d="M56.787 37.4458C53.6253 36.1177 50.7794 34.2264 48.329 31.8262C46.8383 30.3646 44.271 30.3646 42.7754 31.8262C42.0522 32.5347 41.2846 33.1841 40.4947 33.8023C39.3202 33.3204 32.6798 31.8067 31.9262 31.573C30.4326 31.1085 29.2171 29.9717 28.6359 28.5428C33.2445 26.5382 35.6873 21.3572 36.0766 16.1479V15.3678H38.0354C38.6258 15.3678 39.1034 14.8894 39.1034 14.2997C39.1034 13.71 38.6258 13.2317 38.0354 13.2317H36.7004L36.5522 11.7298C36.2024 8.19471 33.7758 5.25904 30.37 4.24936L28.4231 3.67221V2.94354C28.4231 2.35385 27.9454 1.87549 27.355 1.87549H21.2764C20.6874 1.87549 20.2097 2.35244 20.2083 2.94072L20.2069 3.66529L18.2155 4.25627C14.8236 5.26174 12.399 8.18486 12.0374 11.7005L11.8796 13.2317H10.5718C9.98209 13.2317 9.50373 13.71 9.50373 14.2997C9.50373 14.8894 9.98209 15.3678 10.5718 15.3678H12.5813L12.5827 16.2286C12.9679 21.3435 15.3828 26.4805 19.9386 28.5075C19.3635 29.967 18.2044 31.1046 16.6775 31.5761C15.38 31.9766 10.343 33.0794 10.343 33.0794C10.3423 33.0794 10.3416 33.0794 10.3416 33.0794C9.64565 33.2337 3.52178 34.726 2.81537 39.6739C2.38916 42.6498 1.89194 45.4743 1.89123 45.4799C1.83627 45.79 1.92252 46.1099 2.12491 46.3519C2.32799 46.5939 2.62764 46.733 2.94334 46.733H35.6656C36.8769 49.1555 38.3364 51.4515 40.0497 53.5931L42.5049 56.661C43.2489 57.5914 44.3601 58.1254 45.5519 58.1254C46.7444 58.1254 47.8549 57.5914 48.5996 56.661L51.0562 53.5905C54.2749 49.5659 56.6251 45.0128 58.0408 40.0579C58.3446 38.995 57.805 37.8727 56.787 37.4458ZM38.358 35.3111C37.0751 36.1267 35.7331 36.8513 34.3161 37.4458C33.9107 37.6169 33.6097 37.9165 33.3795 38.26L34.33 34.389C34.43 34.4127 38.0193 35.2103 38.358 35.3111ZM29.763 6.29627C32.3322 7.05834 34.1623 9.27365 34.4266 11.941L34.5546 13.2315H28.4231V5.89924L29.763 6.29627ZM26.287 4.01146V13.2315H22.3222L22.3423 4.01146H26.287ZM14.1625 11.9201C14.4351 9.26674 16.2645 7.06256 18.8233 6.30318L20.2021 5.89432L20.1862 13.2314H14.0276L14.1625 11.9201ZM14.716 16.1478V15.3676H33.9419L33.9433 16.0671C33.5233 21.6521 30.3874 27.2856 24.3283 27.2856C18.2692 27.2856 15.1332 21.6519 14.716 16.1478ZM24.3282 29.4216C25.1306 29.4216 25.8829 29.3305 26.6013 29.1838C26.9907 30.2171 27.5977 31.1294 28.3716 31.8755L24.3568 35.1359L20.2772 31.8407C21.0338 31.0988 21.6255 30.1962 22.0052 29.1755C22.7381 29.3284 23.5071 29.4216 24.3282 29.4216ZM14.2842 34.3897L16.882 44.5965H10.1143V35.3542C10.4954 35.2367 13.3294 34.6102 14.2842 34.3897ZM4.9292 39.9768C5.18573 38.1829 6.60076 36.9917 7.97819 36.2428V44.5965H4.20885C4.39518 43.4771 4.67608 41.747 4.9292 39.9768ZM19.0862 44.5965L16.3591 33.8822C16.7095 33.7905 18.1008 33.3204 18.4736 33.1313L23.6879 37.3415C23.8832 37.4986 24.1211 37.5778 24.3589 37.5778C24.5974 37.5778 24.8358 37.4986 25.032 37.3387L30.1837 33.1555C30.539 33.3321 31.9005 33.7876 32.2551 33.8801L29.6247 44.5965H19.0862ZM31.824 44.5965C31.824 44.5965 33.0283 39.9358 33.0637 40.0588C33.5081 41.6142 34.0552 43.1246 34.681 44.5965H31.824ZM49.388 52.2549L46.9314 55.3254C46.2576 56.1681 44.8468 56.1681 44.1724 55.3254L41.7179 52.2576C38.6765 48.4569 36.4556 44.1542 35.1442 39.4147C39.7852 37.5292 43.3923 34.2123 44.2712 33.3515C44.616 33.0135 45.0708 32.8272 45.5533 32.8272C46.0345 32.8272 46.4892 33.0135 46.8335 33.3515C49.4785 35.9408 52.5483 37.981 55.9862 39.4718C54.6488 44.1529 52.4287 48.4528 49.388 52.2549Z" fill="black"/>
<path d="M42.1474 43.3991C41.7302 42.9819 41.0544 42.9819 40.6371 43.3991C40.2199 43.8163 40.2199 44.4921 40.6371 44.9094L43.5123 47.7839C43.7508 48.0245 44.0693 48.1566 44.4079 48.1566C44.7465 48.1566 45.0642 48.0245 45.3007 47.7866L51.1936 41.893C51.6108 41.4758 51.6108 40.8 51.1936 40.3827C50.7771 39.9655 50.1006 39.9655 49.6833 40.3827L44.4079 45.6588L42.1474 43.3991Z" fill="#ED9121"/>
</svg>
