<svg width="50" height="50" viewBox="0 0 50 50" fill="none" xmlns="http://www.w3.org/2000/svg">
<path d="M1 8.25908V9.00008C1 24.7671 9.366 39.6551 22.835 47.8531L25 49.1701L27.165 47.8521C40.634 39.6551 49 24.7671 49 9.00008V8.25908L25 0.955078L1 8.25908ZM26.126 46.1451L25 46.8301L23.874 46.1451C11.209 38.4351 3.263 24.5381 3.007 9.73908L25 3.04508L46.993 9.73808C46.737 24.5381 38.791 38.4351 26.126 46.1451Z" fill="black"/>
<path d="M15.707 25.293L14.293 26.707L22 34.414L41.707 14.707L40.293 13.293L22 31.586L15.707 25.293Z" fill="#ED9121"/>
</svg>
