
<svg style="display: none;" xmlns="http://www.w3.org/2000/svg" xmlns:xlink="http://www.w3.org/2000/xlink">

   <symbol id="calculator" viewBox="0 0 18 21" fill="white" xmlns="http://www.w3.org/2000/svg">
      <path
         d="M15.625 0.5H1.875C0.875 0.5 0 1.375 0 2.375V18.625C0 19.625 0.875 20.5 1.875 20.5H15.625C16.625 20.5 17.5 19.625 17.5 18.625V2.375C17.5 1.375 16.625 0.5 15.625 0.5ZM5 17.5C5 17.75 4.75 18 4.5 18H3C2.75 18 2.5 17.75 2.5 17.5V16C2.5 15.75 2.75 15.5 3 15.5H4.5C4.75 15.5 5 15.75 5 16V17.5ZM5 12.5C5 12.75 4.75 13 4.5 13H3C2.75 13 2.5 12.75 2.5 12.5V11C2.5 10.75 2.75 10.5 3 10.5H4.5C4.75 10.5 5 10.75 5 11V12.5ZM10 17.5C10 17.75 9.75 18 9.5 18H8C7.75 18 7.5 17.75 7.5 17.5V16C7.5 15.75 7.75 15.5 8 15.5H9.5C9.75 15.5 10 15.75 10 16V17.5ZM10 12.5C10 12.75 9.75 13 9.5 13H8C7.75 13 7.5 12.75 7.5 12.5V11C7.5 10.75 7.75 10.5 8 10.5H9.5C9.75 10.5 10 10.75 10 11V12.5ZM15 17.5C15 17.75 14.75 18 14.5 18H13C12.75 18 12.5 17.75 12.5 17.5V11C12.5 10.75 12.75 10.5 13 10.5H14.5C14.75 10.5 15 10.75 15 11V17.5ZM15 7.5C15 7.75 14.75 8 14.5 8H3C2.75 8 2.5 7.75 2.5 7.5V3.5C2.5 3.25 2.75 3 3 3H14.5C14.75 3 15 3.25 15 3.5V7.5Z"
         fill="white" />
   </symbol>

   <symbol id="clock">
      <path
         d="M9 0C7.21997 0 5.47991 0.527841 3.99987 1.51677C2.51983 2.50571 1.36628 3.91131 0.685088 5.55585C0.00389956 7.20038 -0.17433 9.00998 0.172936 10.7558C0.520203 12.5016 1.37737 14.1053 2.63604 15.364C3.89471 16.6226 5.49836 17.4798 7.24419 17.8271C8.99002 18.1743 10.7996 17.9961 12.4442 17.3149C14.0887 16.6337 15.4943 15.4802 16.4832 14.0001C17.4722 12.5201 18 10.78 18 9C17.9975 6.61382 17.0485 4.3261 15.3612 2.63882C13.6739 0.95154 11.3862 0.00251984 9 0ZM9 16.6154C7.49382 16.6154 6.02146 16.1687 4.76912 15.332C3.51678 14.4952 2.5407 13.3058 1.96431 11.9143C1.38792 10.5227 1.23711 8.99155 1.53095 7.51431C1.82479 6.03707 2.55008 4.68014 3.61511 3.61511C4.68014 2.55008 6.03708 1.82478 7.51431 1.53094C8.99155 1.2371 10.5228 1.38791 11.9143 1.9643C13.3058 2.54069 14.4952 3.51677 15.332 4.76912C16.1688 6.02146 16.6154 7.49382 16.6154 9C16.6131 11.019 15.81 12.9547 14.3824 14.3824C12.9547 15.81 11.019 16.6131 9 16.6154ZM14.5385 9C14.5385 9.18361 14.4655 9.3597 14.3357 9.48953C14.2059 9.61937 14.0298 9.69231 13.8462 9.69231H9C8.81639 9.69231 8.6403 9.61937 8.51047 9.48953C8.38063 9.3597 8.30769 9.18361 8.30769 9V4.15385C8.30769 3.97023 8.38063 3.79414 8.51047 3.66431C8.6403 3.53448 8.81639 3.46154 9 3.46154C9.18361 3.46154 9.3597 3.53448 9.48954 3.66431C9.61937 3.79414 9.69231 3.97023 9.69231 4.15385V8.30769H13.8462C14.0298 8.30769 14.2059 8.38063 14.3357 8.51046C14.4655 8.6403 14.5385 8.81639 14.5385 9Z"
         fill="#ED9121" />
   </symbol>

   <symbol id="loc-arrow">
      <path
         d="M10.9116 2.49361L7.398 11.4083C7.19175 11.8955 6.75715 12.1875 6.28572 12.1875C5.5776 12.1875 5.10666 11.601 5.10666 10.9916V6.95195H1.17858C0.61532 6.95195 0.130878 6.54012 0.0223509 5.96807C-0.0865932 5.39678 0.211119 4.84834 0.73244 4.60484L9.3532 0.971444C9.79173 0.785 10.2973 0.890498 10.6327 1.23805C10.9902 1.51683 11.0933 2.03887 10.9116 2.49361Z"
         fill="currentColor" />
   </symbol>

   <symbol id="logo-icon" viewBox="0 0 64 35">
      <path
         d="M63.5448 17.5029C63.5448 27.1507 55.7597 35 46.1915 35C42.0423 35 38.0817 33.5231 34.9531 30.8239C36.081 29.3178 37.0147 27.6537 37.7337 25.8786C37.7801 25.7587 37.8323 25.6388 37.8787 25.513C40.0359 27.7883 43.0369 29.1043 46.1915 29.1043C50.9089 29.1043 55.2175 26.1242 56.9166 21.6878L57.3892 20.442H46.1886C44.5736 20.442 43.263 19.1202 43.263 17.5C43.263 15.8798 44.5736 14.5463 46.1886 14.5463H57.3834L56.905 13.3005C55.2001 8.8699 50.8973 5.8928 46.1886 5.8928C42.4657 5.8928 38.9544 7.72644 36.8001 10.803C35.417 12.7711 34.6864 15.0844 34.6864 17.5C34.6864 19.088 34.4776 20.6467 34.063 22.1411C33.4686 24.3491 32.4567 26.3874 31.0475 28.2094C30.4792 28.9551 29.8617 29.6424 29.2035 30.2594C25.9793 33.3126 21.7663 34.9971 17.3388 34.9971C7.77638 35 0 27.1478 0 17.5029C0 7.85804 7.77638 0 17.3388 0C21.488 0 25.4516 1.47686 28.5859 4.17614C27.458 5.68808 26.5273 7.34626 25.8111 9.12141C25.7589 9.24131 25.7096 9.36706 25.6603 9.49281C23.5002 7.21758 20.4935 5.89572 17.3388 5.89572C10.9948 5.89572 5.83664 11.1013 5.83664 17.5029C5.83664 23.9046 10.9948 29.1043 17.3388 29.1043C21.0589 29.1043 24.573 27.2706 26.7418 24.1941C28.122 22.2259 28.8497 19.9127 28.8497 17.5029C28.8497 15.9266 29.0585 14.3679 29.4644 12.8676C30.0675 10.6538 31.0823 8.61255 32.4915 6.78184C33.0308 6.06242 33.6484 5.37809 34.3355 4.73763C37.554 1.68449 41.764 0 46.1915 0C55.7597 0 63.5448 7.85219 63.5448 17.5029Z"
         fill="#ED9121" />
   </symbol>

   <symbol id="logo-text" viewBox="0 0 76 33">
      <path
         d="M3.34208 10.768C2.50123 10.3031 1.84595 9.6626 1.36754 8.84375C0.892024 8.02782 0.651367 7.10954 0.651367 6.08598C0.651367 5.06242 0.889124 4.14413 1.36754 3.32821C1.84305 2.51228 2.50413 1.87183 3.34788 1.40391C4.19162 0.938921 5.13685 0.704964 6.17776 0.704964C6.99252 0.704964 7.73768 0.842413 8.41325 1.11731C9.08883 1.39221 9.66582 1.80164 10.1413 2.34266L9.17291 3.29019C8.38716 2.45964 7.41004 2.04437 6.23865 2.04437C5.46449 2.04437 4.76282 2.21984 4.13943 2.57077C3.51315 2.92171 3.02314 3.40425 2.6723 4.02131C2.31856 4.63837 2.1446 5.32562 2.1446 6.08598C2.1446 6.84634 2.32146 7.53651 2.6723 8.15065C3.02603 8.76771 3.51315 9.25025 4.13943 9.60119C4.76572 9.95212 5.46449 10.1276 6.23865 10.1276C7.40134 10.1276 8.37846 9.70647 9.17291 8.86715L10.1413 9.81467C9.66582 10.3557 9.08593 10.7651 8.40456 11.0459C7.72318 11.3266 6.97801 11.467 6.16326 11.467C5.11945 11.467 4.18003 11.233 3.33918 10.768H3.34208Z"
         fill="black" />
      <path d="M17.6221 4.64422H14.7314V11.3442H13.3019V4.64422H10.4111V3.38085H17.6221V4.64422Z" fill="black" />
      <path
         d="M24.4065 4.12074C24.9864 4.66177 25.2792 5.46892 25.2792 6.53927V11.3471H23.9223V10.2943C23.6845 10.6657 23.3424 10.9464 22.9017 11.1424C22.461 11.3383 21.9362 11.4348 21.3302 11.4348C20.4458 11.4348 19.7384 11.2213 19.2078 10.7885C18.6772 10.3586 18.4104 9.79128 18.4104 9.09233C18.4104 8.39338 18.6627 7.82896 19.1701 7.40199C19.6775 6.97502 20.4806 6.76446 21.5824 6.76446H23.8469V6.47786C23.8469 5.85787 23.6671 5.38119 23.3105 5.05072C22.9539 4.72026 22.4262 4.55356 21.7303 4.55356C21.2635 4.55356 20.8083 4.63252 20.3588 4.78752C19.9123 4.94252 19.5354 5.15015 19.228 5.41043L18.6308 4.32838C19.0367 3.99791 19.5238 3.74641 20.0921 3.57094C20.6575 3.39547 21.2577 3.30774 21.8956 3.30774C22.9887 3.30774 23.8237 3.57679 24.4065 4.11782V4.12074ZM22.9829 9.95797C23.3801 9.71232 23.6671 9.36431 23.8469 8.91394V7.80264H21.6433C20.4313 7.80264 19.8253 8.21207 19.8253 9.03384C19.8253 9.43449 19.979 9.75034 20.2864 9.98137C20.5937 10.2124 21.0199 10.3265 21.5679 10.3265C22.1159 10.3265 22.5856 10.2036 22.9829 9.95797Z"
         fill="black" />
      <path
         d="M27.8535 3.38377H29.283V6.76446H33.7829V3.38377H35.2124V11.3471H33.7829V8.01028H29.283V11.3471H27.8535V3.38377Z"
         fill="black" />
      <path
         d="M46.0281 10.0837V13.1954H44.6886V11.3471H38.0894V13.1954H36.7324V10.0837H37.1499C37.6574 10.0545 38.0053 9.69185 38.1938 9.00167C38.3822 8.3115 38.5127 7.33473 38.5823 6.07136L38.7012 3.38085H44.8248V10.0808H46.031L46.0281 10.0837ZM39.6435 8.66536C39.5188 9.32044 39.2927 9.7942 38.965 10.0837H43.3896V4.64422H39.9624L39.887 6.17664C39.8465 7.17681 39.7653 8.00736 39.6406 8.66244L39.6435 8.66536Z"
         fill="black" />
      <path
         d="M53.2156 4.12074C53.7955 4.66177 54.0883 5.46892 54.0883 6.53927V11.3471H52.7314V10.2943C52.4936 10.6657 52.1515 10.9464 51.7108 11.1424C51.27 11.3383 50.7452 11.4348 50.1393 11.4348C49.2549 11.4348 48.5474 11.2213 48.0168 10.7885C47.4862 10.3586 47.2195 9.79128 47.2195 9.09233C47.2195 8.39338 47.4717 7.82896 47.9791 7.40199C48.4866 6.97502 49.2897 6.76446 50.3915 6.76446H52.656V6.47786C52.656 5.85787 52.4762 5.38119 52.1196 5.05072C51.763 4.72026 51.2353 4.55356 50.5394 4.55356C50.0726 4.55356 49.6173 4.63252 49.1679 4.78752C48.7214 4.94252 48.3445 5.15015 48.0371 5.41043L47.4398 4.32838C47.8458 3.99791 48.3329 3.74641 48.9012 3.57094C49.4666 3.39547 50.0668 3.30774 50.7046 3.30774C51.7977 3.30774 52.6328 3.57679 53.2156 4.11782V4.12074ZM51.7919 9.95797C52.1892 9.71232 52.4762 9.36431 52.656 8.91394V7.80264H50.4524C49.2404 7.80264 48.6344 8.21207 48.6344 9.03384C48.6344 9.43449 48.7881 9.75034 49.0954 9.98137C49.4028 10.2124 49.829 10.3265 50.377 10.3265C50.925 10.3265 51.3947 10.2036 51.7919 9.95797Z"
         fill="black" />
      <path
         d="M62.9056 3.81952C63.5116 4.16168 63.9843 4.63545 64.3293 5.24666C64.6714 5.85787 64.8425 6.56559 64.8425 7.36397C64.8425 8.16235 64.6714 8.873 64.3293 9.49006C63.9872 10.1071 63.5116 10.5838 62.9056 10.926C62.2997 11.2681 61.6154 11.4378 60.8499 11.4378C60.2845 11.4378 59.7655 11.3266 59.2929 11.1073C58.8203 10.888 58.4202 10.5663 58.0925 10.1451V14.2628H56.6631V3.38378H58.0345V4.64714C58.3535 4.20555 58.7536 3.87216 59.2407 3.64698C59.7278 3.42179 60.2642 3.30774 60.8499 3.30774C61.6154 3.30774 62.2997 3.47736 62.9056 3.81952ZM62.0938 9.82345C62.4968 9.58949 62.8129 9.25903 63.0477 8.83205C63.2797 8.40508 63.3986 7.9167 63.3986 7.3669C63.3986 6.8171 63.2826 6.32871 63.0477 5.90174C62.8129 5.47769 62.4968 5.14723 62.0938 4.9162C61.6908 4.68516 61.2385 4.57111 60.731 4.57111C60.2236 4.57111 59.7858 4.68809 59.3828 4.92497C58.9798 5.16185 58.6637 5.48939 58.4289 5.91051C58.194 6.33164 58.078 6.8171 58.078 7.3669C58.078 7.9167 58.1911 8.40508 58.4202 8.83205C58.6492 9.25903 58.9653 9.58949 59.3741 9.82345C59.78 10.0603 60.2323 10.1773 60.731 10.1773C61.2298 10.1773 61.6908 10.0603 62.0938 9.82345Z"
         fill="black" />
      <path d="M72.5 4.64422H69.6093V11.3442H68.1798V4.64422H65.2891V3.38085H72.5V4.64422Z" fill="black" />
      <path
         d="M7.2909 19.3777C8.11146 19.8427 8.75224 20.489 9.21905 21.3166C9.68587 22.1442 9.91783 23.0771 9.91783 24.1182C9.91783 25.1593 9.68297 26.0952 9.21905 26.9199C8.75224 27.7475 8.10856 28.3909 7.2909 28.8588C6.47035 29.3238 5.54542 29.5577 4.51321 29.5577C3.58827 29.5577 2.75903 29.3969 2.01677 29.0781C1.2774 28.7564 0.65981 28.2914 0.161101 27.6802L1.69492 26.2385C2.43139 27.069 3.32733 27.4843 4.39143 27.4843C5.15689 27.4843 5.80347 27.2591 6.33407 26.8087C6.86468 26.3584 7.20972 25.753 7.36919 24.9897H3.13886V23.1268H7.34019C7.17202 22.4045 6.82409 21.8284 6.29639 21.3985C5.76868 20.9686 5.1337 20.7522 4.38853 20.7522C3.32442 20.7522 2.42849 21.1674 1.69202 21.998L0.158203 20.5562C0.654013 19.945 1.2745 19.48 2.01386 19.1583C2.75323 18.8366 3.58538 18.6787 4.51031 18.6787C5.54252 18.6787 6.47035 18.9127 7.288 19.3777H7.2909Z"
         fill="black" />
      <path
         d="M15.1634 26.3116H13.9572V29.3764H11.6348V21.2932H13.9572V24.4341H15.2098L17.3844 21.2932H19.8577L17.0568 25.171L20.0519 29.3764H17.3119L15.1663 26.3116H15.1634Z"
         fill="black" />
      <path
         d="M22.4552 28.9641C21.7738 28.6073 21.2432 28.116 20.8605 27.4843C20.4777 26.8526 20.2864 26.1361 20.2864 25.3348C20.2864 24.5335 20.4777 23.817 20.8605 23.1853C21.2432 22.5536 21.7738 22.0623 22.4552 21.7055C23.1366 21.3488 23.902 21.1733 24.7574 21.1733C25.6127 21.1733 26.3376 21.3517 26.9697 21.7055C27.5988 22.0623 28.0599 22.5683 28.3469 23.2292L26.5434 24.206C26.1259 23.4661 25.5257 23.0947 24.74 23.0947C24.134 23.0947 23.6324 23.2965 23.2351 23.6971C22.8379 24.0978 22.6407 24.6446 22.6407 25.3348C22.6407 26.025 22.8379 26.5719 23.2351 26.9725C23.6324 27.3732 24.134 27.5749 24.74 27.5749C25.5344 27.5749 26.1346 27.2035 26.5434 26.4637L28.3469 27.455C28.0599 28.0955 27.5988 28.5956 26.9697 28.9582C26.3376 29.3179 25.6011 29.4992 24.7574 29.4992C23.9136 29.4992 23.1366 29.3209 22.4552 28.967V28.9641Z"
         fill="black" />
      <path d="M37.7324 21.2932V29.3764H35.4099V23.2146H32.0726V29.3764H29.7646V21.2932H37.7353H37.7324Z"
         fill="black" />
      <path
         d="M46.7205 21.6909C47.3323 22.036 47.8107 22.5215 48.1586 23.1473C48.5066 23.7731 48.6805 24.5013 48.6805 25.3348C48.6805 26.1683 48.5066 26.8936 48.1586 27.5223C47.8107 28.1481 47.3323 28.6336 46.7205 28.9787C46.1087 29.3238 45.4331 29.4963 44.688 29.4963C43.6644 29.4963 42.8613 29.1717 42.2756 28.5196V32.2921H39.9531V21.2932H42.1712V22.2232C42.7482 21.5213 43.5862 21.1704 44.688 21.1704C45.4331 21.1704 46.1116 21.3429 46.7205 21.688V21.6909ZM45.7521 26.9637C46.1348 26.5572 46.3262 26.0133 46.3262 25.3348C46.3262 24.6563 46.1348 24.1095 45.7521 23.7059C45.3693 23.2994 44.8793 23.0976 44.2849 23.0976C43.6905 23.0976 43.2005 23.2994 42.8178 23.7059C42.4351 24.1124 42.2437 24.6563 42.2437 25.3348C42.2437 26.0133 42.4351 26.5602 42.8178 26.9637C43.2005 27.3702 43.6905 27.572 44.2849 27.572C44.8793 27.572 45.3693 27.3702 45.7521 26.9637Z"
         fill="black" />
      <path
         d="M58.0492 25.9957H51.9864C52.0965 26.4958 52.3546 26.8935 52.7605 27.1831C53.1664 27.4726 53.6739 27.6188 54.2798 27.6188C54.6974 27.6188 55.0656 27.5574 55.3903 27.4317C55.7122 27.3059 56.0137 27.11 56.2921 26.838L57.5272 28.1891C56.7734 29.0606 55.6687 29.4963 54.219 29.4963C53.3143 29.4963 52.517 29.3179 51.8211 28.9641C51.1252 28.6073 50.5888 28.116 50.2119 27.4843C49.835 26.8526 49.6465 26.1361 49.6465 25.3348C49.6465 24.5335 49.832 23.8287 50.2061 23.1941C50.5772 22.5595 51.0904 22.0623 51.7399 21.7055C52.3894 21.3488 53.1172 21.1733 53.9232 21.1733C54.7293 21.1733 55.4164 21.3429 56.0543 21.6851C56.6893 22.0272 57.188 22.5127 57.5504 23.1502C57.9129 23.7848 58.0926 24.5247 58.0926 25.367C58.0926 25.3962 58.0782 25.6068 58.0492 25.9987V25.9957ZM52.6126 23.3959C52.256 23.6971 52.0356 24.1065 51.9574 24.6271H55.9035C55.8253 24.1153 55.6049 23.7088 55.2483 23.4017C54.8916 23.0947 54.4538 22.9426 53.9377 22.9426C53.4216 22.9426 52.9693 23.0917 52.6126 23.393V23.3959Z"
         fill="black" />
      <path
         d="M61.3954 28.9641C60.714 28.6073 60.1834 28.116 59.8007 27.4843C59.4179 26.8526 59.2266 26.1361 59.2266 25.3348C59.2266 24.5335 59.4179 23.817 59.8007 23.1853C60.1834 22.5536 60.714 22.0623 61.3954 21.7055C62.0767 21.3488 62.8422 21.1733 63.6975 21.1733C64.5529 21.1733 65.2778 21.3517 65.9098 21.7055C66.539 22.0623 67 22.5683 67.2871 23.2292L65.4836 24.206C65.0661 23.4661 64.4659 23.0947 63.6801 23.0947C63.0742 23.0947 62.5725 23.2965 62.1753 23.6971C61.7781 24.0978 61.5809 24.6446 61.5809 25.3348C61.5809 26.025 61.7781 26.5719 62.1753 26.9725C62.5725 27.3732 63.0742 27.5749 63.6801 27.5749C64.4746 27.5749 65.0748 27.2035 65.4836 26.4637L67.2871 27.455C67 28.0955 66.539 28.5956 65.9098 28.9582C65.2778 29.3179 64.5413 29.4992 63.6975 29.4992C62.8538 29.4992 62.0767 29.3209 61.3954 28.967V28.9641Z"
         fill="black" />
      <path
         d="M70.1083 28.9641C69.4269 28.6073 68.8963 28.116 68.5136 27.4843C68.1308 26.8526 67.9395 26.1361 67.9395 25.3348C67.9395 24.5335 68.1308 23.817 68.5136 23.1853C68.8963 22.5536 69.4269 22.0623 70.1083 21.7055C70.7896 21.3488 71.5551 21.1733 72.4104 21.1733C73.2658 21.1733 73.9907 21.3517 74.6227 21.7055C75.2519 22.0623 75.7129 22.5683 76 23.2292L74.1965 24.206C73.779 23.4661 73.1788 23.0947 72.393 23.0947C71.7871 23.0947 71.2854 23.2965 70.8882 23.6971C70.491 24.0978 70.2938 24.6446 70.2938 25.3348C70.2938 26.025 70.491 26.5719 70.8882 26.9725C71.2854 27.3732 71.7871 27.5749 72.393 27.5749C73.1875 27.5749 73.7877 27.2035 74.1965 26.4637L76 27.455C75.7129 28.0955 75.2519 28.5956 74.6227 28.9582C73.9907 29.3179 73.2542 29.4992 72.4104 29.4992C71.5667 29.4992 70.7896 29.3209 70.1083 28.967V28.9641Z"
         fill="black" />
   </symbol>

   <symbol id="mail" viewBox="0 0 21 21">
      <path
         d="M18.375 8.53125C18.201 8.53125 18.034 8.60039 17.911 8.72346C17.7879 8.84653 17.7188 9.01345 17.7188 9.1875V14.4375C17.7188 14.6115 17.6496 14.7785 17.5265 14.9015C17.4035 15.0246 17.2365 15.0938 17.0625 15.0938H3.9375C3.76345 15.0938 3.59653 15.0246 3.47346 14.9015C3.35039 14.7785 3.28125 14.6115 3.28125 14.4375V9.1875C3.28125 9.01345 3.21211 8.84653 3.08904 8.72346C2.96597 8.60039 2.79905 8.53125 2.625 8.53125C2.45095 8.53125 2.28403 8.60039 2.16096 8.72346C2.03789 8.84653 1.96875 9.01345 1.96875 9.1875V14.4375C1.96921 14.9595 2.17693 15.4599 2.54625 15.8288C2.91511 16.1981 3.41553 16.4058 3.9375 16.4062H17.0625C17.5845 16.4058 18.0849 16.1981 18.4538 15.8288C18.8231 15.4599 19.0308 14.9595 19.0312 14.4375V9.1875C19.0312 9.01345 18.9621 8.84653 18.839 8.72346C18.716 8.60039 18.549 8.53125 18.375 8.53125Z"
         fill="black" />
      <path
         d="M10.1062 12.3375C10.2198 12.4227 10.3579 12.4688 10.4999 12.4688C10.6419 12.4688 10.7801 12.4227 10.8937 12.3375L18.644 6.52312C18.7649 6.43195 18.8505 6.30177 18.8864 6.15465C18.9223 6.00754 18.9062 5.85254 18.8409 5.71594C18.7431 5.51402 18.6123 5.32991 18.4537 5.17125C18.0848 4.80193 17.5844 4.59421 17.0624 4.59375H3.93742C3.41545 4.59421 2.91503 4.80193 2.54617 5.17125C2.38759 5.32991 2.25672 5.51402 2.15899 5.71594C2.09363 5.85254 2.07753 6.00754 2.11342 6.15465C2.1493 6.30177 2.23495 6.43195 2.35586 6.52312L10.1062 12.3375ZM3.93742 5.90625H17.0624C17.1233 5.89666 17.1853 5.89666 17.2462 5.90625L10.4999 10.9922L3.75367 5.90625C3.81455 5.89666 3.87655 5.89666 3.93742 5.90625Z"
         fill="black" />
   </symbol>

   <symbol id="peoples" width="54" height="52" viewBox="0 0 54 52" fill="none" xmlns="http://www.w3.org/2000/svg">
      <path
         d="M39.3379 8.60936C39.7535 10.7312 41.6129 12.2844 43.7785 12.2844C45.9442 12.2844 47.8035 10.7312 48.2192 8.60936L48.766 5.83124C48.941 4.47499 48.5473 3.11874 47.6504 2.09061C46.7535 1.06249 45.4629 0.471863 44.1067 0.471863H43.4723C42.116 0.471863 40.8254 1.06249 39.9285 2.09061C39.0317 3.11874 38.616 4.47499 38.8129 5.89686L39.3379 8.60936ZM41.5692 3.53436C42.0504 2.98749 42.7504 2.65936 43.4942 2.65936H44.1285C44.8723 2.65936 45.5504 2.96561 46.0535 3.53436C46.5348 4.08124 46.7535 4.82499 46.666 5.48124L46.141 8.19374C45.9223 9.30936 44.9598 10.0969 43.8223 10.0969C42.6848 10.0969 41.7223 9.28749 41.5035 8.19374L40.9785 5.54686C40.8692 4.82499 41.0879 4.08124 41.5692 3.53436Z"
         fill="black" />
      <path
         d="M53.9719 23.025L52.725 17.1187C52.5719 16.3969 52.0469 15.8062 51.3687 15.5656L47.0594 14.0344L43.8219 17.2719L40.5844 14.0344L36.275 15.5656C35.5969 15.8062 35.0719 16.3969 34.9187 17.1187L33.6719 23.025C33.5406 23.6156 33.9125 24.1844 34.5031 24.3156C35.0937 24.4469 35.6625 24.075 35.7937 23.4844L37.0187 17.6219L40.0375 16.55L43.8437 20.3562L47.65 16.55L50.625 17.5781L51.8719 23.4844C51.9812 23.9875 52.4406 24.3375 52.9437 24.3375C53.0094 24.3375 53.0969 24.3375 53.1625 24.3156C53.7094 24.2062 54.0812 23.6156 53.9719 23.025Z"
         fill="black" />
      <path
         d="M5.75979 8.60936C6.17541 10.7312 8.03479 12.2844 10.2004 12.2844C12.366 12.2844 14.2254 10.7312 14.641 8.60936L15.1879 5.83124C15.3629 4.47499 14.9692 3.11874 14.0723 2.09061C13.1754 1.06249 11.8848 0.471863 10.5285 0.471863H9.89416C8.53791 0.471863 7.24729 1.06249 6.35041 2.09061C5.45354 3.11874 5.03791 4.47499 5.23479 5.89686L5.75979 8.60936ZM7.99104 3.53436C8.47229 2.98749 9.17229 2.65936 9.91604 2.65936H10.5504C11.2942 2.65936 11.9723 2.96561 12.4754 3.53436C12.9567 4.08124 13.1754 4.82499 13.0879 5.48124L12.5629 8.19374C12.3442 9.30936 11.3817 10.0969 10.2442 10.0969C9.10666 10.0969 8.14416 9.28749 7.92541 8.19374L7.40041 5.54686C7.26916 4.82499 7.50979 4.08124 7.99104 3.53436Z"
         fill="black" />
      <path
         d="M14.0282 16.55L17.0032 17.5781L18.25 23.4844C18.3594 23.9875 18.8188 24.3375 19.3219 24.3375C19.3875 24.3375 19.475 24.3375 19.5407 24.3156C20.1313 24.1844 20.5032 23.6156 20.3719 23.025L19.125 17.1187C18.9719 16.3969 18.4469 15.8062 17.7688 15.5656L13.4594 14.0344L10.2 17.2937L6.96253 14.0344L2.65316 15.5656C1.97503 15.8062 1.45003 16.3969 1.2969 17.1187L0.0500298 23.025C-0.0812203 23.6156 0.290655 24.1844 0.88128 24.3156C1.4719 24.4469 2.04065 24.075 2.1719 23.4844L3.37503 17.6219L6.39378 16.55L10.2 20.3562L14.0282 16.55Z"
         fill="black" />
      <path
         d="M27 39.4531C29.1656 39.4531 31.025 37.9 31.4406 35.7781L31.9875 33C32.1625 31.6438 31.7687 30.2875 30.8718 29.2594C29.975 28.2312 28.6843 27.6406 27.3281 27.6406H26.6937C25.3375 27.6406 24.0468 28.2312 23.15 29.2594C22.2531 30.2875 21.8375 31.6438 22.0343 33.0656L22.5593 35.7781C22.975 37.9 24.8343 39.4531 27 39.4531ZM24.7687 30.7031C25.25 30.1562 25.95 29.8281 26.6937 29.8281H27.3281C28.0718 29.8281 28.75 30.1344 29.2531 30.7031C29.7343 31.25 29.9531 31.9937 29.8656 32.65L29.3406 35.3625C29.1218 36.4781 28.1593 37.2656 27.0218 37.2656C25.8843 37.2656 24.9218 36.4563 24.7031 35.3625L24.1781 32.7156C24.0687 31.9937 24.2875 31.25 24.7687 30.7031Z"
         fill="black" />
      <path
         d="M35.9251 44.3093C35.772 43.5875 35.247 42.9969 34.5688 42.7562L30.2595 41.225L27.0001 44.4625L23.7626 41.225L19.4532 42.7562C18.7751 42.9969 18.2501 43.5875 18.097 44.3093L16.8501 50.2156C16.7188 50.8062 17.0907 51.375 17.6813 51.5062C18.272 51.6375 18.8407 51.2656 18.972 50.675L20.1751 44.8125L23.1938 43.7406L27.0001 47.5468L30.8063 43.7406L33.7813 44.7687L35.0282 50.675C35.1376 51.1781 35.597 51.5281 36.1001 51.5281C36.1657 51.5281 36.2532 51.5281 36.3188 51.5062C36.9095 51.375 37.2813 50.8062 37.1501 50.2156L35.9251 44.3093Z"
         fill="black" />
      <path
         d="M45.6812 27.2031C45.0687 27.1375 44.5437 27.575 44.5 28.1875C44.0625 32.7156 41.8969 36.8281 38.4406 39.7812C37.9812 40.175 37.9375 40.8531 38.3094 41.3125C38.5281 41.575 38.8344 41.6844 39.1406 41.6844C39.3812 41.6844 39.6437 41.5969 39.8406 41.4219C43.7344 38.0969 46.1625 33.4812 46.6656 28.3844C46.7094 27.7937 46.2719 27.2687 45.6812 27.2031Z"
         fill="#ED9121" />
      <path
         d="M9.52142 28.1875C9.4558 27.5968 8.9308 27.1593 8.34017 27.2031C7.74955 27.2687 7.31205 27.7937 7.3558 28.3843C7.85892 33.4812 10.287 38.1187 14.1808 41.4218C14.3777 41.5968 14.6402 41.6843 14.8808 41.6843C15.187 41.6843 15.4933 41.5531 15.712 41.2906C16.1058 40.8312 16.0402 40.1531 15.5808 39.7593C12.1245 36.8281 9.95892 32.7156 9.52142 28.1875Z"
         fill="#ED9121" />
      <path
         d="M21.2468 9.83434C24.8999 8.54371 29.0999 8.54371 32.7749 9.83434C32.8843 9.87809 33.0156 9.89996 33.1468 9.89996C33.5843 9.89996 34.0218 9.61559 34.175 9.17809C34.3718 8.60934 34.0875 7.99684 33.5187 7.79996C29.3843 6.33434 24.6812 6.33434 20.5468 7.79996C19.9781 7.99684 19.6937 8.63121 19.8906 9.17809C20.0437 9.74684 20.6781 10.0312 21.2468 9.83434Z"
         fill="#ED9121" />
   </symbol>

   <symbol id="play" width="72" height="72" viewBox="0 0 72 72" fill="none" xmlns="http://www.w3.org/2000/svg">
      <circle cx="36" cy="36" r="35.0435" fill="#ED9121" />
      <path
         d="M48.122 34.5406L30.5328 24.0717C30.318 23.9454 30.0969 23.8696 29.8442 23.8696C29.1555 23.8696 28.5932 24.4382 28.5932 25.1332H28.5869V46.8669H28.5932C28.5932 47.5618 29.1555 48.1304 29.8442 48.1304C30.1032 48.1304 30.318 48.042 30.5518 47.9156L48.122 37.4594C48.539 37.112 48.8043 36.5876 48.8043 36C48.8043 35.4124 48.539 34.8944 48.122 34.5406Z"
         fill="white" />
   </symbol>

   <symbol id="star" width="16" height="15" viewBox="0 0 16 15" fill="none" xmlns="http://www.w3.org/2000/svg">
      <path
         d="M7.04894 0.92705C7.3483 0.00573921 8.6517 0.00573969 8.95106 0.92705L10.0206 4.21885C10.1545 4.63087 10.5385 4.90983 10.9717 4.90983H14.4329C15.4016 4.90983 15.8044 6.14945 15.0207 6.71885L12.2205 8.75329C11.87 9.00793 11.7234 9.4593 11.8572 9.87132L12.9268 13.1631C13.2261 14.0844 12.1717 14.8506 11.388 14.2812L8.58778 12.2467C8.2373 11.9921 7.7627 11.9921 7.41221 12.2467L4.61204 14.2812C3.82833 14.8506 2.77385 14.0844 3.0732 13.1631L4.14277 9.87132C4.27665 9.4593 4.12999 9.00793 3.7795 8.75329L0.979333 6.71885C0.195619 6.14945 0.598395 4.90983 1.56712 4.90983H5.02832C5.46154 4.90983 5.8455 4.63087 5.97937 4.21885L7.04894 0.92705Z"
         fill="#FFA435" />
   </symbol>

   <symbol id="telegram" viewBox="0 0 32 32" xmlns="http://www.w3.org/2000/svg">
      <path
         d="M16 0C7.16344 0 0 7.16344 0 16C0 24.8366 7.16344 32 16 32C24.8366 32 32 24.8366 32 16C32 7.16344 24.8366 0 16 0ZM24.3162 10.121L21.4744 23.6875C21.4401 23.8516 21.365 24.0044 21.2561 24.1319C21.1473 24.2594 21.0081 24.3575 20.8515 24.4172C20.6948 24.4769 20.5257 24.4963 20.3596 24.4735C20.1935 24.4508 20.0357 24.3867 19.9009 24.2871L15.7674 21.2332L13.2631 23.5958C13.2303 23.6267 13.1917 23.6508 13.1495 23.6666C13.1074 23.6824 13.0624 23.6897 13.0174 23.688C12.9724 23.6863 12.9281 23.6756 12.8873 23.6566C12.8464 23.6376 12.8097 23.6107 12.7794 23.5774L12.7256 23.5182L13.1607 19.3073L21.0034 12.1416C21.0422 12.1062 21.0663 12.0576 21.071 12.0053C21.0757 11.953 21.0607 11.9009 21.0288 11.8592C20.9969 11.8175 20.9506 11.7892 20.8989 11.78C20.8472 11.7707 20.794 11.7812 20.7496 11.8093L10.7197 18.1574L6.4 16.7067C6.28514 16.6681 6.18504 16.5949 6.11342 16.4972C6.0418 16.3995 6.00218 16.2819 5.99998 16.1608C5.99779 16.0397 6.03314 15.9208 6.10118 15.8205C6.16922 15.7203 6.26661 15.6435 6.38 15.6008L23.2812 9.234C23.4116 9.18494 23.5528 9.1718 23.69 9.19596C23.8272 9.22012 23.9553 9.28069 24.0611 9.37134C24.1669 9.462 24.2464 9.57939 24.2912 9.71127C24.3361 9.84314 24.3447 9.98465 24.3162 10.121Z"
         fill="currentColor" />
   </symbol>

   <symbol id="telephone" width="17" height="17" viewBox="0 0 17 17" fill="none" xmlns="http://www.w3.org/2000/svg">
      <g clip-path="url(#clip0_3006_284)">
         <path
            d="M10.5852 2.65625C11.4863 2.89808 12.3079 3.37268 12.9677 4.03239C13.6274 4.69211 14.102 5.51375 14.3438 6.41484"
            stroke="black" stroke-linecap="round" stroke-linejoin="round" />
         <path
            d="M10.0339 4.70821C10.5759 4.85214 11.0702 5.13678 11.4667 5.53329C11.8632 5.92979 12.1478 6.42406 12.2917 6.96602"
            stroke="black" stroke-linecap="round" stroke-linejoin="round" />
         <path
            d="M6.14258 8.2875C6.68925 9.41641 7.60211 10.3269 8.73242 10.8707C8.8158 10.9102 8.90802 10.9273 9.00001 10.9203C9.09199 10.9133 9.18057 10.8825 9.25703 10.8309L10.9172 9.72187C10.9905 9.67213 11.0753 9.64177 11.1635 9.63364C11.2518 9.62551 11.3407 9.63988 11.4219 9.67539L14.5297 11.0102C14.6359 11.0544 14.7246 11.1323 14.7822 11.2319C14.8398 11.3314 14.8631 11.4472 14.8484 11.5613C14.7499 12.3301 14.3747 13.0367 13.7929 13.5488C13.2111 14.061 12.4626 14.3436 11.6875 14.3437C9.29226 14.3437 6.99513 13.3922 5.30144 11.6986C3.60775 10.0049 2.65625 7.70774 2.65625 5.3125C2.65642 4.5374 2.93902 3.78893 3.45115 3.20713C3.96328 2.62532 4.66986 2.25006 5.43867 2.15156C5.55278 2.1369 5.66855 2.16016 5.76814 2.21776C5.86774 2.27536 5.94564 2.3641 5.98984 2.47031L7.32461 5.58476C7.35932 5.66468 7.37384 5.75191 7.36689 5.83876C7.35994 5.92562 7.33174 6.00943 7.28477 6.08281L6.17578 7.76953C6.12641 7.84582 6.09743 7.9335 6.09162 8.02418C6.0858 8.11487 6.10335 8.20553 6.14258 8.2875Z"
            stroke="black" stroke-linecap="round" stroke-linejoin="round" />
      </g>
      <defs>
         <clipPath id="clip0_3006_284">
            <rect width="17" height="17" fill="white" />
         </clipPath>
      </defs>
   </symbol>

   <symbol id="testimonial" width="30" height="31" viewBox="0 0 30 31" fill="none" xmlns="http://www.w3.org/2000/svg">
      <path fill-rule="evenodd" clip-rule="evenodd"
         d="M0 0L2.36842 31H8.57143L10.7143 0H0ZM19.2857 0L21.6541 31H27.8571L30 0H19.2857Z" fill="#ED9121" />
   </symbol>

   <symbol id="whatsapp23" viewBox="0 0 32 32" xmlns:xlink="http://www.w3.org/2000/svg" >
         <path fill-rule="evenodd" clip-rule="evenodd"
            d="M16.038 24.6512C14.5124 24.6512 13.0792 24.2613 11.8323 23.577L7.01538 25.1077L8.58565 20.4757C7.79362 19.1746 7.33735 17.6488 7.33735 16.0179C7.33735 11.2498 11.2327 7.38461 16.0382 7.38461C20.8431 7.38461 24.7385 11.2498 24.7385 16.0179C24.7385 20.786 20.8433 24.6512 16.038 24.6512ZM16.038 8.75953C12.0042 8.75953 8.7231 12.0157 8.7231 16.0179C8.7231 17.6061 9.24081 19.0769 10.1163 20.2736L9.20261 22.9691L12.0135 22.0757C13.1686 22.834 14.5522 23.2763 16.038 23.2763C20.0712 23.2763 23.3529 20.0204 23.3529 16.0181C23.3529 12.0159 20.0712 8.75953 16.038 8.75953ZM20.4314 18.0063C20.3778 17.9182 20.2356 17.8651 20.0227 17.7593C19.8093 17.6536 18.7605 17.1414 18.5653 17.0711C18.3696 17.0006 18.2272 16.9649 18.0852 17.1768C17.9432 17.3887 17.5344 17.8651 17.4098 18.0063C17.2853 18.1476 17.1611 18.1654 16.9478 18.0594C16.7347 17.9537 16.0475 17.7302 15.2326 17.0092C14.5987 16.4484 14.1706 15.756 14.0463 15.5439C13.9219 15.3322 14.0331 15.2178 14.1399 15.1125C14.2358 15.0175 14.3531 14.8653 14.4599 14.7419C14.5666 14.6182 14.602 14.5302 14.6729 14.3888C14.7442 14.2476 14.7086 14.1241 14.6552 14.018C14.6018 13.9122 14.1751 12.8709 13.9975 12.4471C13.8199 12.0237 13.6424 12.0942 13.5178 12.0942C13.3933 12.0942 13.2511 12.0765 13.109 12.0765C12.9668 12.0765 12.7356 12.1295 12.5401 12.3412C12.3447 12.5531 11.7939 13.0651 11.7939 14.1062C11.7939 15.1475 12.5578 16.1536 12.6647 16.2946C12.7712 16.4356 14.1397 18.6419 16.3076 19.4893C18.4763 20.3364 18.4763 20.0539 18.8674 20.0186C19.2579 19.9834 20.1287 19.5068 20.3069 19.0127C20.4843 18.5183 20.4843 18.0945 20.4314 18.0063Z"/>
   </symbol>

   <symbol id="headphones">
      <path
         d="M2.96875 13.6C3.44117 13.6 3.89424 13.4209 4.22829 13.1021C4.56234 12.7833 4.75 12.3509 4.75 11.9V7.36667C4.75009 6.92163 4.56733 6.4943 4.24094 6.17645C3.91456 5.8586 3.47059 5.67557 3.00438 5.66667C3.15038 4.42037 3.7724 3.2691 4.75159 2.43283C5.73079 1.59656 6.9985 1.13393 8.3125 1.13334H10.6875C12.0015 1.13393 13.2692 1.59656 14.2484 2.43283C15.2276 3.2691 15.8496 4.42037 15.9956 5.66667C15.5294 5.67557 15.0854 5.8586 14.7591 6.17645C14.4327 6.4943 14.2499 6.92163 14.25 7.36667V11.9C14.2492 12.3337 14.4221 12.7514 14.7334 13.0674C15.0446 13.3834 15.4707 13.574 15.9244 13.6C15.8019 13.9307 15.5752 14.2171 15.2754 14.42C14.9757 14.6229 14.6175 14.7323 14.25 14.7333H11.7681C11.6281 14.3552 11.3525 14.0366 10.99 13.8337C10.6276 13.6308 10.2017 13.5567 9.78753 13.6245C9.37339 13.6923 8.99771 13.8977 8.72688 14.2043C8.45604 14.5109 8.3075 14.899 8.3075 15.3C8.3075 15.701 8.45604 16.0891 8.72688 16.3957C8.99771 16.7023 9.37339 16.9077 9.78753 16.9755C10.2017 17.0433 10.6276 16.9692 10.99 16.7663C11.3525 16.5634 11.6281 16.2448 11.7681 15.8667H14.25C14.9723 15.8635 15.6687 15.6092 16.2086 15.1513C16.7485 14.6933 17.095 14.0632 17.1831 13.379C17.7218 13.1626 18.1815 12.7993 18.5047 12.3346C18.8279 11.8698 19.0002 11.3244 19 10.7667V8.5C19.0009 7.94798 18.8327 7.40775 18.5163 6.94567C18.1998 6.4836 17.7489 6.11981 17.2187 5.899C17.129 4.30445 16.4015 2.80357 15.1862 1.70596C13.971 0.608342 12.3607 -0.00229206 10.6875 6.46553e-06H8.3125C6.63933 -0.00229206 5.02904 0.608342 3.81378 1.70596C2.59853 2.80357 1.87099 4.30445 1.78125 5.899C1.25114 6.11981 0.800155 6.4836 0.48371 6.94567C0.167266 7.40775 -0.000855295 7.94798 3.27205e-06 8.5V10.7667C3.27205e-06 11.5181 0.312781 12.2388 0.86953 12.7701C1.42628 13.3015 2.18139 13.6 2.96875 13.6ZM10.0937 15.8667C9.97632 15.8667 9.86152 15.8334 9.76388 15.7712C9.66624 15.7089 9.59014 15.6204 9.5452 15.5169C9.50026 15.4133 9.4885 15.2994 9.51141 15.1894C9.53432 15.0795 9.59087 14.9786 9.6739 14.8993C9.75694 14.8201 9.86274 14.7661 9.97791 14.7442C10.0931 14.7224 10.2125 14.7336 10.321 14.7765C10.4295 14.8194 10.5222 14.892 10.5874 14.9852C10.6527 15.0784 10.6875 15.1879 10.6875 15.3C10.6875 15.4503 10.6249 15.5944 10.5136 15.7007C10.4022 15.807 10.2512 15.8667 10.0937 15.8667ZM17.8125 8.5V10.7667C17.8125 11.2175 17.6248 11.6499 17.2908 11.9687C16.9567 12.2876 16.5037 12.4667 16.0312 12.4667C15.8738 12.4667 15.7228 12.407 15.6114 12.3007C15.5001 12.1944 15.4375 12.0503 15.4375 11.9V7.36667C15.4375 7.21638 15.5001 7.07225 15.6114 6.96598C15.7228 6.8597 15.8738 6.8 16.0312 6.8C16.5037 6.8 16.9567 6.97911 17.2908 7.29792C17.6248 7.61673 17.8125 8.04913 17.8125 8.5ZM1.1875 8.5C1.1875 8.04913 1.37517 7.61673 1.70922 7.29792C2.04327 6.97911 2.49634 6.8 2.96875 6.8C3.12622 6.8 3.27725 6.8597 3.3886 6.96598C3.49995 7.07225 3.5625 7.21638 3.5625 7.36667V11.9C3.5625 12.0503 3.49995 12.1944 3.3886 12.3007C3.27725 12.407 3.12622 12.4667 2.96875 12.4667C2.49634 12.4667 2.04327 12.2876 1.70922 11.9687C1.37517 11.6499 1.1875 11.2175 1.1875 10.7667V8.5Z"
         fill="#ED9121" />
   </symbol>

   <symbol id="search" viewBox="0 0 24 24">
      <path
         d="M11 19C15.4183 19 19 15.4183 19 11C19 6.58172 15.4183 3 11 3C6.58172 3 3 6.58172 3 11C3 15.4183 6.58172 19 11 19Z"
         stroke="white" stroke-width="2" stroke-linecap="round" stroke-linejoin="round" />
      <path d="M21 21L16.65 16.65" stroke="white" stroke-width="2" stroke-linecap="round" stroke-linejoin="round" />
   </symbol>

   <symbol id="close">
      <path d="M24 8L8 24" stroke="black" stroke-width="2" stroke-linecap="round" stroke-linejoin="round" />
      <path d="M8 8L24 24" stroke="black" stroke-width="2" stroke-linecap="round" stroke-linejoin="round" />
   </symbol>

</svg>