<svg width="18" height="18" viewBox="0 0 18 18" fill="none" xmlns="http://www.w3.org/2000/svg">
<path d="M11.3203 1.59375C12.5394 1.92094 13.6511 2.56303 14.5436 3.45559C15.4362 4.34815 16.0783 5.45978 16.4055 6.67891" stroke="black" stroke-linecap="round" stroke-linejoin="round"/>
<path d="M10.5762 4.36992C11.3094 4.56465 11.9781 4.94976 12.5146 5.4862C13.051 6.02265 13.4361 6.69137 13.6309 7.42461" stroke="black" stroke-linecap="round" stroke-linejoin="round"/>
<path d="M5.31055 9.2125C6.05016 10.7399 7.2852 11.9717 8.81445 12.7074C8.92726 12.7608 9.05203 12.784 9.17648 12.7745C9.30093 12.765 9.42078 12.7234 9.52422 12.6535L11.7703 11.1531C11.8695 11.0858 11.9842 11.0447 12.1036 11.0338C12.223 11.0228 12.3433 11.0422 12.4531 11.0902L16.6578 12.8961C16.8015 12.9559 16.9216 13.0613 16.9995 13.196C17.0774 13.3308 17.1089 13.4874 17.0891 13.6418C16.9558 14.682 16.4481 15.6379 15.6609 16.3308C14.8738 17.0237 13.8612 17.406 12.8125 17.4062C9.57189 17.4062 6.464 16.1189 4.17254 13.8275C1.88108 11.536 0.59375 8.42811 0.59375 5.1875C0.593986 4.13884 0.976318 3.1262 1.6692 2.33905C2.36209 1.55191 3.31805 1.0442 4.3582 0.910936C4.51259 0.891105 4.66921 0.922575 4.80396 1.0005C4.9387 1.07842 5.04409 1.19848 5.10391 1.34219L6.90977 5.55586C6.95673 5.66398 6.97637 5.782 6.96697 5.89951C6.95757 6.01701 6.91941 6.1304 6.85586 6.22969L5.35547 8.51172C5.28867 8.61493 5.24947 8.73356 5.2416 8.85625C5.23374 8.97894 5.25747 9.1016 5.31055 9.2125Z" stroke="black" stroke-linecap="round" stroke-linejoin="round"/>
</svg>
