<svg width="50" height="56" viewBox="0 0 50 56" fill="none" xmlns="http://www.w3.org/2000/svg">
<path d="M0.429702 31.7176C0.417982 42.3542 7.3383 51.757 17.4974 54.909C27.6564 58.0608 38.6834 54.2256 44.6946 45.4502C50.7054 36.6746 50.2972 25.007 43.6882 16.6726L45.1352 15.2256C45.8646 15.9523 47.0442 15.9519 47.7728 15.2243L49.0934 13.9045C49.8188 13.1747 49.8184 11.996 49.0926 11.267L45.1336 7.30802C44.4038 6.583 43.2254 6.58342 42.496 7.30888L41.1772 8.62914C40.4496 9.3572 40.449 10.5372 41.1762 11.2662L39.7292 12.7136C36.2018 9.90856 31.9598 8.14722 27.4828 7.6293V5.59704H29.3484C30.3786 5.59574 31.213 4.7613 31.2142 3.7315V1.86554C31.213 0.835736 30.3786 0.00130245 29.3484 0H20.0198C18.99 0.00130245 18.1556 0.835736 18.1542 1.86554V3.7315C18.1556 4.7613 18.99 5.59574 20.0198 5.59704H21.8858V7.6293C9.6636 9.06284 0.445762 19.4116 0.429702 31.7176ZM24.6842 54.1062C12.6835 54.1066 2.81752 44.6444 2.31694 32.654C1.81638 20.6642 10.8597 10.4122 22.8184 9.41278C23.4344 9.36154 24.0552 9.32854 24.6842 9.32854C25.3134 9.32854 25.9342 9.3611 26.5498 9.41278C38.5088 10.4122 47.5518 20.6642 47.0516 32.654C46.551 44.6444 36.6846 54.1066 24.6842 54.1062ZM43.815 8.62826L47.7736 12.5864L46.4542 13.9062L42.496 9.94808L43.815 8.62826ZM42.4952 12.5855L43.8164 13.9062L42.4718 15.2508C42.048 14.794 41.6078 14.3534 41.1506 13.9301L42.4952 12.5855ZM20.0198 1.86554H29.3484L29.3504 3.7315H20.0198V1.86554ZM23.7512 5.59704H25.6172V7.48646C25.3072 7.47474 24.9968 7.46302 24.6842 7.46302C24.3712 7.46302 24.0612 7.47474 23.7512 7.48646V5.59704Z" fill="#262626"/>
<path d="M39.1966 17.2052C39.1822 17.1909 39.1636 17.1866 39.1488 17.1735C31.1536 9.20127 18.215 9.20127 10.2198 17.1735C10.205 17.1866 10.1864 17.1909 10.172 17.2052C10.1581 17.2191 10.1534 17.2378 10.1403 17.2526C2.16806 25.2478 2.16806 38.1868 10.1403 46.182C10.1534 46.1968 10.1577 46.2154 10.172 46.2294C10.1864 46.2436 10.205 46.248 10.2198 46.261C18.215 54.2334 31.1536 54.2334 39.1488 46.261C39.1636 46.2484 39.1822 46.2436 39.1966 46.2294C39.2104 46.2154 39.2152 46.1968 39.2282 46.182C47.2006 38.1868 47.2006 25.2478 39.2282 17.2526C39.2152 17.2378 39.2104 17.2191 39.1966 17.2052ZM37.18 17.9025L35.238 19.8444C34.9958 20.0784 34.8986 20.4254 34.9836 20.7514C35.0692 21.0778 35.324 21.3322 35.65 21.4178C35.976 21.5032 36.323 21.406 36.5574 21.1634L38.499 19.2218C41.3886 22.4042 43.0836 26.4912 43.294 30.7846H40.5428C40.0276 30.7846 39.6098 31.2022 39.6098 31.7176C39.6098 32.2324 40.0276 32.65 40.5428 32.65H43.294C43.0836 36.9434 41.3886 41.0304 38.4994 44.2128L36.5574 42.2712C36.1914 41.9178 35.6096 41.9226 35.2498 42.2826C34.8898 42.6424 34.885 43.2242 35.2384 43.5902L37.18 45.5322C33.9976 48.4218 29.9106 50.1168 25.6172 50.3272V47.576C25.6172 47.0608 25.1996 46.643 24.6844 46.643C24.169 46.643 23.7514 47.0608 23.7514 47.576V50.3272C19.458 50.1168 15.371 48.4218 12.1886 45.5326L14.1302 43.5906C14.3728 43.3566 14.4701 43.0098 14.3846 42.6832C14.2995 42.3572 14.0446 42.1024 13.7186 42.0172C13.3921 41.9318 13.0452 42.029 12.8112 42.2716L10.8693 44.2128C7.98002 41.0304 6.2851 36.9434 6.0741 32.65H8.82574C9.34064 32.65 9.75828 32.2324 9.75828 31.7176C9.75828 31.2022 9.34064 30.7846 8.82574 30.7846H6.0741C6.2851 26.4912 7.97958 22.4042 10.8693 19.2218L12.8108 21.1634C13.0452 21.406 13.3921 21.5032 13.7182 21.4178C14.0442 21.3322 14.299 21.0778 14.3846 20.7514C14.4697 20.4254 14.3724 20.0784 14.1302 19.8444L12.1886 17.9025C19.2678 11.4458 30.1008 11.4458 37.18 17.9025Z" fill="#262626"/>
<path d="M24.6846 35.449C26.5624 35.4528 28.1492 34.0584 28.3862 32.1954C28.6232 30.333 27.4362 28.585 25.6176 28.1188V15.8588C25.6176 15.3439 25.2 14.9263 24.6846 14.9263C24.1694 14.9263 23.7516 15.3439 23.7516 15.8588V28.1188C21.933 28.585 20.746 30.333 20.9832 32.1954C21.2202 34.0584 22.807 35.4528 24.6846 35.449ZM24.6846 29.8518C25.7148 29.8518 26.5502 30.6872 26.5502 31.7178C26.5502 32.748 25.7148 33.5834 24.6846 33.5834C23.654 33.5834 22.8186 32.748 22.8186 31.7178C22.8204 30.6876 23.6548 29.8532 24.6846 29.8518Z" fill="#ED9121"/>
</svg>
