<svg width="18" height="18" viewBox="0 0 18 18" fill="none" xmlns="http://www.w3.org/2000/svg">
<path d="M1.12501 3.90936C1.71564 3.90936 2.61564 3.90936 3.12189 3.90936C3.37501 3.90936 3.57189 4.07811 3.65626 4.30311C3.90939 5.03436 4.47189 6.63749 5.11876 7.73436C5.99064 9.16874 6.55314 9.70311 6.91876 9.64686C7.28439 9.56249 7.17189 8.60624 7.17189 7.84686C7.17189 7.08749 7.25626 5.79374 6.89064 5.20311L6.32814 4.38749C6.18751 4.19061 6.32814 3.93749 6.55314 3.93749H9.75939C10.0688 3.93749 10.3219 4.19061 10.3219 4.49999V8.57811C10.3219 8.57811 10.4625 9.30936 11.25 8.54999C12.0375 7.79061 12.8813 6.38436 13.5844 4.94999L13.8656 4.27499C13.95 4.07811 14.1469 3.93749 14.3719 3.93749H16.4531C16.8469 3.93749 17.1281 4.33124 16.9875 4.69686L16.7625 5.28749C16.7625 5.28749 16.0031 6.80624 15.2156 7.87499C14.4281 8.97186 14.2594 9.22499 14.3719 9.50624C14.4844 9.78749 16.5094 11.6719 17.0156 12.5719C17.1563 12.825 17.2688 13.05 17.3813 13.2469C17.5781 13.6125 17.2969 14.0906 16.875 14.0906H14.5125C14.3156 14.0906 14.1188 13.9781 14.0344 13.8094L13.8094 13.4437C13.8094 13.4437 12.375 11.7562 11.5031 11.2219C10.6031 10.7156 10.6313 11.4469 10.6313 11.4469V12.9375C10.6313 13.5562 10.125 14.0625 9.50626 14.0625H8.94376C8.94376 14.0625 5.85001 14.0625 3.37501 10.3781C1.43439 7.50936 0.787513 5.65311 0.562513 4.58436C0.506263 4.24686 0.759388 3.90936 1.12501 3.90936Z" fill="white"/>
</svg>
