<svg width="32" height="32" viewBox="0 0 32 32" fill="none" xmlns="http://www.w3.org/2000/svg">
<g clip-path="url(#clip0_3006_290)">
<path fill-rule="evenodd" clip-rule="evenodd" d="M16 32C24.8366 32 32 24.8366 32 16C32 7.16344 24.8366 0 16 0C7.16344 0 0 7.16344 0 16C0 24.8366 7.16344 32 16 32Z" fill="black"/>
<path fill-rule="evenodd" clip-rule="evenodd" d="M16.038 24.6512C14.5124 24.6512 13.0792 24.2613 11.8323 23.577L7.01538 25.1077L8.58565 20.4757C7.79362 19.1746 7.33735 17.6488 7.33735 16.0179C7.33735 11.2498 11.2327 7.38461 16.0382 7.38461C20.8431 7.38461 24.7385 11.2498 24.7385 16.0179C24.7385 20.786 20.8433 24.6512 16.038 24.6512ZM16.038 8.75953C12.0042 8.75953 8.7231 12.0157 8.7231 16.0179C8.7231 17.6061 9.24081 19.0769 10.1163 20.2736L9.20261 22.9691L12.0135 22.0757C13.1686 22.834 14.5522 23.2763 16.038 23.2763C20.0712 23.2763 23.3529 20.0204 23.3529 16.0181C23.3529 12.0159 20.0712 8.75953 16.038 8.75953ZM20.4314 18.0063C20.3778 17.9182 20.2356 17.8651 20.0227 17.7593C19.8093 17.6536 18.7605 17.1414 18.5653 17.0711C18.3696 17.0006 18.2272 16.9649 18.0852 17.1768C17.9432 17.3887 17.5344 17.8651 17.4098 18.0063C17.2853 18.1476 17.1611 18.1654 16.9478 18.0594C16.7347 17.9537 16.0475 17.7302 15.2326 17.0092C14.5987 16.4484 14.1706 15.756 14.0463 15.5439C13.9219 15.3322 14.0331 15.2178 14.1399 15.1125C14.2358 15.0175 14.3531 14.8653 14.4599 14.7419C14.5666 14.6182 14.602 14.5302 14.6729 14.3888C14.7442 14.2476 14.7086 14.1241 14.6552 14.018C14.6018 13.9122 14.1751 12.8709 13.9975 12.4471C13.8199 12.0237 13.6424 12.0942 13.5178 12.0942C13.3933 12.0942 13.2511 12.0765 13.109 12.0765C12.9668 12.0765 12.7356 12.1295 12.5401 12.3412C12.3447 12.5531 11.7939 13.0651 11.7939 14.1062C11.7939 15.1475 12.5578 16.1536 12.6647 16.2946C12.7712 16.4356 14.1397 18.6419 16.3076 19.4893C18.4763 20.3364 18.4763 20.0539 18.8674 20.0186C19.2579 19.9834 20.1287 19.5068 20.3069 19.0127C20.4843 18.5183 20.4843 18.0945 20.4314 18.0063Z" fill="white"/>
</g>
<defs>
<clipPath id="clip0_3006_290">
<rect width="32" height="32" fill="white"/>
</clipPath>
</defs>
</svg>
