<svg width="32" height="32" viewBox="0 0 32 32" fill="none" xmlns="http://www.w3.org/2000/svg">
<path fill-rule="evenodd" clip-rule="evenodd" d="M16 32C24.8366 32 32 24.8366 32 16C32 7.16344 24.8366 0 16 0C7.16344 0 0 7.16344 0 16C0 24.8366 7.16344 32 16 32Z" fill="#25D366"/>
<path fill-rule="evenodd" clip-rule="evenodd" d="M16.038 24.6511C14.5124 24.6511 13.0792 24.2612 11.8323 23.5769L7.01538 25.1076L8.58565 20.4756C7.79363 19.1745 7.33735 17.6487 7.33735 16.0178C7.33735 11.2497 11.2327 7.38452 16.0382 7.38452C20.8431 7.38452 24.7385 11.2497 24.7385 16.0178C24.7385 20.7859 20.8433 24.6511 16.038 24.6511ZM16.038 8.75944C12.0042 8.75944 8.7231 12.0156 8.7231 16.0178C8.7231 17.606 9.24081 19.0768 10.1163 20.2735L9.20261 22.969L12.0135 22.0756C13.1686 22.8339 14.5522 23.2762 16.038 23.2762C20.0712 23.2762 23.3529 20.0203 23.3529 16.018C23.3529 12.0158 20.0712 8.75944 16.038 8.75944ZM20.4314 18.0062C20.3778 17.9181 20.2356 17.865 20.0227 17.7592C19.8093 17.6535 18.7605 17.1413 18.5653 17.071C18.3696 17.0005 18.2272 16.9648 18.0852 17.1767C17.9432 17.3886 17.5344 17.865 17.4098 18.0062C17.2853 18.1475 17.1611 18.1653 16.9478 18.0593C16.7347 17.9536 16.0475 17.7301 15.2326 17.0091C14.5987 16.4483 14.1706 15.7559 14.0463 15.5438C13.9219 15.3321 14.0331 15.2177 14.1399 15.1124C14.2358 15.0175 14.3531 14.8652 14.4599 14.7418C14.5666 14.6181 14.602 14.5301 14.6729 14.3887C14.7442 14.2475 14.7086 14.124 14.6552 14.0179C14.6018 13.9121 14.1751 12.8708 13.9975 12.447C13.8199 12.0236 13.6424 12.0941 13.5178 12.0941C13.3933 12.0941 13.2512 12.0764 13.109 12.0764C12.9668 12.0764 12.7356 12.1294 12.5401 12.3411C12.3447 12.553 11.7939 13.065 11.7939 14.1061C11.7939 15.1474 12.5578 16.1535 12.6647 16.2945C12.7712 16.4355 14.1397 18.6418 16.3076 19.4892C18.4763 20.3364 18.4763 20.0538 18.8674 20.0185C19.2579 19.9833 20.1287 19.5067 20.3069 19.0126C20.4843 18.5182 20.4843 18.0944 20.4314 18.0062Z" fill="white"/>
</svg>
