<svg width="18" height="19" viewBox="0 0 18 19" fill="none" xmlns="http://www.w3.org/2000/svg">
<path fill-rule="evenodd" clip-rule="evenodd" d="M9.03825 17.6512C7.51268 17.6512 6.07948 17.2613 4.83256 16.577L0.015625 18.1077L1.58589 13.4757C0.793866 12.1746 0.337595 10.6488 0.337595 9.01792C0.337595 4.24982 4.23293 0.384613 9.03844 0.384613C13.8434 0.384613 17.7387 4.24982 17.7387 9.01792C17.7387 13.786 13.8436 17.6512 9.03825 17.6512ZM9.03825 1.75953C5.00447 1.75953 1.72334 5.01565 1.72334 9.01792C1.72334 10.6061 2.24105 12.0769 3.11657 13.2736L2.20285 15.9691L5.01373 15.0757C6.16888 15.834 7.55246 16.2763 9.03825 16.2763C13.0714 16.2763 16.3532 13.0204 16.3532 9.01812C16.3532 5.01585 13.0714 1.75953 9.03825 1.75953ZM13.4316 11.0063C13.378 10.9182 13.2359 10.8651 13.023 10.7593C12.8095 10.6536 11.7607 10.1414 11.5656 10.0711C11.3698 10.0006 11.2274 9.96492 11.0855 10.1768C10.9435 10.3887 10.5347 10.8651 10.41 11.0063C10.2856 11.1476 10.1613 11.1654 9.94803 11.0594C9.73496 10.9537 9.0477 10.7302 8.23283 10.0092C7.59894 9.44839 7.17083 8.75601 7.04657 8.54392C6.92211 8.33223 7.03337 8.21782 7.14011 8.11247C7.23601 8.01755 7.35337 7.86533 7.46011 7.74186C7.56684 7.61819 7.60228 7.53016 7.67318 7.38877C7.74446 7.24758 7.70882 7.12411 7.65545 7.01797C7.60209 6.91222 7.17535 5.87089 6.99773 5.44711C6.82011 5.02373 6.64268 5.09423 6.51803 5.09423C6.39357 5.09423 6.25139 5.0765 6.10921 5.0765C5.96703 5.0765 5.73585 5.12947 5.5403 5.34117C5.34495 5.55306 4.79416 6.06506 4.79416 7.10619C4.79416 8.14752 5.55803 9.1536 5.66495 9.29459C5.77149 9.43559 7.13991 11.6419 9.30784 12.4893C11.4765 13.3364 11.4765 13.0539 11.8676 13.0186C12.2581 12.9834 13.1289 12.5068 13.3071 12.0127C13.4846 11.5183 13.4846 11.0945 13.4316 11.0063Z" fill="white"/>
</svg>
