<svg width="18" height="14" viewBox="0 0 18 14" fill="none" xmlns="http://www.w3.org/2000/svg">
<path d="M17.8298 3.15986C17.8298 3.15986 17.6542 1.83515 17.1143 1.25189C16.4291 0.487352 15.6618 0.482848 15.3099 0.439498C12.7894 0.244141 9.00894 0.244141 9.00894 0.244141H9.0005C9.0005 0.244141 5.22003 0.244141 2.70009 0.439498C2.34822 0.482848 1.58143 0.487352 0.895715 1.25189C0.356372 1.83515 0.180156 3.15986 0.180156 3.15986C0.180156 3.15986 0 4.71427 0 6.26868V7.72569C0 9.28123 0.180156 10.8351 0.180156 10.8351C0.180156 10.8351 0.355809 12.1592 0.895715 12.7414C1.58143 13.5059 2.48053 13.4828 2.88138 13.5628C4.32206 13.7103 9.005 13.7559 9.005 13.7559C9.005 13.7559 12.7894 13.7491 15.3099 13.556C15.6618 13.511 16.4291 13.5065 17.1143 12.7419C17.6536 12.1598 17.8298 10.8356 17.8298 10.8356C17.8298 10.8356 18.01 9.28123 18.01 7.72626V6.26924C18.01 4.71427 17.8298 3.15986 17.8298 3.15986Z" fill="white"/>
<path d="M6.75586 3.62207V10.3779L12.3857 7L6.75586 3.62207Z" fill="black"/>
</svg>
