<svg width="47" height="50" viewBox="0 0 47 50" fill="none" xmlns="http://www.w3.org/2000/svg">
<g clip-path="url(#clip0_373_3643)">
<path d="M5.49313 34.7979C8.82168 35.1221 12.2668 36.0264 15.6973 37.5107V41.3281L1.62939 38.666V7.01172L5.49313 7.74219V34.7979ZM23.4816 41.9981V42.8008L20.6543 42.2656V40.0742C21.6026 40.6465 22.5435 41.2646 23.4761 41.9277V42.0059C23.478 42.0029 23.4798 42.001 23.4816 41.9981Z" stroke="black" stroke-width="1.8" stroke-miterlimit="10" stroke-linecap="round" stroke-linejoin="round"/>
<path d="M23.5875 11.981V42.0062L23.5346 41.9963L23.5041 41.9906L23.4882 41.9878L23.4816 41.9864L23.4763 41.9851V12.1219C23.4775 12.119 23.4802 12.1162 23.4816 12.1134V11.9612L23.4896 11.9626L23.5042 11.9654L23.5346 11.9711L23.5704 11.9781L23.5875 11.981ZM8.24615 31.6445C10.4272 31.5947 13.0563 32.3867 15.6973 34.0205V37.5107C12.2669 36.0264 8.82172 35.1221 5.49316 34.7978V4.77344C6.40287 4.86133 7.32176 4.99414 8.24615 5.16992V31.6445ZM23.4762 41.8271V41.9277C22.5435 41.2646 21.6026 40.6465 20.6543 40.0742V38.1729C21.6467 39.2559 22.5968 40.4746 23.4762 41.8271Z" stroke="black" stroke-width="1.8" stroke-miterlimit="10" stroke-linecap="round" stroke-linejoin="round"/>
<path d="M23.5874 11.981V42.0062C23.5794 42.0005 23.5728 41.9949 23.5649 41.9906C23.5544 41.9822 23.5451 41.9751 23.5345 41.9681C23.5265 41.9624 23.5186 41.9569 23.5106 41.9526C23.5013 41.9441 23.4908 41.937 23.4815 41.9315C23.4802 41.9301 23.4776 41.9286 23.4762 41.9273V12.1219C23.4775 12.1191 23.4801 12.1162 23.4815 12.1134V11.9514C23.4642 11.9232 23.4471 11.895 23.4272 11.8683C23.4458 11.8795 23.463 11.8922 23.4815 11.9063C23.4987 11.9175 23.5172 11.9302 23.5345 11.9429C23.545 11.9499 23.5543 11.957 23.5649 11.9655C23.5676 11.9668 23.5716 11.9697 23.5742 11.9711C23.5782 11.9754 23.5835 11.9782 23.5874 11.981Z" stroke="black" stroke-width="1.8" stroke-miterlimit="10" stroke-linecap="round" stroke-linejoin="round"/>
<path d="M23.4816 11.9512V12.1133C23.4798 12.1162 23.4779 12.1192 23.4761 12.1221V41.8272C22.5967 40.4746 21.6466 39.2559 20.6543 38.1729C19.0726 36.4463 17.3826 35.0616 15.6972 34.0205C13.0562 32.3868 10.4272 31.5948 8.24609 31.6446V1.7598C12.4899 1.66508 18.431 4.75492 22.8583 11.0284C23.0511 11.3018 23.242 11.5821 23.4275 11.8682C23.4467 11.8955 23.4642 11.9229 23.4816 11.9512Z" stroke="#ED9121" stroke-width="1.8" stroke-miterlimit="10" stroke-linecap="round" stroke-linejoin="round"/>
<path d="M23.5927 12.1219V42.0062C23.5914 42.0034 23.5887 42.0005 23.5873 41.9977C23.5847 41.9949 23.5834 41.9907 23.5807 41.9878C23.5727 41.9766 23.5661 41.9639 23.5582 41.9526C23.5502 41.9399 23.5424 41.9287 23.5344 41.9173C23.5171 41.8892 23.4999 41.8624 23.4814 41.8356C23.4814 41.8328 23.4787 41.8299 23.4761 41.8271V12.1219C23.4774 12.1191 23.48 12.1163 23.4814 12.1134V11.9514C23.4853 11.9556 23.488 11.9584 23.4894 11.9626C23.492 11.9655 23.4933 11.9683 23.4947 11.9711C23.4974 11.974 23.4987 11.9753 23.4987 11.9782C23.5119 11.9965 23.5238 12.0148 23.5344 12.0332C23.5529 12.0599 23.5701 12.0867 23.5873 12.1134C23.5886 12.1163 23.5913 12.1191 23.5927 12.1219Z" stroke="black" stroke-width="1.8" stroke-miterlimit="10" stroke-linecap="round" stroke-linejoin="round"/>
<path d="M45.4394 7.01135V38.6663L23.5874 42.8007V41.9978C23.5887 42.0006 23.5913 42.0034 23.5927 42.0063V41.9274C29.4692 37.748 35.7045 35.3701 41.5756 34.7983V7.74241L45.4394 7.01135Z" stroke="black" stroke-width="1.8" stroke-miterlimit="10" stroke-linecap="round" stroke-linejoin="round"/>
<path d="M23.5927 12.1218V41.985L23.5874 41.9864L23.5808 41.9877L23.5649 41.9906L23.5344 41.9962L23.4814 42.0061V11.9809L23.4986 11.9781L23.5343 11.971L23.5648 11.9654L23.5794 11.9625L23.5874 11.9612V12.1133C23.5887 12.1162 23.5913 12.119 23.5927 12.1218Z" stroke="black" stroke-width="1.8" stroke-miterlimit="10" stroke-linecap="round" stroke-linejoin="round"/>
<path d="M41.5757 4.77295V34.7981C35.7045 35.37 29.4692 37.7479 23.5928 41.9272V41.8272C28.071 34.9376 34.3777 31.5441 38.8228 31.6441V5.17021C39.7471 4.99414 40.6661 4.86172 41.5757 4.77295Z" stroke="black" stroke-width="1.8" stroke-miterlimit="10" stroke-linecap="round" stroke-linejoin="round"/>
<path d="M23.5874 12.1134C23.5887 12.1162 23.5913 12.1191 23.5927 12.1219V41.9273C23.5914 41.9286 23.5888 41.9301 23.5874 41.9315C23.5781 41.9371 23.5675 41.9442 23.5583 41.9526C23.5503 41.9568 23.5424 41.9624 23.5344 41.9681C23.5239 41.9751 23.5146 41.9822 23.5039 41.9906C23.496 41.9948 23.4893 42.0005 23.4814 42.0062V11.981C23.4854 11.9781 23.4907 11.9753 23.4947 11.9711C23.4973 11.9698 23.5013 11.9669 23.5039 11.9655C23.5145 11.957 23.5238 11.9499 23.5344 11.9429C23.5517 11.9302 23.5701 11.9175 23.5874 11.9063C23.6059 11.8922 23.6231 11.8795 23.6416 11.8683C23.6218 11.895 23.6045 11.9232 23.5874 11.9514V12.1134Z" stroke="black" stroke-width="1.8" stroke-miterlimit="10" stroke-linecap="round" stroke-linejoin="round"/>
<path d="M38.8228 1.75991V31.6442C34.3777 31.5442 28.0709 34.9375 23.5928 41.8273V12.1219C23.5915 12.1191 23.5889 12.1163 23.5875 12.1134V11.9514C23.6047 11.9232 23.6219 11.8951 23.6417 11.8683C23.8284 11.5824 24.0178 11.302 24.2124 11.0288C28.639 4.75473 34.5791 1.66557 38.8228 1.75991ZM20.6543 38.1729V48.3399L18.1758 45.7032L15.6973 48.3399V34.0206C17.3827 35.0616 19.0726 36.4463 20.6543 38.1729Z" stroke="#ED9121" stroke-width="1.8" stroke-miterlimit="10" stroke-linecap="round" stroke-linejoin="round"/>
</g>
<defs>
<clipPath id="clip0_373_3643">
<rect width="47" height="50" fill="white"/>
</clipPath>
</defs>
</svg>
