<svg width="57" height="57" viewBox="0 0 57 57" fill="none" xmlns="http://www.w3.org/2000/svg">
<g clip-path="url(#clip0_373_3671)">
<path d="M36.7269 38.4265C36.7269 36.5307 35.1981 34.9214 33.2214 34.9214H25.2118C24.8285 34.9214 24.5601 34.5215 24.73 34.1708C25.561 32.4452 26.8452 30.7621 28.6547 29.0244C28.7031 28.9783 28.7456 28.927 28.7822 28.8713C30.1494 26.7922 30.0865 24.0706 28.5682 22.0577C27.8046 21.0505 26.3182 21.016 25.5172 21.9751L22.0721 26.0699C21.1606 27.1535 20.1052 28.0425 18.9346 28.7139C15.68 30.5882 14.0587 32.9905 13.2699 34.6788C13.0528 35.1494 12.5623 35.4537 12.0197 35.4537H10.7561C10.4078 34.0409 9.1387 32.9854 7.61963 32.9854H0.890625C0.398777 32.9854 0 33.3837 0 33.876V55.3092C0 55.8014 0.398777 56.1998 0.890625 56.1998H7.61952C9.13848 56.1998 10.4075 55.1447 10.7559 53.7315C11.0488 53.7486 12.2994 53.6255 13.9574 54.1385L18.7089 55.6014C19.7526 55.9241 20.8368 56.0876 21.9313 56.0876H30.9824C32.4258 56.0876 33.6661 55.1005 33.9317 53.7376C34.0669 53.0362 33.9376 52.3303 33.5957 51.7273C34.7466 51.2073 35.553 50.0521 35.553 48.7069C35.553 47.9661 35.2998 47.2887 34.8873 46.7366C35.9774 46.1402 36.727 44.9943 36.727 43.6641C36.727 42.6237 36.2624 41.698 35.5401 41.0554C36.3132 40.3746 36.7269 39.4278 36.7269 38.4265ZM9.07758 52.96C9.07758 53.7645 8.42353 54.4185 7.61941 54.4185H1.78125V34.7665H7.61941C8.42353 34.7665 9.07758 35.4205 9.07758 36.2242V52.96ZM27.5763 40.159C27.0845 40.159 26.6857 40.5573 26.6857 41.0496C26.6857 41.5418 27.0845 41.9403 27.5763 41.9403H33.2215C34.1722 41.9403 34.9459 42.7134 34.9459 43.6641C34.9459 44.619 34.1723 45.3967 33.2215 45.3967H27.5763C27.0845 45.3967 26.6857 45.795 26.6857 46.2873C26.6857 46.7795 27.0845 47.1779 27.5763 47.1779H32.243C33.0857 47.1779 33.7715 47.8641 33.7715 48.7069C33.7715 49.5541 33.0857 50.2429 32.243 50.2429H27.5763C27.0845 50.2429 26.6857 50.6412 26.6857 51.1335C26.6857 51.6257 27.0845 52.0241 27.5763 52.0241H31.0683C31.7566 52.0241 32.3284 52.6452 32.183 53.3984C32.082 53.9158 31.5659 54.3065 30.9823 54.3065H21.9312C21.015 54.3065 20.1078 54.1699 19.234 53.8995L14.4821 52.4365C12.6322 51.8646 11.0312 51.9612 10.8588 51.9503V37.2349H12.0195C13.2549 37.2349 14.3809 36.5243 14.8858 35.4283C15.5637 33.9758 16.9714 31.8998 19.8216 30.2577C21.1728 29.4835 22.3888 28.4608 23.435 27.2162L26.8818 23.1197C26.9516 23.0352 27.0771 23.0394 27.147 23.1318C28.1847 24.5078 28.2504 26.3658 27.3453 27.8128C25.4192 29.6749 24.0385 31.5022 23.1256 33.3957C22.3845 34.9301 23.5173 36.7025 25.2117 36.7025H33.2213C34.1885 36.7025 34.9457 37.4923 34.9457 38.4263C34.9457 39.3666 34.1767 40.1589 33.2213 40.1589H27.5764L27.5763 40.159ZM53.2871 0.800171H38.082C34.0755 0.800171 30.8156 4.05997 30.8156 8.067V22.2606C30.8156 24.2862 33.5055 25.0085 34.5164 23.2486L37.1004 18.7563H49.7336C53.7401 18.7563 57 15.4965 57 11.4895V4.51308C57 2.46575 55.3344 0.800171 53.2871 0.800171ZM55.2188 11.4895C55.2188 14.5143 52.7583 16.975 49.7337 16.975H36.5852C36.2664 16.975 35.972 17.1456 35.8133 17.4212L32.9723 22.3606C32.8667 22.5456 32.597 22.4665 32.597 22.2607V8.06689C32.597 5.04199 35.0574 2.58131 38.082 2.58131H53.287C54.3521 2.58131 55.2188 3.44755 55.2188 4.51308V11.4895Z" fill="black"/>
<path d="M47.209 7.30768L46.0414 7.12588L45.5278 6.08485C44.865 4.74034 42.9511 4.74468 42.2888 6.08218L41.7526 7.13979L40.6062 7.30768C39.124 7.52399 38.535 9.34554 39.6077 10.39L40.444 11.2189L40.2479 12.3652C39.9935 13.8386 41.5443 14.9681 42.8706 14.2682L43.9209 13.7281L44.9437 14.2674C46.2714 14.9691 47.819 13.8405 47.5686 12.3687L47.3738 11.2189L47.3812 11.1963L48.2088 10.3882C49.2805 9.34576 48.6897 7.52365 47.209 7.30768ZM46.1379 9.92032C45.7131 10.3344 45.5182 10.931 45.6178 11.5162L45.7756 12.6922L44.7536 12.1529C44.2179 11.8691 43.5839 11.8783 43.0664 12.1511L42.0035 12.666L42.2001 11.5197C42.3006 10.9326 42.1053 10.3342 41.6787 9.91932L40.8642 9.06955L42.0105 8.90167C42.5972 8.81651 43.1051 8.44768 43.3682 7.91631L43.9305 6.8726L44.4433 7.91286C44.7059 8.44612 45.2142 8.81651 45.8031 8.90167L46.9655 9.11308L46.1379 9.92032Z" fill="#ED9121"/>
</g>
<defs>
<clipPath id="clip0_373_3671">
<rect width="57" height="57" fill="white"/>
</clipPath>
</defs>
</svg>
