<svg width="57" height="57" viewBox="0 0 57 57" fill="none" xmlns="http://www.w3.org/2000/svg">
<g clip-path="url(#clip0_373_3614)">
<path d="M29.7921 16.131L32.3001 23.028C32.3893 23.2905 32.5542 23.5207 32.7739 23.6897C32.9937 23.8587 33.2585 23.959 33.5351 23.978L40.5461 24.263C40.835 24.2845 41.1107 24.3924 41.3375 24.5728C41.5643 24.7531 41.7315 24.9974 41.8176 25.274C41.9037 25.5507 41.9045 25.8468 41.8201 26.1239C41.7356 26.4011 41.5698 26.6464 41.3441 26.828L35.8341 31.369C35.6185 31.5509 35.4592 31.7905 35.3751 32.0598C35.2909 32.329 35.2854 32.6167 35.3591 32.889L37.2591 39.957C37.3481 40.2294 37.3506 40.5228 37.2661 40.7967C37.1817 41.0706 37.0144 41.3116 36.7874 41.4866C36.5603 41.6616 36.2847 41.7619 35.9983 41.7738C35.7119 41.7857 35.4288 41.7085 35.1881 41.553L29.2601 37.468C29.0381 37.3101 28.7725 37.2252 28.5001 37.2252C28.2277 37.2252 27.962 37.3101 27.7401 37.468L21.8881 41.553C21.6431 41.7194 21.3513 41.8031 21.0553 41.7917C20.7594 41.7804 20.4748 41.6746 20.2433 41.4898C20.0119 41.305 19.8456 41.051 19.7689 40.765C19.6922 40.4789 19.7091 40.1758 19.8171 39.9L21.7171 32.832C21.7908 32.5597 21.7852 32.272 21.7011 32.0028C21.6169 31.7335 21.4577 31.4939 21.2421 31.312L15.7321 26.771C15.5064 26.5894 15.3405 26.3441 15.2561 26.0669C15.1716 25.7898 15.1725 25.4937 15.2585 25.217C15.3446 24.9404 15.5119 24.6961 15.7387 24.5158C15.9654 24.3354 16.2412 24.2275 16.5301 24.206L23.5411 23.921C23.8177 23.902 24.0825 23.8017 24.3022 23.6327C24.522 23.4637 24.6868 23.2335 24.7761 22.971L27.2081 16.074C27.3072 15.8076 27.4868 15.5788 27.722 15.4192C27.9572 15.2596 28.2362 15.1772 28.5204 15.1834C28.8045 15.1897 29.0796 15.2843 29.3075 15.4541C29.5354 15.6239 29.7048 15.8605 29.7921 16.131Z" stroke="#ED9121" stroke-width="2" stroke-linecap="round" stroke-linejoin="round"/>
<path d="M51.3 16.188C51.1456 13.4567 49.9911 10.8777 48.0567 8.94332C46.1222 7.00889 43.5433 5.85435 40.812 5.69999C38.9968 5.64859 37.2538 4.97819 35.872 3.79999C33.8334 2.00973 31.2131 1.02246 28.5 1.02246C25.7869 1.02246 23.1665 2.00973 21.128 3.79999C19.7462 4.97819 18.0032 5.64859 16.188 5.69999C13.4567 5.85435 10.8777 7.00889 8.94332 8.94332C7.00889 10.8777 5.85435 13.4567 5.69999 16.188C5.64859 18.0032 4.97819 19.7462 3.79999 21.128C2.00973 23.1665 1.02246 25.7869 1.02246 28.5C1.02246 31.2131 2.00973 33.8334 3.79999 35.872C4.97819 37.2538 5.64859 38.9968 5.69999 40.812C5.85435 43.5433 7.00889 46.1222 8.94332 48.0567C10.8777 49.9911 13.4567 51.1456 16.188 51.3C18.0032 51.3514 19.7462 52.0218 21.128 53.2C23.1665 54.9902 25.7869 55.9775 28.5 55.9775C31.2131 55.9775 33.8334 54.9902 35.872 53.2C37.2538 52.0218 38.9968 51.3514 40.812 51.3C43.5433 51.1456 46.1222 49.9911 48.0567 48.0567C49.9911 46.1222 51.1456 43.5433 51.3 40.812C51.3514 38.9968 52.0218 37.2538 53.2 35.872C54.9902 33.8334 55.9775 31.2131 55.9775 28.5C55.9775 25.7869 54.9902 23.1665 53.2 21.128C52.0218 19.7462 51.3514 18.0032 51.3 16.188Z" stroke="black" stroke-width="2" stroke-linecap="round" stroke-linejoin="round"/>
</g>
<defs>
<clipPath id="clip0_373_3614">
<rect width="57" height="57" fill="white"/>
</clipPath>
</defs>
</svg>
