<svg width="55" height="55" viewBox="0 0 55 55" fill="none" xmlns="http://www.w3.org/2000/svg">
<g clip-path="url(#clip0_373_3665)">
<path d="M39.1016 28.6172C39.1016 27.6289 38.6719 26.6836 37.9844 25.9961C36.7812 24.793 34.8906 24.6211 33.4727 25.4375C32.0547 24.6211 30.1641 24.836 29.0039 26.0391C28.3164 26.7266 27.9297 27.6719 27.9297 28.6602C27.9297 29.6485 28.3594 30.5938 29.0469 31.2813L32.8281 34.9766C33.043 35.1914 33.3008 35.2774 33.6016 35.2774C33.9023 35.2774 34.1602 35.1485 34.375 34.9766L38.0703 31.2813C38.7148 30.5078 39.1016 29.6055 39.1016 28.6172ZM36.8242 29.9922L33.6016 33.2578L30.25 30.0352C29.8633 29.6485 29.6484 29.1758 29.6484 28.6172C29.6484 28.1016 29.8633 27.586 30.207 27.2422C30.5938 26.8555 31.1094 26.6406 31.625 26.6406C32.0977 26.6406 32.5703 26.8125 32.9141 27.1133C33.2578 27.3711 33.7305 27.3711 34.0312 27.1133C34.8047 26.4258 36.0078 26.4688 36.7812 27.1992C37.168 27.586 37.3828 28.0586 37.3828 28.6172C37.3828 29.1328 37.168 29.6485 36.8242 29.9922ZM36.3516 19.3789C36.4375 19.3789 36.5664 19.3789 36.6523 19.336C37.082 19.1641 37.3398 18.6914 37.168 18.2188C36.9961 17.7891 36.5234 17.5313 36.0508 17.7031C35.6211 17.875 35.3633 18.3477 35.5352 18.8203C35.6641 19.1641 35.9648 19.3789 36.3516 19.3789ZM31.5391 14.0938C31.668 14.1797 31.7969 14.2227 31.9688 14.2227C32.2695 14.2227 32.5703 14.0508 32.6992 13.793C32.9141 13.3633 32.7852 12.8477 32.3984 12.6328C31.9688 12.375 31.4531 12.5469 31.2383 12.9336C30.9805 13.3203 31.1523 13.836 31.5391 14.0938ZM34.5898 16.4141C34.8047 16.4141 34.9766 16.3711 35.1484 16.1992C35.4922 15.8985 35.5781 15.3399 35.2344 14.9961C34.9336 14.6524 34.375 14.5664 34.0312 14.9102C33.6875 15.211 33.6445 15.7696 33.9453 16.1133C34.1172 16.2852 34.375 16.4141 34.5898 16.4141ZM36.0938 21.8711C36.0938 22.3867 36.4805 22.7735 36.9531 22.7735C37.4258 22.7735 37.8125 22.3867 37.8125 21.9141V21.8711C37.8125 21.3985 37.4258 21.0117 36.9531 21.0117C36.4375 21.0117 36.0938 21.3985 36.0938 21.8711ZM28.5742 13.0196C28.6172 13.0196 28.6602 13.0196 28.7031 13.0196C29.1328 13.0196 29.4766 12.7188 29.5625 12.2891C29.6484 11.8164 29.3477 11.3867 28.875 11.3008C28.4023 11.2149 27.9727 11.5156 27.8867 11.9883C27.8008 12.5039 28.1445 12.9336 28.5742 13.0196ZM18.9492 27.6289C18.6055 27.9297 18.5195 28.4883 18.8633 28.8321C19.0352 29.0469 19.293 29.1328 19.5078 29.1328C19.7227 29.1328 19.8945 29.0469 20.0664 28.918C20.4102 28.6172 20.4531 28.0586 20.1523 27.7149C19.8516 27.3711 19.293 27.3281 18.9492 27.6289ZM22.5586 29.7344C22.1289 29.5196 21.6133 29.6485 21.3984 30.0352C21.1836 30.4219 21.3125 30.9805 21.6992 31.1953C21.8281 31.2813 22 31.3242 22.1289 31.3242C22.4297 31.3242 22.7305 31.1524 22.8594 30.8946C23.1172 30.5078 22.9883 29.9922 22.5586 29.7344ZM16.9727 25.6094C17.1016 25.9531 17.4453 26.168 17.7891 26.168C17.875 26.168 18.0039 26.168 18.0898 26.125C18.5195 25.9531 18.7773 25.4805 18.6055 25.0078C18.4336 24.5781 17.9609 24.3203 17.4883 24.4922C17.0156 24.6641 16.8008 25.1797 16.9727 25.6094ZM25.4805 30.8086C25.0078 30.7227 24.5781 31.0235 24.4922 31.4961C24.4062 31.9688 24.707 32.3985 25.1797 32.4844C25.2227 32.4844 25.2656 32.4844 25.3516 32.4844C25.7812 32.4844 26.125 32.1836 26.2109 31.7539C26.2969 31.3242 25.9531 30.8946 25.4805 30.8086ZM17.1875 21.0977C16.7148 21.0977 16.3281 21.4844 16.3281 21.9571C16.3281 22.4297 16.7148 22.8164 17.1875 22.8164C17.6602 22.8164 18.0469 22.4297 18.0469 21.9571C18.0469 21.4414 17.6602 21.0547 17.1875 21.0977ZM25.7812 13.5781C25.7812 12.5899 25.3516 11.6446 24.6641 10.9571C23.4609 9.75393 21.5703 9.58205 20.1523 10.3985C18.7344 9.58205 16.8438 9.7969 15.6836 11C14.9961 11.6875 14.6094 12.6328 14.6094 13.6211C14.6094 14.6094 15.0391 15.5547 15.7266 16.2422L19.5078 19.9375C19.7227 20.1524 19.9805 20.2383 20.2813 20.2383C20.582 20.2383 20.8398 20.1094 21.0547 19.9375L24.75 16.2422C25.3945 15.4688 25.7812 14.5664 25.7812 13.5781ZM23.5039 14.9531L20.2813 18.2188L16.9297 14.9961C16.543 14.6094 16.3281 14.1367 16.3281 13.5781C16.3281 13.0625 16.543 12.5469 16.8867 12.2031C17.2734 11.8164 17.7891 11.6016 18.3047 11.6016C18.7773 11.6016 19.25 11.7735 19.5937 12.0742C19.9375 12.3321 20.4102 12.3321 20.7109 12.0742C21.4844 11.3867 22.6875 11.4297 23.4609 12.1602C23.8477 12.5469 24.0625 13.0196 24.0625 13.5781C24.0625 14.0938 23.8477 14.6094 23.5039 14.9531Z" fill="#ED9121"/>
<path d="M54.3555 22.6445L47.1367 6.78907C46.707 5.80079 45.8477 5.11329 44.8164 4.85548C43.7852 4.59767 42.7109 4.76954 41.8516 5.41408C40.5195 6.35939 40.0039 8.12111 40.6055 9.62501L43.6562 17.832C43.5703 17.9609 43.4414 18.0899 43.3555 18.2188C43.0547 18.6914 42.8828 19.3359 42.8398 20.0234C42.7539 21.8711 42.2383 23.7617 41.7656 25.5664V25.6094C41.4648 26.7695 41.1211 27.9727 40.8203 29.1328C40.4336 30.4649 40.0469 31.8828 39.7031 33.2578C39.1875 35.2344 38.8867 37.2969 38.7148 39.4883C38.7148 39.6602 38.7148 39.832 38.7148 40.0039H38.6719C37.4688 40.0039 36.5234 40.9492 36.5234 42.1524V48.168C36.5234 49.3711 37.4688 50.3164 38.6719 50.3164H50.7031C51.9062 50.3164 52.8516 49.3711 52.8516 48.168V42.1094C52.8516 40.9063 51.9062 39.9609 50.7031 39.9609H50.5312C50.5312 39.918 50.5312 39.832 50.5742 39.7891L54.4844 29.1328C54.7852 28.3594 54.957 27.5859 55 26.8125C55.0859 25.3516 54.8711 23.8906 54.3555 22.6445ZM50.7031 41.6797C50.9609 41.6797 51.1328 41.8516 51.1328 42.1094V48.125C51.1328 48.3828 50.9609 48.5547 50.7031 48.5547H38.6719C38.4141 48.5547 38.2422 48.3828 38.2422 48.125V42.1094C38.2422 41.8516 38.4141 41.6797 38.6719 41.6797H50.7031ZM53.2383 26.6836C53.1953 27.2852 53.0664 27.9297 52.8086 28.5313L48.8984 39.2305C48.8984 39.2734 48.8984 39.2734 48.8555 39.3164C48.8125 39.5313 48.7695 39.7461 48.7266 40.0039H40.4336C40.4336 39.875 40.4336 39.7461 40.4336 39.6172C40.5625 37.5547 40.9063 35.5352 41.3789 33.6875C41.7227 32.3125 42.1094 30.9375 42.4961 29.6055C42.8398 28.4453 43.1406 27.2422 43.4844 26.082V26.0391C44 24.1484 44.5156 22.1719 44.6016 20.1524C44.6016 19.7227 44.7305 19.3789 44.8594 19.1641C45.1172 18.7774 45.332 18.7774 45.4609 18.7774C46.2344 18.8203 46.9648 19.9375 47.1367 21.2695C47.4805 23.7188 47.5234 26.8125 45.7188 31.2383C45.5469 31.668 45.7617 32.1836 46.1914 32.3555C46.6211 32.5274 47.1367 32.3125 47.3086 31.8828C49.3281 27.1133 49.1992 23.7188 48.8555 21.0117C48.5547 18.7774 47.2227 17.1445 45.5898 17.0156C45.5039 17.0156 45.375 17.0156 45.2891 17.0156L42.3242 8.98048C42.0234 8.20704 42.2812 7.3047 42.9688 6.78907C43.3984 6.48829 43.957 6.35939 44.4727 6.53126C44.9883 6.66017 45.418 7.04689 45.6758 7.51954L52.8945 23.332C53.1953 24.3203 53.3672 25.4805 53.2383 26.6836Z" fill="black"/>
<path d="M48.5547 45.9766C49.0293 45.9766 49.4141 45.5918 49.4141 45.1172C49.4141 44.6426 49.0293 44.2578 48.5547 44.2578C48.0801 44.2578 47.6953 44.6426 47.6953 45.1172C47.6953 45.5918 48.0801 45.9766 48.5547 45.9766Z" fill="black"/>
<path d="M16.7577 39.9609H16.2851C16.2851 39.789 16.2851 39.6172 16.2851 39.4453C16.1132 37.2539 15.8124 35.1484 15.2968 33.2148C14.953 31.8398 14.5663 30.4648 14.1796 29.0898C13.8359 27.9297 13.5351 26.7695 13.2343 25.5664V25.5234C12.7616 23.7187 12.246 21.8281 12.1601 19.9805C12.1171 19.25 11.9452 18.6484 11.6445 18.1758C11.5155 18.0039 11.3866 17.832 11.2577 17.6601L14.3945 9.58201C14.996 8.03514 14.5234 6.31639 13.1913 5.37107C12.332 4.76951 11.2577 4.55467 10.2265 4.81248C9.19524 5.07029 8.37883 5.80076 7.90617 6.74607L0.687422 22.6445C0.171797 23.8476 -0.0430466 25.3515 0.0858596 26.7695C0.128828 27.543 0.300703 28.3164 0.601485 29.0898L4.51164 39.7461C4.51164 39.832 4.55461 39.875 4.55461 39.9609C3.39445 40.0898 2.57805 40.9922 2.57805 42.1094V48.125C2.57805 49.3281 3.52336 50.2734 4.72648 50.2734H16.7577C17.9609 50.2734 18.9062 49.3281 18.9062 48.125V42.1094C18.9062 40.9062 17.9609 39.9609 16.7577 39.9609ZM2.14836 28.5312C1.93352 27.8867 1.76164 27.2851 1.71867 26.6836C1.63273 25.5234 1.80461 24.3203 2.19133 23.375L9.41008 7.51951C9.62492 7.00389 10.0546 6.66014 10.6132 6.53123C11.1288 6.40232 11.6874 6.48826 12.1171 6.78904C12.8046 7.30467 13.0624 8.16404 12.7616 8.98045L9.62492 17.0156C9.58195 17.0156 9.53899 17.0156 9.45305 17.0156C7.82024 17.1015 6.4882 18.7344 6.18742 21.0117C5.84367 23.6758 5.75774 27.0703 7.7343 31.8828C7.90617 32.3125 8.4218 32.5273 8.85149 32.3555C9.28117 32.1836 9.49602 31.6679 9.32414 31.2383C7.47649 26.8125 7.56242 23.7187 7.90617 21.2695C8.07805 19.9375 8.80852 18.8203 9.58195 18.7773C9.66789 18.7773 9.9257 18.7773 10.1835 19.164C10.3124 19.3789 10.3984 19.7226 10.4413 20.1523C10.5273 22.1719 11.0429 24.1484 11.5585 26.039V26.082C11.8593 27.2851 12.203 28.4453 12.5468 29.6055C12.9335 30.9375 13.3202 32.3125 13.664 33.6875C14.1366 35.5351 14.4374 37.5547 14.6093 39.6172C14.6093 39.7461 14.6093 39.875 14.6093 40.0039H6.23039C6.23039 39.789 6.18742 39.5312 6.10148 39.3164C6.10148 39.2734 6.10149 39.2734 6.05852 39.2305L2.14836 28.5312ZM17.1874 48.125C17.1874 48.3828 17.0155 48.5547 16.7577 48.5547H4.72648C4.46867 48.5547 4.2968 48.3828 4.2968 48.125V42.1094C4.2968 41.8515 4.46867 41.6797 4.72648 41.6797H16.7577C17.0155 41.6797 17.1874 41.8515 17.1874 42.1094V48.125Z" fill="black"/>
<path d="M6.875 45.9766C7.34962 45.9766 7.73438 45.5918 7.73438 45.1172C7.73438 44.6426 7.34962 44.2578 6.875 44.2578C6.40038 44.2578 6.01562 44.6426 6.01562 45.1172C6.01562 45.5918 6.40038 45.9766 6.875 45.9766Z" fill="black"/>
</g>
<defs>
<clipPath id="clip0_373_3665">
<rect width="55" height="55" fill="white"/>
</clipPath>
</defs>
</svg>
