<svg width="50" height="50" viewBox="0 0 50 50" fill="none" xmlns="http://www.w3.org/2000/svg">
<path d="M48.9583 25.7684H46.6458C46.0182 23.6332 44.9198 21.6695 43.4331 20.025C41.9465 18.3805 40.1103 17.0979 38.0625 16.2737C39.425 14.5055 40.1589 12.3252 40.1458 10.0842C40.1458 7.40971 39.0945 4.84475 37.223 2.9536C35.3516 1.06244 32.8133 0 30.1667 0C27.52 0 24.9818 1.06244 23.1103 2.9536C21.2389 4.84475 20.1875 7.40971 20.1875 10.0842C20.1933 12.4454 21.0274 14.728 22.5417 16.5263C21.3333 16.8632 19.5417 17.4316 17.2708 18.2737C15.4627 15.7745 13.3328 13.5302 10.9375 11.6C10.7829 11.4765 10.5968 11.3999 10.4008 11.379C10.2048 11.3581 10.007 11.3938 9.83032 11.482C9.65362 11.5702 9.5053 11.7072 9.40258 11.8771C9.29986 12.0471 9.24695 12.243 9.25001 12.4421V23.1579C7.4097 24.6545 5.70822 26.3175 4.16667 28.1263H1.04167C0.765406 28.1263 0.500454 28.2372 0.305103 28.4346C0.109753 28.632 6.31823e-06 28.8998 6.31823e-06 29.1789V37.0316C-0.000701627 37.237 0.0580977 37.4382 0.169156 37.6103C0.280214 37.7823 0.438675 37.9178 0.625006 38L15.1042 44.3158V46.8842C15.1096 47.7145 15.4384 48.5091 16.0194 49.0962C16.6004 49.6833 17.3867 50.0155 18.2083 50.0211H21.3958C22.2174 50.0155 23.0038 49.6833 23.5848 49.0962C24.1657 48.5091 24.4945 47.7145 24.5 46.8842V44.6316H32.5208V46.8421C32.5263 47.6723 32.8551 48.467 33.4361 49.0541C34.017 49.6412 34.8034 49.9734 35.625 49.979H38.8125C39.6341 49.9734 40.4205 49.6412 41.0014 49.0541C41.5824 48.467 41.9112 47.6723 41.9167 46.8421V41.2211C43.8639 39.6485 45.3654 37.5839 46.269 35.2363C47.1727 32.8887 47.4464 30.3415 47.0625 27.8526H48.9167C49.1929 27.8526 49.4579 27.7417 49.6532 27.5443C49.8486 27.3469 49.9583 27.0792 49.9583 26.8C49.9583 26.5208 49.8486 26.2531 49.6532 26.0557C49.4579 25.8583 49.1929 25.7474 48.9167 25.7474L48.9583 25.7684ZM30.25 2.10526C31.8117 2.10526 33.3382 2.57322 34.6367 3.44996C35.9352 4.3267 36.9472 5.57284 37.5448 7.0308C38.1424 8.48876 38.2988 10.0931 37.9941 11.6408C37.6895 13.1886 36.9375 14.6103 35.8332 15.7262C34.729 16.8421 33.322 17.602 31.7904 17.9098C30.2588 18.2177 28.6712 18.0597 27.2284 17.4558C25.7856 16.8519 24.5525 15.8292 23.6849 14.5171C22.8173 13.2049 22.3542 11.6623 22.3542 10.0842C22.3542 7.96806 23.1861 5.93859 24.6668 4.44224C26.1476 2.9459 28.1559 2.10526 30.25 2.10526ZM40.2917 40L40.1458 40.1684V40.3158C40.1402 40.3788 40.1402 40.4422 40.1458 40.5053C40.1391 40.5753 40.1391 40.6458 40.1458 40.7158V46.8211C40.1405 47.093 40.0312 47.3522 39.8409 47.5445C39.6506 47.7368 39.3941 47.8472 39.125 47.8526H35.6667C35.3976 47.8472 35.141 47.7368 34.9507 47.5445C34.7604 47.3522 34.6512 47.093 34.6458 46.8211V43.4526C34.6457 43.3263 34.6457 43.2 34.6458 43.0737L34.5417 42.9053L34.4167 42.7368H34.2708L34.0833 42.6316H33.8958H33.7083H23.4792C23.2029 42.6316 22.938 42.7425 22.7426 42.9399C22.5473 43.1373 22.4375 43.405 22.4375 43.6842V46.9474C22.4322 47.2193 22.3229 47.4785 22.1326 47.6708C21.9423 47.8632 21.6857 47.9736 21.4167 47.979H18.2292C17.9601 47.9736 17.7035 47.8632 17.5132 47.6708C17.3229 47.4785 17.2137 47.2193 17.2083 46.9474V43.6C17.2266 43.4885 17.2266 43.3747 17.2083 43.2632C17.1793 43.2036 17.1444 43.1472 17.1042 43.0947C17.0678 42.9931 17.0097 42.9009 16.9341 42.8245C16.8585 42.7481 16.7672 42.6894 16.6667 42.6526L2.08334 36.3368V30.2316H4.66667C4.82665 30.2341 4.98503 30.1993 5.12955 30.1299C5.27407 30.0605 5.40083 29.9584 5.50001 29.8316C7.12336 27.8429 8.95329 26.036 10.9583 24.4421L11.1042 24.2737V24.1263C11.1102 24.0633 11.1102 23.9999 11.1042 23.9368C11.1114 23.8669 11.1114 23.7963 11.1042 23.7263V14.7368C13.0057 16.2431 14.6705 18.0318 16.0417 20.0421C16.1193 20.1768 16.2262 20.292 16.3542 20.3789C16.4932 20.4643 16.6503 20.5148 16.8125 20.5263H17.2917C20.9167 19.1789 23.5417 18.4211 24.3958 18.2316C26.1549 19.5448 28.2984 20.2251 30.4845 20.164C32.6707 20.103 34.7737 19.3041 36.4583 17.8947C38.6463 18.5875 40.6036 19.875 42.116 21.6164C43.6285 23.3578 44.6378 25.486 45.0336 27.7683C45.4293 30.0505 45.1963 32.3987 44.3599 34.5561C43.5236 36.7134 42.1162 38.5967 40.2917 40Z" fill="black"/>
<path d="M11.2085 31.5369C12.3131 31.5369 13.2085 30.632 13.2085 29.5158C13.2085 28.3996 12.3131 27.4948 11.2085 27.4948C10.1039 27.4948 9.2085 28.3996 9.2085 29.5158C9.2085 30.632 10.1039 31.5369 11.2085 31.5369Z" fill="#ED9121"/>
<path d="M37.25 21.2842H23.2292C22.9529 21.2842 22.6879 21.3951 22.4926 21.5925C22.2972 21.7899 22.1875 22.0576 22.1875 22.3368C22.1875 22.616 22.2972 22.8837 22.4926 23.0811C22.6879 23.2785 22.9529 23.3894 23.2292 23.3894H37.25C37.5263 23.3894 37.7912 23.2785 37.9866 23.0811C38.1819 22.8837 38.2917 22.616 38.2917 22.3368C38.2917 22.0576 38.1819 21.7899 37.9866 21.5925C37.7912 21.3951 37.5263 21.2842 37.25 21.2842Z" fill="#ED9121"/>
</svg>
