<svg width="64" height="64" viewBox="0 0 64 64" fill="none" xmlns="http://www.w3.org/2000/svg">
<path d="M58.9512 11.0132C52.4651 9.34282 47.3741 15.7575 45.3443 18.8559C40.3116 16.3237 34.1699 16.5762 29.7078 19.919C26.6417 17.5181 22.1642 17.1069 18.6663 18.8717C16.6442 15.7793 11.5478 9.33867 5.04883 11.0132C3.25391 11.4756 2 13.0562 2 14.857V35.8277C2.19507 40.724 8.18433 40.368 11.3013 38.1114C11.6501 38.5948 12.0163 39.0608 12.4006 39.5107C11.5338 41.094 12.1465 43.2344 13.7213 44.1207C14.638 44.7189 15.7457 45.2975 16.8521 45.0756C16.9237 47.6048 19.7251 49.5384 22.0971 48.6209C22.6214 52.1987 27.7188 53.0689 29.4575 49.9213C29.6124 49.6332 30.0701 48.9396 30.1653 48.6314C36.0247 47.6905 41.4879 44.3737 45.2966 39.8498C47.8364 40.7188 50.8015 39.9891 52.7474 38.1413C55.8571 40.3747 61.8137 40.6971 62.0001 35.8276C62 35.8277 62 14.857 62 14.857C62 13.0562 60.7461 11.4756 58.9512 11.0132ZM7.6875 37.5679C6.08569 38.0313 3.71844 37.6824 4 35.3702C7.77057 33.5723 10.5731 31.037 11.9067 28.1661C12.4407 26.9655 10.6659 26.1389 10.0933 27.3233C9.05359 29.5612 6.91437 31.5918 4 33.1434V14.857C4 13.9688 4.63623 13.1846 5.54785 12.9498C11.7128 11.5651 16.2506 18.7412 17.7999 21.2968C19.2107 26.9836 13.1898 36.3812 7.6875 37.5679ZM18.1616 41.5162L17.6533 42.3765C17.2406 43.0683 16.3131 43.3337 15.6001 42.9068L14.7378 42.398C14.0349 42.0027 13.7846 41.0292 14.2086 40.3433C14.2085 40.3433 14.7168 39.483 14.7168 39.483C15.1127 38.7809 16.0841 38.5279 16.771 38.9537L17.6323 39.4615C18.3356 39.8566 18.5854 40.8302 18.1616 41.5162ZM22.5669 45.857C21.7429 47.3746 19.2801 47.0272 18.9078 45.3393C18.7789 44.8393 18.85 44.3215 19.0996 43.8721C19.1266 43.816 20.6465 41.2398 20.6465 41.2398C21.4697 39.7224 23.9346 40.0684 24.3057 41.7574C24.439 42.274 24.3628 42.8121 24.0913 43.273L22.5669 45.857ZM28.2427 48.0445L27.7349 48.9048C26.3641 51.1489 22.9894 49.1569 24.2896 46.8725C24.2896 46.8726 24.798 46.0111 24.798 46.0111C26.1703 43.7692 29.5426 45.7591 28.2427 48.0445ZM30.476 46.5557C30.3181 44.499 28.3105 42.869 26.2783 43.0361C27.0969 39.5129 22.7353 36.8179 19.9338 39.0846C18.7036 37.0123 15.4009 35.791 13.5492 37.7726C13.3334 37.5044 13.1287 37.2285 12.9263 36.9484C17.7067 33.3674 21.1536 24.7963 19.6839 20.6235C22.3299 19.3492 25.7108 19.6011 28.1101 21.2498C26.0029 23.3597 22.6094 27.8216 24.4652 30.8452C26.3814 33.9183 30.4269 33.5297 32.9199 30.9683C33.9995 29.8804 34.7466 28.5728 35.5151 27.1851C39.4708 29.8639 42.5341 33.6396 44.29 37.9517C40.9049 42.3155 35.8882 45.4272 30.476 46.5557ZM46.4997 38.1103C45.1445 34.2419 42.7258 30.7642 39.6728 27.9509C40.7575 27.8193 43.1561 27.4963 42.5284 25.9151C42.269 25.4278 41.665 25.2432 41.1758 25.502C39.5957 26.3418 37.4297 26.0416 36.1387 24.8008C35.4756 24.1888 34.7331 24.6791 34.2881 25.275C32.7717 27.929 31.2918 31.3621 27.7681 30.9645C26.6978 30.6832 25.682 29.7609 25.9409 28.442C28.1274 20.6873 37.1271 16.863 44.3306 20.5798C42.8369 24.7124 46.2242 33.2952 51.0697 36.9454C49.8091 37.9729 48.0532 38.4277 46.4997 38.1103ZM56.3124 37.5679C50.7842 36.3641 44.7958 26.9729 46.1988 21.2992C47.8332 18.6012 52.3337 11.5813 58.4521 12.9496C59.3638 13.1846 60 13.9688 60 14.857V33.1434C57.0856 31.5918 54.9464 29.5612 53.9067 27.3233C53.334 26.141 51.5587 26.9642 52.0933 28.1661C53.4269 31.037 56.2294 33.5723 60 35.3702C60.2826 37.6778 57.9147 38.0337 56.3124 37.5679Z" fill="black"/>
<path d="M18.5661 12.5991C26.5004 6.99004 37.9688 7.60662 45.2702 14.0143C45.9237 14.6094 47.0277 13.9909 46.9049 13.1326C46.9065 13.0898 45.9865 7.58007 45.9865 7.58007C45.8962 7.03515 45.3835 6.66894 44.8357 6.75829C44.2907 6.84911 43.9231 7.36474 44.0139 7.90917L44.5205 10.9437C36.6054 5.38348 25.3574 5.36382 17.4343 10.9498C16.3627 11.6932 17.481 13.3346 18.5661 12.5991ZM44.3542 51.4009C36.4206 57.0082 24.9511 56.3929 17.6501 49.9847C16.9695 49.4184 15.9004 49.9943 16.0154 50.8666C16.0139 50.9097 16.9338 56.4194 16.9338 56.4194C17.0221 56.9661 17.5527 57.3334 18.0847 57.2407C18.6296 57.1499 18.9973 56.6343 18.9065 56.0893L18.3999 53.0553C26.3149 58.6155 37.5635 58.6351 45.4861 53.0492C46.5584 52.3062 45.437 50.6625 44.3542 51.4009Z" fill="#ED9121"/>
</svg>
