<svg width="54" height="52" viewBox="0 0 54 52" fill="none" xmlns="http://www.w3.org/2000/svg">
<path d="M39.3377 8.60942C39.7533 10.7313 41.6127 12.2844 43.7783 12.2844C45.9439 12.2844 47.8033 10.7313 48.2189 8.60942L48.7658 5.8313C48.9408 4.47505 48.547 3.1188 47.6502 2.09067C46.7533 1.06255 45.4627 0.471924 44.1064 0.471924H43.472C42.1158 0.471924 40.8252 1.06255 39.9283 2.09067C39.0314 3.1188 38.6158 4.47505 38.8127 5.89692L39.3377 8.60942ZM41.5689 3.53442C42.0502 2.98755 42.7502 2.65942 43.4939 2.65942H44.1283C44.872 2.65942 45.5502 2.96567 46.0533 3.53442C46.5345 4.0813 46.7533 4.82505 46.6658 5.4813L46.1408 8.1938C45.922 9.30942 44.9595 10.0969 43.822 10.0969C42.6845 10.0969 41.722 9.28755 41.5033 8.1938L40.9783 5.54692C40.8689 4.82505 41.0877 4.0813 41.5689 3.53442Z" fill="black"/>
<path d="M53.9719 23.025L52.725 17.1188C52.5719 16.3969 52.0469 15.8063 51.3687 15.5657L47.0594 14.0344L43.8219 17.2719L40.5844 14.0344L36.275 15.5657C35.5969 15.8063 35.0719 16.3969 34.9187 17.1188L33.6719 23.025C33.5406 23.6157 33.9125 24.1844 34.5031 24.3157C35.0937 24.4469 35.6625 24.075 35.7937 23.4844L37.0187 17.6219L40.0375 16.55L43.8437 20.3563L47.65 16.55L50.625 17.5782L51.8719 23.4844C51.9812 23.9875 52.4406 24.3375 52.9437 24.3375C53.0094 24.3375 53.0969 24.3375 53.1625 24.3157C53.7094 24.2063 54.0812 23.6157 53.9719 23.025Z" fill="black"/>
<path d="M5.75954 8.60942C6.17517 10.7313 8.03454 12.2844 10.2002 12.2844C12.3658 12.2844 14.2252 10.7313 14.6408 8.60942L15.1877 5.8313C15.3627 4.47505 14.9689 3.1188 14.072 2.09067C13.1752 1.06255 11.8845 0.471924 10.5283 0.471924H9.89392C8.53767 0.471924 7.24704 1.06255 6.35017 2.09067C5.45329 3.1188 5.03767 4.47505 5.23454 5.89692L5.75954 8.60942ZM7.99079 3.53442C8.47204 2.98755 9.17204 2.65942 9.91579 2.65942H10.5502C11.2939 2.65942 11.972 2.96567 12.4752 3.53442C12.9564 4.0813 13.1752 4.82505 13.0877 5.4813L12.5627 8.1938C12.3439 9.30942 11.3814 10.0969 10.2439 10.0969C9.10642 10.0969 8.14392 9.28755 7.92517 8.1938L7.40017 5.54692C7.26892 4.82505 7.50954 4.0813 7.99079 3.53442Z" fill="black"/>
<path d="M14.0279 16.55L17.0029 17.5782L18.2498 23.4844C18.3592 23.9875 18.8185 24.3375 19.3217 24.3375C19.3873 24.3375 19.4748 24.3375 19.5404 24.3157C20.131 24.1844 20.5029 23.6157 20.3717 23.025L19.1248 17.1188C18.9717 16.3969 18.4467 15.8063 17.7685 15.5657L13.4592 14.0344L10.1998 17.2938L6.96229 14.0344L2.65291 15.5657C1.97479 15.8063 1.44979 16.3969 1.29666 17.1188L0.0497856 23.025C-0.0814644 23.6157 0.290411 24.1844 0.881036 24.3157C1.47166 24.4469 2.04041 24.075 2.17166 23.4844L3.37479 17.6219L6.39354 16.55L10.1998 20.3563L14.0279 16.55Z" fill="black"/>
<path d="M27 39.4531C29.1656 39.4531 31.025 37.9 31.4406 35.7781L31.9875 33C32.1625 31.6438 31.7687 30.2875 30.8718 29.2594C29.975 28.2312 28.6843 27.6406 27.3281 27.6406H26.6937C25.3375 27.6406 24.0468 28.2312 23.15 29.2594C22.2531 30.2875 21.8375 31.6438 22.0343 33.0656L22.5593 35.7781C22.975 37.9 24.8343 39.4531 27 39.4531ZM24.7687 30.7031C25.25 30.1562 25.95 29.8281 26.6937 29.8281H27.3281C28.0718 29.8281 28.75 30.1344 29.2531 30.7031C29.7343 31.25 29.9531 31.9937 29.8656 32.65L29.3406 35.3625C29.1218 36.4781 28.1593 37.2656 27.0218 37.2656C25.8843 37.2656 24.9218 36.4563 24.7031 35.3625L24.1781 32.7156C24.0687 31.9937 24.2875 31.25 24.7687 30.7031Z" fill="black"/>
<path d="M35.9246 44.3095C35.7715 43.5876 35.2465 42.997 34.5683 42.7563L30.259 41.2251L26.9996 44.4626L23.7621 41.2251L19.4527 42.7563C18.7746 42.997 18.2496 43.5876 18.0965 44.3095L16.8496 50.2157C16.7183 50.8063 17.0902 51.3751 17.6808 51.5063C18.2715 51.6376 18.8402 51.2657 18.9715 50.6751L20.1746 44.8126L23.1933 43.7407L26.9996 47.547L30.8058 43.7407L33.7808 44.7688L35.0277 50.6751C35.1371 51.1782 35.5965 51.5282 36.0996 51.5282C36.1652 51.5282 36.2527 51.5282 36.3183 51.5063C36.909 51.3751 37.2808 50.8063 37.1496 50.2157L35.9246 44.3095Z" fill="black"/>
<path d="M45.681 27.2032C45.0685 27.1375 44.5435 27.575 44.4997 28.1875C44.0622 32.7157 41.8966 36.8282 38.4404 39.7813C37.981 40.175 37.9372 40.8532 38.3091 41.3125C38.5279 41.575 38.8341 41.6844 39.1404 41.6844C39.381 41.6844 39.6435 41.5969 39.8404 41.4219C43.7341 38.0969 46.1622 33.4813 46.6654 28.3844C46.7091 27.7938 46.2716 27.2688 45.681 27.2032Z" fill="#ED9121"/>
<path d="M9.52118 28.1876C9.45555 27.597 8.93055 27.1595 8.33993 27.2032C7.7493 27.2688 7.3118 27.7938 7.35555 28.3845C7.85868 33.4813 10.2868 38.1188 14.1806 41.422C14.3774 41.597 14.6399 41.6845 14.8806 41.6845C15.1868 41.6845 15.4931 41.5532 15.7118 41.2907C16.1056 40.8313 16.0399 40.1532 15.5806 39.7595C12.1243 36.8282 9.95868 32.7157 9.52118 28.1876Z" fill="#ED9121"/>
<path d="M21.2466 9.8344C24.8997 8.54377 29.0997 8.54377 32.7747 9.8344C32.8841 9.87815 33.0153 9.90002 33.1466 9.90002C33.5841 9.90002 34.0216 9.61565 34.1747 9.17815C34.3716 8.6094 34.0872 7.9969 33.5185 7.80002C29.3841 6.3344 24.681 6.3344 20.5466 7.80002C19.9778 7.9969 19.6935 8.63127 19.8903 9.17815C20.0435 9.7469 20.6778 10.0313 21.2466 9.8344Z" fill="#ED9121"/>
</svg>
