<svg width="64" height="64" viewBox="0 0 64 64" fill="none" xmlns="http://www.w3.org/2000/svg">
<g clip-path="url(#clip0_373_3674)">
<path d="M32 56C45.2548 56 56 45.2548 56 32C56 18.7452 45.2548 8 32 8C18.7452 8 8 18.7452 8 32C8 45.2548 18.7452 56 32 56Z" stroke="black" stroke-width="2" stroke-linecap="round" stroke-linejoin="round"/>
<path d="M42.3945 37.999C41.3402 39.8226 39.8248 41.3367 38.0003 42.3893C36.1758 43.442 34.1064 43.9961 32.0001 43.9961C29.8937 43.9962 27.8243 43.442 25.9998 42.3894C24.1753 41.3368 22.6598 39.8227 21.6055 37.9992" stroke="#ED9121" stroke-width="2" stroke-linecap="round" stroke-linejoin="round"/>
<path d="M23 29.5C24.3807 29.5 25.5 28.3807 25.5 27C25.5 25.6193 24.3807 24.5 23 24.5C21.6193 24.5 20.5 25.6193 20.5 27C20.5 28.3807 21.6193 29.5 23 29.5Z" fill="#ED9121"/>
<path d="M41 29.5C42.3807 29.5 43.5 28.3807 43.5 27C43.5 25.6193 42.3807 24.5 41 24.5C39.6193 24.5 38.5 25.6193 38.5 27C38.5 28.3807 39.6193 29.5 41 29.5Z" fill="#ED9121"/>
</g>
<defs>
<clipPath id="clip0_373_3674">
<rect width="64" height="64" fill="white"/>
</clipPath>
</defs>
</svg>
