<?xml version="1.0" encoding="utf-8"?><svg viewBox="0 0 50 56" xmlns="http://www.w3.org/2000/svg" xmlns:xlink="http://www.w3.org/1999/xlink"><style>:root>svg{display:none}:root>svg:target{display:block}</style><svg fill="none" viewBox="0 0 32 32" id="telegram" xmlns="http://www.w3.org/2000/svg"><path d="M16 0C7.163 0 0 7.163 0 16s7.163 16 16 16 16-7.163 16-16S24.837 0 16 0Zm8.316 10.121-2.842 13.566a.999.999 0 0 1-1.573.6l-4.134-3.054-2.504 2.363a.34.34 0 0 1-.484-.019l-.053-.059.435-4.21 7.842-7.166a.21.21 0 0 0-.253-.333l-10.03 6.348-4.32-1.45a.587.587 0 0 1-.02-1.106l16.901-6.367a.778.778 0 0 1 1.035.887Z" fill="#000"/></svg><svg fill="none" viewBox="0 0 50 56" id="timer" xmlns="http://www.w3.org/2000/svg"><path d="M.43 31.718a24.254 24.254 0 1 0 43.258-15.045l1.447-1.447c.73.726 1.91.726 2.638-.002l1.32-1.32a1.87 1.87 0 0 0 0-2.637l-3.96-3.959a1.87 1.87 0 0 0-2.637 0L41.177 8.63a1.866 1.866 0 0 0 0 2.637l-1.448 1.448a24.13 24.13 0 0 0-12.246-5.085V5.597h1.865a1.868 1.868 0 0 0 1.866-1.866V1.867A1.868 1.868 0 0 0 29.348 0H20.02a1.868 1.868 0 0 0-1.866 1.866V3.73a1.868 1.868 0 0 0 1.866 1.866h1.866v2.032C9.664 9.063.446 19.412.43 31.718Zm24.254 22.388c-12 0-21.866-9.462-22.367-21.452-.5-11.99 8.543-22.242 20.501-23.241a22.468 22.468 0 0 1 1.866-.084c.63 0 1.25.032 1.866.084 11.959 1 21.002 11.251 20.502 23.241-.501 11.99-10.367 21.453-22.368 21.452ZM43.815 8.628l3.959 3.958-1.32 1.32-3.958-3.958 1.319-1.32Zm-1.32 3.957 1.321 1.321-1.344 1.345a24.6 24.6 0 0 0-1.321-1.32l1.344-1.345ZM20.02 1.865h9.328l.002 1.867h-9.33V1.865Zm3.731 3.732h1.866v1.89c-.31-.012-.62-.024-.933-.024-.313 0-.623.012-.933.023V5.597Z" fill="#262626"/><path d="M39.197 17.205c-.015-.014-.033-.018-.048-.031-7.995-7.973-20.934-7.973-28.93 0-.014.013-.033.017-.047.031-.014.014-.019.033-.032.048-7.972 7.995-7.972 20.934 0 28.929.013.015.018.033.032.047.014.015.033.019.048.032 7.995 7.972 20.934 7.972 28.929 0 .015-.013.033-.017.048-.032.013-.014.018-.032.031-.047 7.973-7.995 7.973-20.934 0-28.93-.013-.014-.018-.033-.031-.047Zm-2.017.698-1.942 1.941a.934.934 0 1 0 1.32 1.32l1.941-1.942a18.552 18.552 0 0 1 4.795 11.563h-2.751a.933.933 0 1 0 0 1.865h2.751a18.553 18.553 0 0 1-4.795 11.563l-1.942-1.942a.933.933 0 0 0-1.319 1.32l1.942 1.941a18.552 18.552 0 0 1-11.563 4.795v-2.751a.933.933 0 1 0-1.866 0v2.751a18.553 18.553 0 0 1-11.562-4.794l1.941-1.942a.932.932 0 1 0-1.319-1.32l-1.942 1.942A18.557 18.557 0 0 1 6.074 32.65h2.752a.933.933 0 0 0 0-1.865H6.074a18.555 18.555 0 0 1 4.795-11.563l1.942 1.941a.933.933 0 1 0 1.32-1.319l-1.942-1.942c7.079-6.456 17.912-6.456 24.991 0Z" fill="#262626"/><path d="M24.685 35.449a3.723 3.723 0 0 0 .933-7.33v-12.26a.933.933 0 0 0-1.866 0v12.26a3.723 3.723 0 0 0 .933 7.33Zm0-5.597a1.866 1.866 0 1 1 0 3.732 1.866 1.866 0 0 1 0-3.732Z" fill="#ED9121"/></svg><svg fill="none" viewBox="0 0 32 32" id="whatsapp" xmlns="http://www.w3.org/2000/svg"><g clip-path="url(#ca)" fill-rule="evenodd" clip-rule="evenodd"><path d="M16 32c8.837 0 16-7.163 16-16S24.837 0 16 0 0 7.163 0 16s7.163 16 16 16Z" fill="#000"/><path d="M16.038 24.651a8.715 8.715 0 0 1-4.206-1.074l-4.817 1.53 1.57-4.631a8.545 8.545 0 0 1-1.248-4.458c0-4.768 3.896-8.633 8.701-8.633 4.805 0 8.7 3.865 8.7 8.633 0 4.768-3.895 8.633-8.7 8.633Zm0-15.891c-4.034 0-7.315 3.256-7.315 7.258 0 1.588.518 3.059 1.393 4.256l-.913 2.695 2.81-.893a7.311 7.311 0 0 0 4.025 1.2c4.033 0 7.315-3.256 7.315-7.258 0-4.002-3.282-7.258-7.315-7.258Zm4.393 9.246c-.053-.088-.195-.14-.408-.247-.214-.105-1.262-.618-1.458-.688-.195-.07-.338-.106-.48.106-.142.212-.55.688-.675.83-.125.14-.249.158-.462.052-.213-.105-.9-.329-1.715-1.05-.634-.56-1.062-1.253-1.187-1.465-.124-.212-.013-.326.094-.431.096-.095.213-.248.32-.371.107-.124.142-.212.213-.353.071-.141.036-.265-.018-.371-.053-.106-.48-1.147-.657-1.57-.178-.424-.356-.354-.48-.354-.125 0-.267-.018-.409-.018a.787.787 0 0 0-.569.265c-.195.212-.746.724-.746 1.765 0 1.042.764 2.048.87 2.189.107.14 1.476 2.347 3.644 3.194s2.168.565 2.56.53c.39-.036 1.26-.512 1.439-1.006.177-.495.177-.919.124-1.007Z" fill="#fff"/></g><defs><clipPath id="ca"><path fill="#fff" d="M0 0h32v32H0z"/></clipPath></defs></svg></svg>