<svg width="50" height="50" viewBox="0 0 50 50" fill="none" xmlns="http://www.w3.org/2000/svg">
<g clip-path="url(#clip0_567_2024)">
<path d="M47.9167 19.7917H44.0833C43.6459 18.1823 43.0054 16.6351 42.1771 15.1875L44.8854 12.5C45.0791 12.3065 45.2328 12.0767 45.3376 11.8238C45.4425 11.5709 45.4964 11.2998 45.4964 11.026C45.4964 10.7523 45.4425 10.4812 45.3376 10.2282C45.2328 9.97534 45.0791 9.74557 44.8854 9.55208L40.4687 5.11458C40.2753 4.92088 40.0455 4.76722 39.7926 4.66238C39.5397 4.55753 39.2686 4.50357 38.9948 4.50357C38.721 4.50357 38.4499 4.55753 38.197 4.66238C37.9441 4.76722 37.7143 4.92088 37.5208 5.11458L34.8021 7.82292C33.3577 6.99566 31.8141 6.35512 30.2083 5.91667V2.08333C30.2083 1.5308 29.9888 1.0009 29.5981 0.610194C29.2074 0.219493 28.6775 0 28.125 0L21.875 0C21.3225 0 20.7926 0.219493 20.4019 0.610194C20.0112 1.0009 19.7917 1.5308 19.7917 2.08333V5.91667C18.1859 6.35512 16.6423 6.99566 15.1979 7.82292L12.5 5.11458C12.3065 4.92088 12.0767 4.76722 11.8238 4.66238C11.5709 4.55753 11.2998 4.50357 11.026 4.50357C10.7523 4.50357 10.4812 4.55753 10.2282 4.66238C9.97534 4.76722 9.74557 4.92088 9.55208 5.11458L5.11458 9.53125C4.92088 9.72474 4.76722 9.9545 4.66238 10.2074C4.55753 10.4603 4.50357 10.7314 4.50357 11.0052C4.50357 11.279 4.55753 11.5501 4.66238 11.803C4.76722 12.0559 4.92088 12.2857 5.11458 12.4792L7.83333 15.1979C7.00226 16.6417 6.3582 18.1853 5.91667 19.7917H2.08333C1.5308 19.7917 1.0009 20.0112 0.610194 20.4019C0.219493 20.7926 0 21.3225 0 21.875L0 28.125C0 28.6775 0.219493 29.2074 0.610194 29.5981C1.0009 29.9888 1.5308 30.2083 2.08333 30.2083H5.91667C6.35408 31.8177 6.99464 33.3649 7.82292 34.8125L5.11458 37.5C4.92088 37.6935 4.76722 37.9233 4.66238 38.1762C4.55753 38.4291 4.50357 38.7002 4.50357 38.974C4.50357 39.2477 4.55753 39.5188 4.66238 39.7718C4.76722 40.0247 4.92088 40.2544 5.11458 40.4479L9.53125 44.8646C9.72474 45.0583 9.9545 45.2119 10.2074 45.3168C10.4603 45.4216 10.7314 45.4756 11.0052 45.4756C11.279 45.4756 11.5501 45.4216 11.803 45.3168C12.0559 45.2119 12.2857 45.0583 12.4792 44.8646L15.1979 42.1458C16.6408 42.9839 18.1844 43.635 19.7917 44.0833V47.9167C19.7917 48.4692 20.0112 48.9991 20.4019 49.3898C20.7926 49.7805 21.3225 50 21.875 50H28.125C28.6775 50 29.2074 49.7805 29.5981 49.3898C29.9888 48.9991 30.2083 48.4692 30.2083 47.9167V44.0833C31.8141 43.6449 33.3577 43.0043 34.8021 42.1771L37.5 44.8854C37.6935 45.0791 37.9233 45.2328 38.1762 45.3376C38.4291 45.4425 38.7002 45.4964 38.974 45.4964C39.2477 45.4964 39.5188 45.4425 39.7718 45.3376C40.0247 45.2328 40.2544 45.0791 40.4479 44.8854L44.8646 40.4687C45.0583 40.2753 45.2119 40.0455 45.3168 39.7926C45.4216 39.5397 45.4756 39.2686 45.4756 38.9948C45.4756 38.721 45.4216 38.4499 45.3168 38.197C45.2119 37.9441 45.0583 37.7143 44.8646 37.5208L42.1458 34.8021C42.9841 33.3593 43.6352 31.8156 44.0833 30.2083H47.9167C48.4692 30.2083 48.9991 29.9888 49.3898 29.5981C49.7805 29.2074 50 28.6775 50 28.125V21.875C50 21.3225 49.7805 20.7926 49.3898 20.4019C48.9991 20.0112 48.4692 19.7917 47.9167 19.7917ZM47.9167 28.125H43.2708C43.03 28.1191 42.7946 28.1969 42.6047 28.345C42.4148 28.4931 42.2821 28.7025 42.2292 28.9375C41.7905 30.8637 41.0298 32.702 39.9792 34.375C39.8534 34.5749 39.7994 34.8117 39.8259 35.0464C39.8524 35.2811 39.9579 35.4998 40.125 35.6667L43.4167 38.9583L39 43.375L35.7083 40.0833C35.5336 39.9122 35.3044 39.8081 35.0606 39.789C34.8168 39.77 34.5741 39.8373 34.375 39.9792C32.6909 41.042 30.838 41.8099 28.8958 42.25C28.6609 42.3029 28.4515 42.4356 28.3033 42.6256C28.1552 42.8155 28.0774 43.0509 28.0833 43.2917V47.9167H21.875V43.2708C21.8809 43.03 21.8031 42.7946 21.655 42.6047C21.5069 42.4148 21.2975 42.2821 21.0625 42.2292C19.1361 41.7911 17.2977 41.0304 15.625 39.9792C15.4251 39.8534 15.1883 39.7994 14.9536 39.8259C14.7189 39.8524 14.5002 39.9579 14.3333 40.125L11.0417 43.4167L6.58333 38.9896L9.875 35.6979C10.0498 35.5291 10.1601 35.3044 10.1867 35.0628C10.2134 34.8212 10.1547 34.5779 10.0208 34.375C8.95855 32.6907 8.19065 30.8378 7.75 28.8958C7.69708 28.6609 7.56436 28.4515 7.37444 28.3033C7.18452 28.1552 6.94913 28.0774 6.70833 28.0833H2.08333V21.875H6.72917C6.96996 21.8809 7.20535 21.8031 7.39528 21.655C7.5852 21.5069 7.71791 21.2975 7.77083 21.0625C8.20949 19.1363 8.97018 17.298 10.0208 15.625C10.1466 15.4251 10.2006 15.1883 10.1741 14.9536C10.1476 14.7189 10.0421 14.5002 9.875 14.3333L6.58333 11L11 6.58333L14.2917 9.875C14.4611 10.0525 14.6878 10.1644 14.9317 10.1911C15.1757 10.2177 15.4212 10.1575 15.625 10.0208C17.3091 8.95801 19.162 8.19007 21.1042 7.75C21.3391 7.69708 21.5485 7.56436 21.6967 7.37444C21.8448 7.18452 21.9226 6.94913 21.9167 6.70833V2.08333H28.1667V6.72917C28.1608 6.96996 28.2385 7.20535 28.3867 7.39528C28.5348 7.5852 28.7442 7.71791 28.9792 7.77083C30.8911 8.21335 32.7151 8.97394 34.375 10.0208C34.5749 10.1466 34.8117 10.2006 35.0464 10.1741C35.2811 10.1476 35.4998 10.0421 35.6667 9.875L38.9583 6.58333L43.375 11L40.0833 14.2917C39.9122 14.4663 39.8081 14.6956 39.789 14.9394C39.77 15.1832 39.8373 15.4259 39.9792 15.625C41.0414 17.3093 41.8094 19.1622 42.25 21.1042C42.3029 21.3391 42.4356 21.5485 42.6256 21.6967C42.8155 21.8448 43.0509 21.9226 43.2917 21.9167H47.9167V28.125Z" fill="black"/>
<path d="M25 15.625C23.1458 15.625 21.3332 16.1748 19.7915 17.205C18.2498 18.2351 17.0482 19.6993 16.3386 21.4123C15.6291 23.1254 15.4434 25.0104 15.8051 26.829C16.1669 28.6475 17.0598 30.318 18.3709 31.6291C19.682 32.9402 21.3525 33.8331 23.171 34.1949C24.9896 34.5566 26.8746 34.3709 28.5877 33.6614C30.3007 32.9518 31.7649 31.7502 32.795 30.2085C33.8252 28.6668 34.375 26.8542 34.375 25C34.375 22.5136 33.3873 20.129 31.6291 18.3709C29.871 16.6127 27.4864 15.625 25 15.625ZM25 32.2917C23.5578 32.2917 22.1481 31.864 20.949 31.0628C19.7499 30.2616 18.8153 29.1228 18.2634 27.7904C17.7115 26.458 17.5671 24.9919 17.8484 23.5775C18.1298 22.163 18.8243 20.8638 19.844 19.844C20.8638 18.8243 22.163 18.1298 23.5775 17.8484C24.9919 17.5671 26.458 17.7115 27.7904 18.2634C29.1228 18.8153 30.2616 19.7499 31.0628 20.949C31.864 22.1481 32.2917 23.5578 32.2917 25C32.2917 26.9339 31.5234 28.7885 30.156 30.156C28.7885 31.5234 26.9339 32.2917 25 32.2917Z" fill="#ED9121"/>
</g>
<defs>
<clipPath id="clip0_567_2024">
<rect width="50" height="50" fill="white"/>
</clipPath>
</defs>
</svg>
