<svg width="48" height="48" viewBox="0 0 48 48" fill="none" xmlns="http://www.w3.org/2000/svg">
<g clip-path="url(#clip0_567_2017)">
<path d="M43 0H5C3.67392 0 2.40215 0.526784 1.46447 1.46447C0.526784 2.40215 0 3.67392 0 5L0 43C0 43.6566 0.129329 44.3068 0.380602 44.9134C0.631876 45.52 1.00017 46.0712 1.46447 46.5355C1.92876 46.9998 2.47995 47.3681 3.08658 47.6194C3.69321 47.8707 4.34339 48 5 48H43C43.6566 48 44.3068 47.8707 44.9134 47.6194C45.52 47.3681 46.0712 46.9998 46.5355 46.5355C46.9998 46.0712 47.3681 45.52 47.6194 44.9134C47.8707 44.3068 48 43.6566 48 43V5C48 4.34339 47.8707 3.69321 47.6194 3.08658C47.3681 2.47995 46.9998 1.92876 46.5355 1.46447C46.0712 1.00017 45.52 0.631876 44.9134 0.380602C44.3068 0.129329 43.6566 0 43 0ZM17 2H31V16H17V2ZM17 18H31V20H17V18ZM46 43C46 43.7957 45.6839 44.5587 45.1213 45.1213C44.5587 45.6839 43.7957 46 43 46H5C4.20435 46 3.44129 45.6839 2.87868 45.1213C2.31607 44.5587 2 43.7957 2 43V5C2 4.20435 2.31607 3.44129 2.87868 2.87868C3.44129 2.31607 4.20435 2 5 2H15V21C15 21.2652 15.1054 21.5196 15.2929 21.7071C15.4804 21.8946 15.7348 22 16 22H32C32.2652 22 32.5196 21.8946 32.7071 21.7071C32.8946 21.5196 33 21.2652 33 21V2H43C43.7957 2 44.5587 2.31607 45.1213 2.87868C45.6839 3.44129 46 4.20435 46 5V43Z" fill="black"/>
<path d="M13 34H7C6.73478 34 6.48043 34.1054 6.29289 34.2929C6.10536 34.4804 6 34.7348 6 35V41C6 41.2652 6.10536 41.5196 6.29289 41.7071C6.48043 41.8946 6.73478 42 7 42H13C13.2652 42 13.5196 41.8946 13.7071 41.7071C13.8946 41.5196 14 41.2652 14 41V35C14 34.7348 13.8946 34.4804 13.7071 34.2929C13.5196 34.1054 13.2652 34 13 34ZM12 40H8V36H12V40Z" fill="#ED9121"/>
<path d="M19 35H17V37H19V35Z" fill="#ED9121"/>
<path d="M23 35H21V37H23V35Z" fill="#ED9121"/>
<path d="M28 39H17V41H28V39Z" fill="#ED9121"/>
</g>
<defs>
<clipPath id="clip0_567_2017">
<rect width="48" height="48" fill="white"/>
</clipPath>
</defs>
</svg>
