<svg width="62" height="62" viewBox="0 0 62 62" fill="none" xmlns="http://www.w3.org/2000/svg">
<path d="M31.2362 60.3652C31.0703 60.3652 30.9044 60.3616 30.7373 60.3543C28.1204 60.2357 25.6489 59.1398 23.778 57.2701C21.9071 55.4004 20.81 52.9289 20.6877 50.312C20.4685 45.6536 23.2924 41.4552 27.6215 39.8859V33.4521C27.6215 32.9835 28.0005 32.6045 28.4692 32.6045H33.5454C34.0141 32.6045 34.3931 32.9835 34.3931 33.4521C34.3931 33.9208 34.0141 34.2998 33.5454 34.2998H29.3168V40.4986C29.3168 40.874 29.0698 41.2046 28.7102 41.3111C24.7916 42.4712 22.1893 46.1404 22.3818 50.2321C22.5913 54.7525 26.2955 58.4544 30.8148 58.659C33.2669 58.7729 35.5846 57.9034 37.3514 56.2154C39.1194 54.5261 40.093 52.2507 40.093 49.8071C40.093 49.2864 40.0482 48.7705 39.9586 48.2643L36.31 51.9129C34.6171 53.6058 31.8344 53.6336 30.1088 51.9734C29.2623 51.1585 28.7901 50.0493 28.778 48.8516C28.7659 47.6359 29.2502 46.4479 30.1039 45.5942L32.2715 43.4266C32.5258 43.1723 32.6736 42.8563 32.6966 42.5136V36.9578C32.6966 36.4892 33.0756 36.1102 33.5442 36.1102C34.0129 36.1102 34.3919 36.4892 34.3919 36.9578V42.5402C34.3919 42.556 34.3919 42.5717 34.3907 42.5875C34.3483 43.3625 34.0298 44.0672 33.4703 44.6267L31.3028 46.7943C30.7687 47.3283 30.466 48.073 30.4733 48.8371C30.4805 49.5758 30.7687 50.2563 31.2846 50.754C32.349 51.7773 34.0661 51.7603 35.1112 50.7153L39.8036 46.0229C40.0094 45.817 40.3085 45.7311 40.5919 45.7964C40.8764 45.8618 41.1065 46.0677 41.2034 46.3438C41.5909 47.4542 41.7883 48.6203 41.7883 49.8095C41.7883 52.7206 40.6282 55.4319 38.5224 57.4432C36.5377 59.3371 33.9668 60.3652 31.2362 60.3652Z" fill="#ED9121"/>
<path d="M39.7939 12.4618H22.2051C21.7364 12.4618 21.3574 12.0827 21.3574 11.6141V2.48242C21.3574 2.01379 21.7364 1.63477 22.2051 1.63477C22.6737 1.63477 23.0527 2.01379 23.0527 2.48242V10.7664H38.9463V2.48242C38.9463 2.01379 39.3253 1.63477 39.7939 1.63477C40.2626 1.63477 40.6416 2.01379 40.6416 2.48242V11.6141C40.6416 12.0815 40.2626 12.4618 39.7939 12.4618Z" fill="black"/>
<path d="M40.9866 34.301H21.0098C20.5411 34.301 20.1621 33.922 20.1621 33.4534V30.753C20.1621 30.2843 20.5411 29.9053 21.0098 29.9053C21.4784 29.9053 21.8574 30.2843 21.8574 30.753V32.6057H40.1389V28.0877H21.0098C20.5411 28.0877 20.1621 27.7087 20.1621 27.2401C20.1621 26.7714 20.5411 26.3924 21.0098 26.3924H40.9866C41.4552 26.3924 41.8343 26.7714 41.8343 27.2401V33.4534C41.8343 33.9208 41.4552 34.301 40.9866 34.301Z" fill="black"/>
<path d="M20.5114 17.1154C20.2947 17.1154 20.0779 17.033 19.912 16.8671C19.5814 16.5366 19.5814 15.9989 19.912 15.6683L24.5656 11.0135C24.8962 10.6829 25.4339 10.6829 25.7645 11.0135C26.095 11.3441 26.095 11.8817 25.7645 12.2123L21.1108 16.8671C20.9449 17.033 20.7282 17.1154 20.5114 17.1154Z" fill="black"/>
<path d="M18.8532 28.0877C18.6365 28.0877 18.4197 28.0053 18.2538 27.8394C17.9232 27.5088 17.9232 26.9712 18.2538 26.6406L23.1847 21.7097C23.5153 21.3791 24.053 21.3791 24.3836 21.7097C24.7141 22.0403 24.7141 22.5779 24.3836 22.9085L19.4526 27.8394C19.2879 28.0053 19.07 28.0877 18.8532 28.0877Z" fill="black"/>
<path d="M25.9258 21.0158C25.8701 21.0158 25.8144 21.011 25.7599 21.0001C25.7054 20.9892 25.6521 20.9722 25.6012 20.9516C25.5504 20.9298 25.5007 20.9032 25.4547 20.8729C25.4087 20.8426 25.3651 20.8063 25.3264 20.7676C25.2864 20.7288 25.2513 20.6852 25.221 20.6392C25.1895 20.5932 25.1641 20.5435 25.1423 20.4927C25.1217 20.4418 25.1048 20.3885 25.0939 20.3341C25.083 20.2796 25.0781 20.2239 25.0781 20.1682C25.0781 20.1125 25.083 20.0567 25.0939 20.0023C25.1048 19.949 25.1217 19.8957 25.1423 19.8436C25.1641 19.7928 25.1895 19.7443 25.221 19.6983C25.2513 19.6511 25.2864 19.6075 25.3264 19.5687C25.3651 19.53 25.4087 19.4949 25.4547 19.4634C25.5007 19.4331 25.5504 19.4065 25.6012 19.3859C25.6521 19.3641 25.7054 19.3484 25.7599 19.3375C25.8689 19.3157 25.9815 19.3157 26.0917 19.3375C26.145 19.3484 26.1982 19.3641 26.2503 19.3859C26.3012 19.4065 26.3496 19.4331 26.3956 19.4634C26.4429 19.4949 26.4852 19.53 26.5252 19.5687C26.5639 19.6075 26.5991 19.6511 26.6305 19.6983C26.6608 19.7443 26.6875 19.7928 26.708 19.8436C26.7298 19.8957 26.7456 19.949 26.7565 20.0023C26.7674 20.0567 26.7734 20.1125 26.7734 20.1682C26.7734 20.2239 26.7674 20.2796 26.7565 20.3341C26.7456 20.3885 26.7298 20.4418 26.708 20.4927C26.6875 20.5435 26.6608 20.5932 26.6305 20.6392C26.5991 20.6852 26.5639 20.7288 26.5252 20.7676C26.4852 20.8063 26.4429 20.8426 26.3956 20.8729C26.3496 20.9032 26.3012 20.9298 26.2503 20.9516C26.1982 20.9722 26.145 20.9892 26.0917 21.0001C26.036 21.011 25.9803 21.0158 25.9258 21.0158Z" fill="black"/>
<path d="M27.9821 18.9609C27.7654 18.9609 27.5486 18.8785 27.3827 18.7126C27.0521 18.382 27.0521 17.8444 27.3827 17.5138L33.8818 11.0147C34.2124 10.6841 34.75 10.6841 35.0806 11.0147C35.4112 11.3453 35.4112 11.8829 35.0806 12.2135L28.5815 18.7126C28.4156 18.8785 28.1989 18.9609 27.9821 18.9609Z" fill="black"/>
<path d="M32.4274 23.83C32.2107 23.83 31.9939 23.7477 31.828 23.5818C31.4974 23.2512 31.4974 22.7136 31.828 22.383L43.1963 11.0147C43.5269 10.6841 44.0645 10.6841 44.3951 11.0147C44.7257 11.3453 44.7257 11.8829 44.3951 12.2135L33.0268 23.5818C32.861 23.7465 32.6442 23.83 32.4274 23.83Z" fill="black"/>
<path d="M37.4802 28.0877C37.2634 28.0877 37.0467 28.0053 36.8808 27.8394C36.5502 27.5088 36.5502 26.9712 36.8808 26.6406L43.7419 19.7794C44.0737 19.4488 44.6102 19.4488 44.9408 19.7794C45.2713 20.11 45.2713 20.6477 44.9408 20.9783L38.0796 27.8394C37.9149 28.0053 37.6981 28.0877 37.4802 28.0877Z" fill="black"/>
<path d="M44.3417 28.0877H17.6562C17.1876 28.0877 16.8086 27.7087 16.8086 27.24V11.6141C16.8086 11.1455 17.1876 10.7664 17.6562 10.7664H44.3417C44.8103 10.7664 45.1893 11.1455 45.1893 11.6141V27.24C45.1893 27.7087 44.8103 28.0877 44.3417 28.0877ZM18.5039 26.3924H43.494V12.4618H18.5039V26.3924Z" fill="#ED9121"/>
</svg>
