<svg width="82" height="82" viewBox="0 0 82 82" fill="none" xmlns="http://www.w3.org/2000/svg">
<g clip-path="url(#clip0_368_3208)">
<path d="M51.9566 24.1324H29.748C29.2176 24.1324 28.7871 23.7025 28.7871 23.1714V19.9644C28.7871 17.6684 30.6552 15.8004 32.9512 15.8004H48.7535C51.0495 15.8004 52.9175 17.6684 52.9175 19.9644V23.1714C52.9175 23.7025 52.487 24.1324 51.9566 24.1324ZM30.709 22.2105H50.9957V19.9644C50.9957 18.728 49.9899 17.7223 48.7535 17.7223H32.9512C31.7148 17.7223 30.709 18.728 30.709 19.9644V22.2105Z" fill="#ED9121"/>
<path d="M65.1309 49.4928H47.5612C47.0307 49.4928 46.6002 49.0629 46.6002 48.5318C46.6002 48.0008 47.0307 47.5709 47.5612 47.5709H65.1309C65.2578 47.5709 65.3968 47.5498 65.5166 47.5299C65.5544 47.5229 65.6056 47.5126 65.6556 47.4992C65.721 47.4831 65.7703 47.4652 65.8203 47.4479C66.0041 47.3838 66.1457 47.3198 66.2661 47.248C66.9599 46.8361 67.3738 46.1186 67.3738 45.3287V26.3745C67.3738 25.1381 66.368 24.1324 65.1316 24.1324H17.0693C15.8329 24.1324 14.8271 25.1381 14.8271 26.3745V45.3281C14.8271 46.118 15.241 46.8361 15.9335 47.2474C16.0552 47.3198 16.1968 47.3832 16.3679 47.4434C16.4313 47.4652 16.4806 47.4831 16.5325 47.4959C16.5959 47.512 16.6472 47.5229 16.6991 47.5325C16.8041 47.5504 16.9431 47.5715 17.07 47.5715H36.4912C37.0216 47.5715 37.4521 48.0014 37.4521 48.5325C37.4521 49.0636 37.0216 49.4934 36.4912 49.4934H17.0693C16.7964 49.4934 16.5472 49.4563 16.3602 49.4249C16.25 49.4044 16.1539 49.3845 16.0597 49.3595C15.9668 49.3365 15.865 49.3032 15.7631 49.2686C15.4396 49.1558 15.184 49.0386 14.9508 48.9002C13.6702 48.1391 12.9053 46.8047 12.9053 45.3294V26.3745C12.9053 24.0785 14.7733 22.2105 17.0693 22.2105H65.1309C67.4269 22.2105 69.295 24.0785 69.295 26.3745V45.3281C69.295 46.8034 68.5301 48.1385 67.2482 48.8996C67.0169 49.0373 66.7607 49.1545 66.4673 49.2577C66.3353 49.3025 66.2335 49.3358 66.1278 49.3621C66.047 49.3832 65.9509 49.4037 65.8549 49.4217C65.6531 49.4556 65.4038 49.4928 65.1309 49.4928Z" fill="black"/>
<path d="M29.5815 45.4094H20.5224C20.2873 45.4094 20.0797 45.3793 19.9068 45.3498C19.8068 45.3313 19.7248 45.314 19.6441 45.2928C19.5589 45.2717 19.4673 45.2416 19.3763 45.2102C19.1066 45.1166 18.8843 45.0148 18.6819 44.8937C17.5691 44.2332 16.9048 43.0731 16.9048 41.7905V34.399C16.9048 33.8679 17.3353 33.438 17.8657 33.438C18.3962 33.438 18.8267 33.8679 18.8267 34.399V41.7912C18.8267 42.3882 19.1393 42.9308 19.664 43.2422C19.7562 43.2966 19.8638 43.3453 19.9945 43.3902C20.0374 43.4049 20.0778 43.4196 20.1201 43.4305C20.1681 43.4433 20.2091 43.451 20.2488 43.4581C20.3257 43.4715 20.4225 43.4869 20.523 43.4869H29.5821C30.1125 43.4869 30.543 43.9168 30.543 44.4478C30.543 44.9789 30.1119 45.4094 29.5815 45.4094Z" fill="#ED9121"/>
<path d="M26.8538 62.762H20.561C20.397 62.762 20.2413 62.7428 20.0856 62.7165C20.0049 62.7018 19.9396 62.6883 19.8761 62.6711C19.8082 62.6538 19.7346 62.63 19.6628 62.6057C19.4623 62.5359 19.2913 62.4571 19.133 62.3629C18.2695 61.8504 17.7544 60.9503 17.7544 59.9548V54.8189C17.7544 54.2878 18.1849 53.858 18.7153 53.858C19.2458 53.858 19.6763 54.2878 19.6763 54.8189V59.9548C19.6763 60.2655 19.8403 60.548 20.1145 60.7107C20.1696 60.7434 20.2298 60.7678 20.2906 60.7895L20.3553 60.8107C20.4572 60.8312 20.5078 60.8408 20.5616 60.8408H26.8545C27.3849 60.8408 27.8154 61.2706 27.8154 61.8017C27.8154 62.3328 27.3843 62.762 26.8538 62.762Z" fill="black"/>
<path d="M63.2336 66.413H18.9665C16.4936 66.413 14.4814 64.4008 14.4814 61.9279V48.0738C14.4814 47.5427 14.9119 47.1129 15.4424 47.1129C15.9728 47.1129 16.4033 47.5427 16.4033 48.0738V61.9279C16.4033 63.3412 17.5532 64.4911 18.9665 64.4911H63.2336C64.6469 64.4911 65.7968 63.3412 65.7968 61.9279V48.0738C65.7968 47.5427 66.2273 47.1129 66.7577 47.1129C67.2882 47.1129 67.7187 47.5427 67.7187 48.0738V61.9279C67.7187 64.4014 65.7065 66.413 63.2336 66.413Z" fill="black"/>
<path d="M66.1503 49.3121C65.7505 49.3121 65.3783 49.061 65.2412 48.6625C65.0695 48.1628 65.3348 47.6183 65.8332 47.444C66.0017 47.3851 66.1407 47.3223 66.2605 47.2518C66.2624 47.2512 66.2643 47.2499 66.2662 47.2486C66.7198 46.9783 67.3124 47.1263 67.584 47.583C67.8556 48.0385 67.7057 48.6285 67.2502 48.9002C67.2464 48.9021 67.2419 48.9046 67.2374 48.9072C67.2368 48.9072 67.2361 48.9079 67.2361 48.9079C66.9953 49.0494 66.7332 49.1686 66.4571 49.2615C66.3546 49.2954 66.2515 49.3121 66.1503 49.3121Z" fill="black"/>
<path d="M16.5231 49.4377C16.4674 49.4377 16.411 49.4326 16.3546 49.423C16.3046 49.414 16.256 49.4044 16.2073 49.3935C16.1579 49.3826 16.1086 49.3711 16.0599 49.3583C15.5481 49.225 15.2412 48.7035 15.3719 48.191C15.5019 47.6792 16.0157 47.3659 16.5359 47.4966L16.698 47.5318C17.2188 47.6286 17.5622 48.1276 17.4674 48.6478C17.3835 49.1123 16.9786 49.4377 16.5231 49.4377Z" fill="black"/>
<path d="M16.0503 49.3121C15.949 49.3121 15.8459 49.2961 15.7434 49.2615C15.4673 49.1686 15.2053 49.0494 14.9644 48.9079L14.9631 48.9072C14.9631 48.9072 14.9516 48.9008 14.9503 48.9002C14.4942 48.6285 14.3449 48.0385 14.6165 47.583C14.8882 47.1263 15.4795 46.9783 15.9337 47.2486C15.9375 47.2506 15.9381 47.2512 15.9401 47.2518C16.0599 47.3223 16.1989 47.3851 16.3674 47.444C16.8658 47.6183 17.1303 48.1628 16.9593 48.6625C16.8228 49.061 16.45 49.3121 16.0503 49.3121Z" fill="black"/>
<path d="M65.6776 49.4377C65.2221 49.4377 64.8172 49.1123 64.7333 48.6478C64.6391 48.1276 64.9825 47.6286 65.5027 47.5318L65.6654 47.4966C66.1786 47.3659 66.6981 47.6792 66.8288 48.191C66.9595 48.7035 66.6526 49.225 66.1408 49.3589C66.0921 49.3717 66.0434 49.3832 65.9934 49.3935C65.9447 49.4044 65.8961 49.414 65.8461 49.423C65.7891 49.4332 65.7327 49.4377 65.6776 49.4377Z" fill="black"/>
<path d="M45.3474 52.7529H38.7047C36.9545 52.7529 35.5298 51.3288 35.5298 49.578V45.8463C35.5298 44.0955 36.9545 42.6714 38.7047 42.6714H45.3474C47.0976 42.6714 48.5223 44.0955 48.5223 45.8463V49.578C48.5223 51.3288 47.0982 52.7529 45.3474 52.7529ZM38.7047 44.5933C38.0141 44.5933 37.4517 45.1551 37.4517 45.8463V49.578C37.4517 50.2692 38.0141 50.831 38.7047 50.831H45.3474C46.038 50.831 46.6004 50.2692 46.6004 49.578V45.8463C46.6004 45.1551 46.038 44.5933 45.3474 44.5933H38.7047Z" fill="#ED9121"/>
</g>
<defs>
<clipPath id="clip0_368_3208">
<rect width="82" height="82" fill="white"/>
</clipPath>
</defs>
</svg>
