<svg width="56" height="65" viewBox="0 0 56 65" fill="none" xmlns="http://www.w3.org/2000/svg">
<path d="M22.6102 32.2827V44.8563C19.0254 46.9266 15.4658 48.997 11.8052 51.0926V38.519C15.3648 36.4486 18.9496 34.3783 22.6102 32.2827Z" fill="#EBEBEB" stroke="#262628" stroke-width="1.5" stroke-linejoin="round"/>
<path d="M11.8304 38.5442V51.1178C8.19509 49.0222 4.61024 46.9518 1.02539 44.8815V32.3079C4.66073 34.4035 8.24558 36.4991 11.8304 38.5442Z" fill="#EBEBEB" stroke="#262628" stroke-width="1.5" stroke-linejoin="round"/>
<path d="M22.6101 32.2825C18.9747 34.3781 15.3899 36.4737 11.805 38.5188C8.24544 36.4485 4.66059 34.3781 1 32.2825C4.63534 30.1869 8.22019 28.1166 11.805 26.0462L22.6101 32.2825Z" fill="#EBEBEB" stroke="#262628" stroke-width="1.5" stroke-linejoin="round"/>
<path d="M17.2333 29.1771L6.42822 35.4134" stroke="#ED9121" stroke-width="1.5" stroke-linejoin="round"/>
<path d="M33.4149 26.0462V38.6198C29.8301 40.6902 26.2705 42.7605 22.6099 44.8561V32.2825C26.1695 30.2122 29.7544 28.1418 33.4149 26.0462Z" fill="#EBEBEB" stroke="#262628" stroke-width="1.5" stroke-linejoin="round"/>
<path d="M33.4153 26.0462C29.78 28.1418 26.1951 30.2374 22.6102 32.2825C19.0506 30.2122 15.4658 28.1418 11.8052 26.0462C15.4405 23.9506 19.0254 21.8803 22.6102 19.8099L33.4153 26.0462Z" fill="#EBEBEB" stroke="#262628" stroke-width="1.5" stroke-linejoin="round"/>
<path d="M28.0121 22.9407L17.207 29.177" stroke="#ED9121" stroke-width="1.5" stroke-linejoin="round"/>
<path d="M54.9999 26.0462V38.6198C51.415 40.6902 47.8554 42.7605 44.1948 44.8561V32.2825C47.7544 30.2122 51.3393 28.1418 54.9999 26.0462Z" fill="#EBEBEB" stroke="#262628" stroke-width="1.5" stroke-linejoin="round"/>
<path d="M44.1947 32.2825V44.8561C40.5593 42.7605 36.9745 40.6902 33.3896 38.6198V26.0462C37.025 28.1418 40.6098 30.2374 44.1947 32.2825Z" fill="#EBEBEB" stroke="#262628" stroke-width="1.5" stroke-linejoin="round"/>
<path d="M54.9997 26.0462C51.3644 28.1418 47.7795 30.2374 44.1947 32.2825C40.6351 30.2122 37.0502 28.1418 33.3896 26.0462C37.025 23.9506 40.6098 21.8803 44.1947 19.8099L54.9997 26.0462Z" fill="#EBEBEB" stroke="#262628" stroke-width="1.5" stroke-linejoin="round"/>
<path d="M49.5976 22.9407L38.8179 29.177" stroke="#ED9121" stroke-width="1.5" stroke-linejoin="round"/>
<path d="M44.1947 7.2363V19.8099C40.6098 21.8803 37.0502 23.9506 33.3896 26.0462V13.4726C36.9493 11.4023 40.5341 9.3319 44.1947 7.2363Z" fill="#EBEBEB" stroke="#262628" stroke-width="1.5" stroke-linejoin="round"/>
<path d="M33.4149 13.4726V26.0462C29.7796 23.9506 26.1947 21.8803 22.6099 19.8099V7.2363C26.2452 9.3319 29.8301 11.4275 33.4149 13.4726Z" fill="#EBEBEB" stroke="#262628" stroke-width="1.5" stroke-linejoin="round"/>
<path d="M44.1946 7.23631C40.5592 9.33192 36.9744 11.4275 33.3895 13.4726C29.8299 11.4023 26.2451 9.33192 22.5845 7.23631C26.2198 5.14071 29.8047 3.07035 33.3895 1L44.1946 7.23631Z" fill="#EBEBEB" stroke="#262628" stroke-width="1.5" stroke-linejoin="round"/>
<path d="M38.8177 4.10559L28.0127 10.3419" stroke="#ED9121" stroke-width="1.5" stroke-linejoin="round"/>
<path d="M44.1947 44.8561V57.4297C40.6098 59.5001 37.0502 61.5705 33.3896 63.6661V51.0925C36.9493 49.0221 40.5341 46.9517 44.1947 44.8561Z" fill="#EBEBEB" stroke="#262628" stroke-width="1.5" stroke-linejoin="round"/>
<path d="M33.4149 51.1178V63.6914C29.7796 61.5958 26.1947 59.5254 22.6099 57.4551V44.8815C26.2452 46.9771 29.8301 49.0727 33.4149 51.1178Z" fill="#EBEBEB" stroke="#262628" stroke-width="1.5" stroke-linejoin="round"/>
<path d="M44.1946 44.8562C40.5592 46.9518 36.9744 49.0474 33.3895 51.0925C29.8299 49.0221 26.2451 46.9518 22.5845 44.8562C26.2198 42.7606 29.8047 40.6902 33.3895 38.6199L44.1946 44.8562Z" fill="#EBEBEB" stroke="#262628" stroke-width="1.5" stroke-linejoin="round"/>
<path d="M38.8177 41.7507L28.0127 47.987" stroke="#ED9121" stroke-width="1.5" stroke-linejoin="round"/>
</svg>
