<svg width="81" height="81" viewBox="0 0 81 81" fill="none" xmlns="http://www.w3.org/2000/svg">
<path d="M48.0142 52.8516L46.9729 51.3443C46.447 50.583 34.0923 32.6133 34.0923 25.3125C34.0923 21.6202 35.559 18.0791 38.1699 15.4682C40.7808 12.8574 44.3218 11.3906 48.0142 11.3906C51.7065 11.3906 55.2476 12.8574 57.8584 15.4682C60.4693 18.0791 61.936 21.6202 61.936 25.3125C61.936 32.6133 49.5814 50.583 49.0555 51.3443L48.0142 52.8516ZM48.0142 13.9219C44.9943 13.9254 42.099 15.1266 39.9636 17.262C37.8282 19.3974 36.627 22.2926 36.6235 25.3125C36.6235 30.2403 44.0745 42.4503 48.0142 48.3675C51.9538 42.4504 59.4048 30.2403 59.4048 25.3125C59.4013 22.2926 58.2001 19.3974 56.0647 17.262C53.9293 15.1266 51.0341 13.9254 48.0142 13.9219Z" fill="#ED9121"/>
<path d="M48.0938 32.9063C46.5919 32.9063 45.1237 32.4609 43.8749 31.6265C42.6261 30.7921 41.6528 29.6061 41.078 28.2185C40.5033 26.8309 40.3529 25.3041 40.6459 23.831C40.9389 22.358 41.6622 21.0049 42.7242 19.9429C43.7862 18.8809 45.1392 18.1577 46.6123 17.8647C48.0853 17.5717 49.6122 17.722 50.9998 18.2968C52.3873 18.8715 53.5733 19.8449 54.4077 21.0936C55.2421 22.3424 55.6875 23.8106 55.6875 25.3125C55.6853 27.3258 54.8845 29.256 53.4609 30.6797C52.0373 32.1033 50.1071 32.9041 48.0938 32.9063ZM48.0938 20.25C47.0925 20.25 46.1137 20.5469 45.2812 21.1032C44.4487 21.6595 43.7998 22.4501 43.4166 23.3752C43.0334 24.3002 42.9332 25.3181 43.1285 26.3001C43.3239 27.2822 43.806 28.1842 44.514 28.8922C45.222 29.6002 46.1241 30.0824 47.1061 30.2777C48.0881 30.4731 49.106 30.3728 50.0311 29.9896C50.9561 29.6065 51.7468 28.9576 52.3031 28.1251C52.8593 27.2926 53.1563 26.3138 53.1563 25.3125C53.1547 23.9703 52.6209 22.6835 51.6718 21.7345C50.7227 20.7854 49.4359 20.2515 48.0938 20.25Z" fill="#ED9121"/>
<path d="M10.125 69.9321V24.3013L22.5408 21.4878L35.7729 24.0709L35.2882 26.5541L22.58 24.0747L12.6562 26.3237V66.7554L22.3383 64.5393L22.5155 64.5481L68.3387 67.0085L68.1893 26.5781H60.75V24.0469H70.7117L70.8801 69.679L22.5572 67.0857L10.125 69.9321Z" fill="black"/>
<path d="M24.0469 22.7812H21.5156V35.4375H24.0469V22.7812Z" fill="black"/>
<path d="M24.0469 53.1562H21.5156V65.8125H24.0469V53.1562Z" fill="black"/>
<path d="M24.0469 37.9688H21.5156V50.625H24.0469V37.9688Z" fill="black"/>
<path d="M43.0312 67.0781H40.5V60.75H22.7812V58.2188H43.0312V67.0781Z" fill="black"/>
<path d="M43.0312 50.625H22.7812V48.0938H40.5V40.5H43.0312V50.625Z" fill="black"/>
<path d="M69.6094 50.625H54.4219V37.9688H56.9531V48.0938H69.6094V50.625Z" fill="black"/>
<path d="M56.9531 67.0781H54.4219V58.2188H69.6094V60.75H56.9531V67.0781Z" fill="black"/>
</svg>
